<mxfile host="app.diagrams.net" modified="2023-03-24T20:32:13.649Z" agent="Mozilla/5.0 (X11; Linux x86_64) AppleWebKit/537.36 (KHTML, like Gecko) Chrome/111.0.0.0 Safari/537.36" etag="QHIrKvDprRdi-RdGwUBF" version="21.1.1" type="github">
  <diagram name="Page-1" id="PTh6ZFvXNoL-9yE4HP0J">
    <mxGraphModel dx="1434" dy="1766" grid="1" gridSize="10" guides="1" tooltips="1" connect="1" arrows="1" fold="1" page="1" pageScale="1" pageWidth="850" pageHeight="1100" math="0" shadow="0">
      <root>
        <mxCell id="0" />
        <mxCell id="1" parent="0" />
        <mxCell id="7bl6Vf3JTjFMhsMhAHnB-7" style="edgeStyle=orthogonalEdgeStyle;rounded=1;orthogonalLoop=1;jettySize=auto;html=1;entryX=1;entryY=0.5;entryDx=0;entryDy=0;exitX=1;exitY=0.5;exitDx=0;exitDy=0;labelBackgroundColor=none;strokeColor=#FF6392;fontColor=default;" edge="1" parent="1" source="7bl6Vf3JTjFMhsMhAHnB-2" target="7bl6Vf3JTjFMhsMhAHnB-3">
          <mxGeometry relative="1" as="geometry" />
        </mxCell>
        <mxCell id="7bl6Vf3JTjFMhsMhAHnB-2" value="" style="shape=image;verticalLabelPosition=bottom;labelBackgroundColor=none;verticalAlign=top;aspect=fixed;imageAspect=0;image=data:image/png,iVBORw0KGgoAAAANSUhEUgAAAc4AAAB0CAYAAAAMwNIXAAAABHNCSVQICAgIfAhkiAAAABl0RVh0U29mdHdhcmUAZ25vbWUtc2NyZWVuc2hvdO8Dvz4AAAAtdEVYdENyZWF0aW9uIFRpbWUARnJpIDI0IE1hciAyMDIzIDAzOjAzOjExIFBNIEVTVIwUjmcAACAASURBVHic7d1/UJR3nuDxd2jsBzHdhLU76DRhko5kQa00I7VQZA+WO3F6T5RbCVZimDJoYtSMI05i4FyF8xTDAppR4saoN8pYYUgqDN5pcItAtjycjYdTMZJVcaO2P3si0+0QuyP6II33R7fSKtDdBk3MfF5VVGk/3c/zeT7P93k+3+/3eRoeun79+nWEEEIIEZSw7zoAIYQQ4kEihVMIIYQIgRROIYQQIgRSOIUQQogQSOEUQgghQiCFUwghhAiBFE4hhBAiBOEDvXjmzJn7HYcQQgjxQBiwcAIYjcb7GYcQQgjxQJCpWiGEECIEUjiFEEKIEEjhFEIIIUIghVMIIYQIgRROIYQQIgRSOIUQQogQSOEUQgghQiCFUwghhAiBFE4hhBAiBFI4hRBCiBBI4RRCCCFCIIVTCCGECIEUTiGEECIEUjiFEEKIEEjhvJeOVJNvzSQzPZmJeVuwDevKndhnJ/PFB85hXetfFHcDh1PyOW//rgP57rgrrbSVtH7XYfyweVo5Md3KHyan8W/JL/FV13cdkD+5jtwNKZz30oTF1DbtpakoFeUuV9FVksnBjTb6jlVzMLOULk+IK9hfSpt1LZcG+Zx7Qw5tRS303WV8w0Ola6WVP6xsHSSOQMvvUmQSY4vmEB09nCv94ft+tJlvyV7HF2n5nD8b6gfdXCzJ5N8sOZw+Mth7bmuvmgzG7W7ib3bMZ5Tm2wT9A3DXeb97Q7ZXew2HUpbgUFUcryfzxY7getGD/iFrIe6bzgbONekZ+9uMgXtygZbfLY2Z0Xnm4VyjeCCoXNpRg5r5BmPiQvtk774qzthMRIS7B3/TvWqvD7y7z/v3zfAUTo+dlnWlVO8+ir0XdIbx5BatZ3G6DrBT81wOjbHZGC+cxNHthLhnWVH2ChYdgJ2W8jVs3vs5tq4etNEJZOQXsWK2Bd3N9Ttp21ZGdX0bx7pAF+O/frDvraZqYwP7TrnRxiTxbOEqllpNgJOWZflUed6gtjILA+Dcs4S8DQoraivIMgTaMSd1s620ZDfx6+e8b7ZtzGHmqfl8ui7bO4r0tFKauQYWFUBjHYecKi5SWVG7iqwAI5lrzoe45nnojtc12uso0deDSj3nmzkxezOOI27CJ8xi3Ial3hHUqRoO/7wOtdtJb5eWL6c2EwaMyFvP0/MS6dldzL9vPESfy06vp4zPrFWEafREr/wQcwr07S3mD6udRCdDt92Fx6UlamEl46aafBtWubxzDSffbeayC8IijYz62WomzrHcEl7XupnYDqYzbsdiogbsbau4f1PHlfTFjHki2OV2HOVrOLf3c9SuHsKiE4jKL2LcbAvhBBG7p4Pz85bQaXfRc8HMY3tqiTUNtO1BONs4s3INFz6z04cWrXkacW8txxiDd/o3s4awqWZ6bXZ6XSrarKU8VZiBNojYvUlrx/5WJRf2HqOnV4s2fhpx5csxmgDcXNpexqn3WrnyNYQnTCF25XLGxiuAE8eyfE573sBSmYUW6NmzhPYNCubaCkYboO9UIydWVHHxuEp4/BRGjwEig8troDZDVyunV77NxYM2elQt4XGpPFq4gh+nBzzRbuo73oCtsoaL7Xb6FAMj0+YTX57rHak52zizeg0X9nuXjfrpfJ4symWUApfKrXx5+ElGXPica+ZnMUa30rnXxahF25g4+7bOkbORc3v0PLoty5dzN52FP8Vu3sakwkTfm3yvxW9j0iLfa+5WTm+wE/OP07g4r26QPQjUngcSoE3sL6VthULCx8u955CnhaNp1UTu2MXjCTeWuzBOhW8O2lDtoFu0nqfyzDcL95B5hcGvIwDuDr5aV8YfPzlGj6pDSS8gfmUBOt8Fure9hhNv1nDplEqfokdJmU/iulxG3r6bd+Tde6vg8OEkRivn6Xa58ZDIj/7nKsYmeOfo+tprOLauAfdxO30eHdrkacQtW4rxRuEd4lwM2F6/hWEpnOq+akqaDKyo3092DLjPtmPzaP3fge18LKt2rCJRcdOyLI/CygSaVmegoIIpixVbK7DE6XAf2cKSlwupjm9ieZo3eR1bF7Jkl5kVGz8mO16HeraVlgsqoEM9Us3CZS0krdzGp1YzPQerWVC4hC3mD3kl3kBWSSWHZhdSWp/Ir1JaKa60M+2t94IomqFw0rzLTsWGXawygNppxx0Z4CMeDYdzFf440P2OSdf4z7+5RiQwasYbPBZpJMw0hceKem6b6lG5vNfG2HebGKc/xumX53KqNpfoRWZ4ooCJewq8J9VKPU/tWXpL4dJOryB5unca46h9McmVWXf0jvs6T9KXWU/SVAN9x7fwxdwizk+sJTYO6GrkVPkhIjd8zNNpOuiy0XXqzgnpvk4bV22J9A6auhbO7YaYd7MGbowDLve2mSe3VqCL09F3ZAtHXy7kdHwT43xtZsjYNYnEbmsi1t3A4cm/GyyyQbl/U8oFTwFP753FSEXl6pFD3NLce21c0S7HUptKeHc7tvwFnDDvZvx0QxCx27EXLeCPkYtJ2FWLLlrl6oEWrvim2q/sWMDR9408/s8fMzYBLtcWc7jwbSJ3LiVKMWAsqcQ9u5Av6xMZn9LKl5V2Rr/1HqMNADbO/fdS3BN/RfKODMIOb+HovAawBpfXgG2mB0Y88wvGr0xlZDRcqS/mi6IyIj5eT4yOwLpa+HJeFT3Pr8eyMZWIcCfuPYd8C510rlzCn5Q3eHpfLiPdbdh+/irH3k0k2Vfs+sbkMvHdbL78aSnfvN7E38yo5rPKj7icv/iW88ZdW8PlSfN5Kv7GKzpGT83g9MZG3IsS0WkAZzOOA7GMXtJfSLvWr6Xbuh5zXBsXB9uHQO15QIHbc0DOQ/RMrOfp1w30HVjD54XVXLSux6gLlFfv9ge9juCkc8VCzvYUkLCzliidnc6SuRx7M5aflGcRjp0LlW9zNf09kj9IJFx1cvmgg4H6yHfm3avvuJNRH9TyVBxcrX+V9mWbebh+MToN9Hn06F+sYFxaIlqNHUfZXE6sNKHbNosIhj4Xg7nGEZ3BY8sSGaUokLecMENwhWF4ZhI0Ckq3E7vNhtsDujgLlif8D7hCwt9nk6gA6Miamgr7WjjkATCTNTsXS5z3zNJNyCV7opujx303qz3tNOy08ZOFK8iO975HicsgO8W7g4c+bMDxzHzesJpRAN2kObwwyUbzXt+jOJEWlpYXoG5ayM9+vhnmVrB00t3ecRxcav58Mnw5V2JMGAJtQtPHkxU9JL89wM/rHiJ8b9NOysaYoANdIsapFrS3rERhZM4sjCYFdBZGP2NCPWUbtntPYdGpGCd7dyosPhvjE8f4874bDxEohOGix2bjqhuINhM96c5h2+jKz/jb/asYPci9ncvv1+C2FPCjCaEsN2OcnUtUnI4wIHxCLsaJbr453v+Aw9Cxf1sKfX+2033WSR8KERNSGeU/uxBuIjon1XvhjLRgzDRyqaXN13kIEPupRjoPmhlbNAtdtHdbESnZRMcBng46dx5j1OwVjE3QATpGPf880d3NXLxxvy3SwuPlBfRtWsihn2+mb24F5hvt/WwrXScSiHkxA60Gwi0vMjbdv6EGzuuQYjIwPZfByGgFUBg5fRpR2LgS5P2snk/q6NI9yxPzUolQAI0B3fQsb9Fzt3HxgJ7Rs3MZqQCGVGJnptLT0ozb16kYEWciPNJMpMFAhNlAmMnMCJeTHv+NdDVybicY52bfci6Fp2cT7W7GcdgXy95G3OZsHvWNGnsPVHPqcBZPzDYPedEM1J4H9i3zDqDPwOgbDYRZkhjpsdN9wbcvQ+UVGPI60tlM5+/1xBQWEGUAFBMxL2YT9vtmLqn9m/d02rjSqYJiYFRa4m3XKQbNO0BYcjYxvhFkxNRsdPYWLh73/j98Ui6xkxPRRnq3bZyRQbit42ZHMuC5GEikmdEzUokAItJyGR0fXG0YlhGnkr6YDYs2s3njQrYfd6FPmML8kuXk+gURpdP3f+Cv9Cju8zh7AY2b9toqqne2cbLLeyTUr1Vibwylex04unSYTAN1Wd04nW7cn1WRN7W6/+VuHXqz31GNf5bcpM0Uf5pKxfR7cU/LQOyYYLrU/q6j/LiPsAGGYmHK9aB7NGH6/ryGaQDUQd8bskgj4TdbiJ5wPVxzOgADRGdjXmfn7G/L+PeNNvoMSRgXrcJsDWHO093CuXoXo9+682QaermbS7VVnNvZxhVfm+n7WkXxn34ZKvZvSfdKBY97NmN/bTpfdiqMzCzgyZL+qSs0erR+zX1EtA66XPQC4YFidzjwaGJRxgy0ZQc9TpXL2/L5rLb/1T4PRF/u/39Y/LPEJG3mxKepPOXf3t1OPEQx4mYKFLQxBrh5uy6IvA6lu4OvNrxN576TXFNVQKW3W0/MoNMNt7rmdMCYbJSBOlkuBz0eA3q/i2K4QUeY20kvvhGARgFUCPedCxoI83BLR/JKfQ3u+ALMt95RgMhUjJkqJ/a087jFhGPPUUZNXeWdblTbOVvexiPLPkSn4Jev2wRqz4P6lnkH0Cr9F/Nwbx6u+4rLkHn1GfQ64rRzrddO52tWv1G2Sq8mid5uQDHxo7IKejfVcfyFUlSPiai8pYxblHFLDgbNOxCmM/Rf7xQd4YqLHt9MXN/ZFs5u2M7Fw3b6egGPmx416+YxDXgu3iPD9HCQAUv+ct7JXw7ddhpXzqX0rUambMq9eZ/S4XSA73+qw4FLp0cXDuq+Kgq3Opm/tZ5fx+sAJ3XzrDTcOHDhRozRbux2N0y6PRs6DAYdhqkVNJWkDhqdc3cJVR0ZFDxziKqyRlLXZQd/+QwH/3lGd/cghWmop+U0A5xGHg1Hnw88VTscwoYopmEaBh2h9rnO06Piuwfm4poDRqT0n2AR6a/wVPorgNs7ZVhWTVRmBaODHNBfqd/OJXMBlkFmAAZb3revimNbncRurWeir83Y51lx+O1noNi/FV0iY4vWM7YI+jpbsS34JSfrp5A058Y9VAdXHYBvtHLtghOi9d77r4FiNxrReI6iXgDu6IMY0Rp0RC/YRYJ18CRf3V3C2Y4Mxj5ziNNljejWZXtnMHQGNHTQ676RF5XeLtfNq0AweYXB24x7UzGnO6YxsfYd72hZbeFYZlVwOQVGGIxwwYbqAe3t55PeiFbj9F5QfaOTXqebPp3Jm9dgNtDdyrn3XYwuy745o9NPIWrqFFj2EZeeN3GxYzzGct8BcH6Oy2bj8txkvvLf3+cm8vXrTTePe6D2TLhCGN6Ojr+AedcohHnU/n3sdt2xjqEMmddADCZGKEmM2fFrTINcNMOeyOLxyiweB3oOVnN0wRrOp2f0F8kh8w59Tju94C20Lic9qp6HowHs/HFZMX+2/IoJb2Z4R8sH1vCHQlf/hwOdiwx9jbtbwzJVqx5rpaXdjuoBFAVFAW2kf+NR6dhVQ0sn0G2jrrYVJT2LVA3gdqHqzIz3TdWqRxr4qN3vRNVYyJ1upm1LGY3HvV091d5Gy0HvNEbSjGnoP6mmer/d28xUJ7Z9jbTemB46XkPxOju55atYurqSaWeqKN4R7DcqDZjjdJxsP+TtZLrb+Ghf6F/6U35sxmRvo81/ykrTx5Nv9pC8foCfQs+ADeyuRBvQdNn45sLAizXRRrDZ/KY+/Lj38VVtB71Az94aOk8l8FfpvgbZ1Y7jkw5vcUJLmKIFrZ6w27piXZUz+ey5Ab4O092G/X070bNzB97XIZb3uV306cw87GszfUcacLTf1jkYKvYgDRb7lX2NdJ31tsUwbRRhGgjzb++9Ti7WNnBFhT57I/YmF7pM79RtwNifyCbGYuOryjrcXQAqPQdb6DoLaBKJyTFzaetaHKd8I5MuO127W7jsi7HveA1frrNjLF+FeXUlxjNVfLnDN+0Wl4Eh4SgX9/j+72yhc3//8CmovDJ4m+ntdhFmMjMy2hv3lf/dwKXu4POqzcwl2v07Tm1t87Yrjxv3nlbvvulSiU5xcXGHN690tXH+wza0mX8X9Fc8ru7cTNeYWZgGuW8YljyN0Uoz595s4EpyNqNjfAtMBSS1H+ZvD/t+9i5Hp5gxfXC4/wIdqD0DPGIiIvIk7gO3TsEGzLvJjNLdgct32bq6pwV3kKN4CJDXQGKmEJNykguVDVz2dfJ77e04mtp94wknl5pauewbKYdHRhCmUQjzS3GgvPcdbOD8ATfekXcd7pgMRscDHhe93Vq05vHeoulx4tjZTI9f3AHPRQJc4+7S8Iw4XceoKy+lxO6mR6PDlDSN1Suy+5+KRcGSoqfh5TSKO8GUMoeK1zK8T6VOXswb+0somjETwxg9ETGpjE9Q8L91nbhwE78KL+PtBT+l1N3/VG0WoFiWsmllNVXr8sk8692+OWkKBcuywd3O2qLNXH2xlsUWBfDe78yfu4S1Ez8M6l5n6tw3yHitjOkztvOkaTyWRDOEegAmvMDSvDZK85JZi47syr2syryO/j/1MkxjoMElPMtj09s4/Xwa5zUKyvObSFqQeHNxxNQXGfvJGg5n/pYwrZ7RZbswp3mXhZnSedhexudpx+iNTMBYUsmPbjwp6HHgrq3GtsJOn8f7BOWYsvlE33YR63PauHr2zoeDru7ewsVHXuDpzIGPwVDLwycv5vH9JZyYMRPNGD3hMak8nKDwjd97hoq9t6mU9spW+lDp7e7h8uxMvkJh1KJaxs/o71YPFnvfqWZOlZVxrKvHe09n8nKe/Ae/7riSSFRcKx3WNaiqgVF5FTzlW2/g2E2Y1r3L9cpKvsxZ6/dUbRYAI+ds4CmqOLMgkxNdPYRFmhiZNosnpwLudk4XbYYXa3nc197jygs4PHcJpyd+iHmSmR+VreDq/1jC540KGr2ZyPj+uIPJKwzeZqLnrsBYUk37jO2MiI5Aa0lklP7kHcdvsLxiyGbcuyqn163h821+T39aAQyMXVmBunItX6SvoU9jYJR1OQmLLMH1/tU2ztfaiXr92Tuf9rxBY8Fo1fPVVjvR5VNCmm4N1J4BUDKIK8rgaLmV/SWgfWEbya9bAufdNI0fz23hxDwrF+NiiXzGzKjw88EHN2ReA36YmPJN9K5by7GcNfSoWsIMZqJmFuGdNVe5+vvNnC/7JT0qhOkSiFpUQWyC7+NB5D08JQnezaNtkRPisoir+oX3AS0S+VHRLL6szOezDw2MGGXk4QlJt4yaA56LDH2Nu1sPXb9+/Y7vPZw5cwaj0fjt1nyT9+soB57fyzsz7vHEsxg2fXuL+UOlkfG7l/oa8TBS27HlFdKzcDcJUwdoE4GWB3BPYw/E96TuI/W+J3jF90JP/at8/n4CEz9YPPy/hOBbttcfskB5d1daOdq1nL8pf7C+8yq/AEHcf85LaHNXMNY6yEUm0HIhQqKiKknE/eOse/Obe6S9DuIe5/079BdcOFU6dv6GZvvVgReHxzJldi6Jw/WEjuhnyiB2zrdYLkRIFHTTX+GelTVpr4O4x3n/Dt2HqVohhBDih+NBmlYWQgghvnNSOIUQQogQSOEUQgghQiCFUwghhAiBFE4hhBAiBFI4hRBCiBBI4RRCCCFCIIVTCCGECIEUTiGEECIEUjiFEEKIEEjhFEIIIUIghVMIIYQIgRROIYQQIgSD/lkxh8NxP+MQQgghHggD/lkxIYQQQgxMpmqFEEKIEEjhFEIIIUIghVMIIYQIgRROIYQQIgRSOIUQQogQSOEUQgghQiCFUwghhAiBFE4hhBAiBFI4hRBCiBAM+Cv3zpw5c7/jEEIIIR4Ig/6uWqPReD/jEEIIIR4IMlUrhBBChEAKpxBCCBECKZxCCCFECKRwCiGEECGQwimEEEKEQAqnEEIIEQIpnEIIIUQIpHAKIYQQIZDCKYQQQoRACqcQQggRAimcQgghRAikcAohhBAhkMIphBBChEAKpxBCCBECKZxCDOE//uVTntn+J65+14E8AOy1r2KdnElaykSs5e0DvufqF1/wzJsn+A/PfQ5OiGEkhVPcO2ojS1JmsuXUdx3IQJzUzU7m1Xr34G+5dI5/aoYXpz9KxP0L7IFlyn+Hpk/2UmE1DPqeiKfH8SKn+ac29T5GJsTwksIpxCBO7zvN/417jOcHrwMiZJE8n/4wTZ+c4/R3HYoQd2nYCqd9ez7J87bQuPFVZk63Yp1sJX9rh3ehu4O6lflY05NJTslk5us1tPt19N3tNRQ/l0laShpp6VZmvt6A7ebCBl5NzmFJyRLy82eSMz2Hlza04rz5aRXbzlLyrWkkJyeTOWMJW/b3L+3YkEPyvLVsKXqJ/BlWMqe+ypZ2v96ux05L5UvkpKeRnJZG5vSXqN7nH9zQsQ+lr+shujvDBvh5iL77kFc6W1k7z0paSjKZecWsLcoheVEDbugfDR6/8WYndXOTeam2P3f2vdUsycskOTmZtKkvsbbJ7rfy/rynpaWRNjmHV7f7puc87VTnW7HmVLGv28b2l61YrVZyChu4uQZnG9WLcshMSyYtLQ1r/hoaO4NMCuDcW81LU9O8+72smtK8ZF7d3X9ch4q9dXUOVmse1UdU2jbkYbVasU4vpeWW49pN0+ffkDDxUaLu2PhQsdupeS6Zma+X8mp+PjNnWJlZuMXvuNhpKX+VmdY0klOSSbPmU7yjnVs23dVOXYnvuKalYZ29hpab4btp217MzMlpJCenkZlfSsPxG/vtpGWZFWtRy83zw7lnCZnWYlqcBBZEm8DTSmm6ldIP6iidnUPOVCuZU0tp6Qpi/T5REx4l6eyfaAomJiG+h8KHc2Xqwd/RnLWJ93abUXBjPwvgpHHFQjb3FLBhZy0WnZ3GkrkUvhnL7vIsdNj5XeXb2NLfY+8HiSiqk46DDvT+K+610aFdTn1tKrrudtbmL6DMvJv10w3Q/jZLyjvI2PgxtSlabPXFzC0qw7RzPdm+kYJ62Ibug19TGwe2d2cyc0MDudtmYQDUfdWUNBlYUb+f7Bhwn23H5tH6Nhwo9qE8hP1/juSLTwZYpHh4+t9UHlPuZV6dNKwu5qPoFdTvy8bwxwaK5zTCxCC3eaSahctaSFq5jU+tZnoOVrOgcAlbzB/ySjzQ1cja8kOM3/AxtWk66LLRdsq3QxoLi2ubWKw2siS9hvH/60NeeeLW9bf/ppQ6TwH1e2dhUlScRw7h0N4RxsCcDZSWNKB7rZ5PZxhw1heTvxvGBxl7RskuMnBSN9vKvpx63skb4Ehec9H+1QgSxt55kALHrmI7H8uqHatIVNy0LMujsDKBptUZKKhgymLF1goscTrcR7aw5OVCquObWJ6mAHbqihawOXIxm3bVkhit4jzQwlHfPUHbjgUsed/IG//8MbkJ0FFbzMLCt3ly51IsioGskkoOzS6ktD6RX6W0UlxpZ9pb75E1rKNmJ8277FRs2MUqA6iddtyRIXw86mESIr+h/UwfGGTSSzx4hrXVKj/KZn6eGe+lRocpTgedzTT8Xk9uYQEWA6CYyH4xG/3vm/G/zeHqtGHrVEExkJiWyC3nebiJKTmp3kIVaSE708i+ljZUoGNvK/bkWcxP0QEK5hlzmBa5j+b9/X14JTmLaXHef5stiejsNk7eeDhBo6B0O7HbbLg9oIuzYHnCd7EMMvaBXefReT0kvz3Az/peHg2yaN51Xt1ttBzQMy0/G5MCyhO5zJoc/NXz0IcNOJ6ZzxtW73Z1k+bwwiQbzXtvzAUogAuHzYbdDUSbSZ1kCnr9WhR6/myn46wTFQXDhFQSo4P7rHt/C226aczJMaGgYJoxhykxocQehGvX+PqahqgBCkLg2BUS/j6bRAVAR9bUVNjXwiEPgJms2blY4rzFWjchl+yJbo4e9w2/TjXScNBMQdEs3zoVDCnZZMQBng4+2nmM8bNXkJugA3QkPv88Gd3NNB/xbTrSwtLyAtRNC/nZzzfD3AqWTgqhsQUpNX8+Gb7mpMSYMIS0iRFERXj4WpUnhMSDaVhHnMTGEqu57TWnnfO9dk6+ZqXx5osqqiYJtRtQTMwqq8C1qY7iF0qxe0yk5i1l1aKM/uKp0aP3G4Lqo3XQ5cINOJwOtAZD/+hPY8BggM+7XHDjVUXvt1yB3v51KemL2bBoM5s3LmT7cRf6hCnML1lObrwSROxDp2NETB8PDzQsDb/OiKE/equ7yWu3g0seAwa/C7rRaISgpkPdOJ1u3J9VkTe1uv/lbh16s6/HEJ3N8nV2Nv+2jLkbbbgMSTy7aBVLrcEVz8RXKlju2cz216ZT3KlgzixgRUkBlqGH8QC4nJfAYMBwIycaHUYDvmngIGIPxogRPDLCw6Xuu4s9SufXYP9Kj+I+j7MX0Lhpr62iemcbJ7u88ahfq8Sm+N7rcODQxBI7ZqCgHDidKoe25WOt7X9V9UDGZb+3xT9LbtJmij9NpWK6Ofh9DpqB2DFBHKhBXePSVQ2PKLc3aiEeDMNbOAdiMGFQkpi249fMGmTAozyRxeLKLBYDzoPVFC5YQ016Bkstvjd4HDgcgG+6z3nBCdF6FMD4iJGeE07c+Mqkx4nTCcZo/QBbGjBALPnLeSd/OXTbaVw5l9K3GpmyKRddELEP7iHsZRHDMlU7cNgBYgs3EqVx4uwCfKNth8PhHwSgcvVmp19FvXnx1WEw6DBMraCpJHXQEEzpr7Aq/RXATUdtMXPLqknJrCAjmP3SJZJbtJ7cIlA7W1m74JdU1k+hdo5f4VXDcB15iGvh19E/3Xezs6E3RIHTicsDJg3gceP4OrTY+/d6ECP0WMZe4/98pcKE23YoiNgdTgc3Om6qw4FLp0cXDuq+Kgq3Opm/tZ5fx+sAJ3XzrDTciMRoxOg5yvkLwB19ECMGg470BbtYbx08yc7dJVR1ZFDwzCGqyhpJXZdNcM13qDZxmyFqnqIBtXeIL/Bc+oZj3SP5bz+WaVrxYLr3LTdmCs+mnKSmsoEO3wMEbns7LU03Hohw0tbUis3X+9ZFRoBGQet/Xeh10lzbgE0FFUq8dgAABNlJREFU1d7I9iYXqZneqdvErAxMn9Wx+YAb7wMr2/nIlUpGWnA9YvVYKy3tdlQPoCgoCmgjlSBjH8p1Rs/rIXn9AD9rQ5uqHVCg2HSpZCW7aK5txK6CeqqBuk/8nsYIN2E2OWhvd/ry0Ejzif4ykjRjGvpPqqneb/de0lUntn2NtJ71vaGrnZZPOnCqAFr0ihZFq0fx74qFG9BHOjj65Z3Zsu9rpO2s93VFG4WigYjI25JyTsPncxX+37wRXPSb1dOlZZHa9RE1e+yoqNh3baf5Qv/ygLF714I+Gs53HB2keEZi/cnDHDv8Jy6FHLtKx64aWjqBbht1ta0o6VmkagC3C1VnZrxvqlY90sBH/g+rPZFNrsVGTWWd77iqOA+2eGPXJDItx0zb1rW0nPJ9pstO2+4WbDfyc7yG4nV2cstXsXR1JdPOVFG8I8gp6gBtIlixZhPuw210DPLRS0f+xLHYsQzxrRUhvtfu/YgTA7nlm1DXrWVJzhqcqhadwUzSzCK84wEV++83U1r2S5wqaHUJZCyqYE6C3yqURFLjWim2rsGmGkjKq6Bihu+ss/yC9UUuSkp+SrKzB11cKrmVq8gN9qR0HaOuvJQSu5sejQ5T0jRWr8j2jRUCxT60yAm9RE4IOlEhChSbgdyVq7EtqyIvvRQlLotpaWZuVnxNIi8UPkvb6jxyGp4k9ikLT45Tbj71qliWsmllNVXr8sk8682NOWkKBcuyvW/wODhUW03ZCjtujxZdXCovlM33FocbNKkULEqluPynpJUr6CfOZ9vGWZgA16lm1paVYevqQasYGD95Ocv/IciDZshlVbmN4vI8nnlTwZyZS0b8PlzBxu59F1lzf0HjimIyM0FRUnmjvoJsv/7W4+mP83f/eo73nY8x3y+0wLErWFL0NLycRnEnmFLmUPFahndmf/Ji3thfQtGMmRjG6ImISWV8gsKhm581MWvdu6iVlSzJWYuzV4shfhqLy7MAMM/ZwHqqqF6QSXFXD9pIE+PTZrF0KuBuZ23RZq6+WMtiiwJ473fmz13C2okfBr7XGaBNBMs0o4j5+4v42TO/AW0qy/e8Q+7NWwbdvL/vG/5uyk94PMT1CvF98dD169ev3/7imTNnvPfDvg/cDbw6+Xek1NdSEPddB/Ngs707k5mHZ7F3Y26AJ4IfMJ4Oqv9hLs7X97Mqc3hX/R//8ilzHOP419nB/hIEOzXP5XDg+b28M+MHleVhcfWLL/gvH0WyvXgcfy23OMUD6j6MOIUYfrYDrRCfgTkanJ820PJ1KvMtgT8Xqr/+r8/w6fCv9i9WxNNP8+nT33UUQnw7UjjFA8l9YDNFrxfjAhTDT8h9cxXZQX6d5S+Sx0bL1o842jvw4ghjKrOeS/1hzUQIcY98/6dqhRBCiO8ReR5cCCGECIEUTiGEECIEUjiFEEKIEEjhFEIIIUIghVMIIYQIgRROIYQQIgRSOIUQQogQSOEUQgghQiCFUwghhAiBFE4hhBAiBFI4hRBCiBBI4RRCCCFCIIVTCCGECIEUTiGEECIEg/49TofDcT/jEEIIIR4IA/49TiGEEEIMTKZqhRBCiBBI4RRCCCFCIIVTCCGECIEUTiGEECIEUjiFEEKIEEjhFEIIIUIghVMIIYQIgRROIYQQIgT/H40JBBo+acXiAAAAAElFTkSuQmCC;fillColor=#FFE45E;strokeColor=#FF6392;fontColor=#5AA9E6;rounded=1;imageBorder=default;" vertex="1" parent="1">
          <mxGeometry x="170" y="23" width="462" height="116" as="geometry" />
        </mxCell>
        <mxCell id="7bl6Vf3JTjFMhsMhAHnB-11" style="edgeStyle=orthogonalEdgeStyle;rounded=1;orthogonalLoop=1;jettySize=auto;html=1;exitX=1;exitY=0.75;exitDx=0;exitDy=0;entryX=1;entryY=0.25;entryDx=0;entryDy=0;labelBackgroundColor=none;strokeColor=#FF6392;fontColor=default;" edge="1" parent="1" source="7bl6Vf3JTjFMhsMhAHnB-3" target="7bl6Vf3JTjFMhsMhAHnB-4">
          <mxGeometry relative="1" as="geometry">
            <Array as="points">
              <mxPoint x="660" y="259" />
              <mxPoint x="660" y="373" />
            </Array>
          </mxGeometry>
        </mxCell>
        <mxCell id="7bl6Vf3JTjFMhsMhAHnB-3" value="" style="shape=image;verticalLabelPosition=bottom;labelBackgroundColor=none;verticalAlign=top;aspect=fixed;imageAspect=0;image=data:image/png,iVBORw0KGgoAAAANSUhEUgAAAUoAAABuCAYAAABBY1qRAAAABHNCSVQICAgIfAhkiAAAABl0RVh0U29mdHdhcmUAZ25vbWUtc2NyZWVuc2hvdO8Dvz4AAAAtdEVYdENyZWF0aW9uIFRpbWUARnJpIDI0IE1hciAyMDIzIDAzOjA0OjU2IFBNIEVTVPIGw/EAACAASURBVHic7L1/eFNVtvD/sU1zCmkaUkLDNG2RINiAWLBALUyxPID1hcKMBS44jIAwivI6wHtH4esLcrkKehG8V9AXRAUcZjroFaoDxbFQL5UqWOoPikoQaJCUdJo2bUjTAz1pUr9/JP0BtE1KwR8z5/M8PA/NOWeftddee+2199lnnVtEUfweGRkZGZkOCfuxBZCRkZH5qSM7ShkZGZkgyI5SRkZGJgiKLp0t1VBaAbf17w2VFsqFRJK0oRQhUf7tCQ58Z6fWpyAmxsCYIUNJUl+f0J3SZGXbn4qIypzNzL6hX2Y/U0KhI5IRKUMZoGz9vdz8KUdqGv1/KCLR642M7t+b5lPKv/2UI9WNV5QV8Ys7yR6g6V49fiZ4RBdihAatMvi5Nw8vRz7YyYHYaay+6wfSu1fCeRm0auF6C/jhZb4OnCf28JR1MC9mmVCFeM1PwyZuLF2KKMuO5bHtgg+Vx8Ib+0s4GxaCk2yq4UDuNp76tAI0egZEK6j89ij7Kr3XK3PnOM5T4ooiIaYL17i/YsvBj3nryBeUim1+b6rgQFER+TaRWlHEeuErNufu5ImiqsAJIpXVF6m8WEF+yafkl7uorBNpDIu8gRX6CdNkZVtODjttN6ktuyBHiaUBve6Hczji1+8xf+8J7NdfAvRIZHTiT9dJgkTpWRvKXrEhO8mfjE3cYEKPKC+beevbXmTPjsV+/CDmxHQeC6GNnccLeMM1lOcfTGdA891+ee15HrEGS7UI0XqSYoS2B3D6BLQREuWVNYg9rzoO4HFRVuVCqY0jymrFrh+MKeTRzEvpkaNYBwwl+ZSV+rbBoctKqdibjF/fx5xYAInC3M2st57HSSxaVIz85X2MdJbwhzMiyeOzAueFjueySGO4CpVCorzCjhjZmyRdG7P0iJRX1VCr0GDqq+GaakkuymskomJj0TZJiGECKgXQ5EWUQNWjWeleRNFHRA8BZZvhUayt4Gydl5g+cSSorjYHL86qCqyXFERpezNAE9B7kxdRlPA4LZgv9yZDJeF0S6BUoQ05wPLirK3FXtdwbZs3BaI1VTjOygqsTRpMcVfVvUnCXmXHqdRj9Ngwew3M6cIM4nr17rksInq9lHxnR6sbDm4RJwpUaqFVviYvTtGHSi2AqwqLy4u2bxx6pb/eolvCgwLTiHS07XmgJi/2qgoqPZEk9o1tjcy8Ek4JtKq2SvaXF6FStbZrMJvpFC9ibRXlDSoSYmsorVRgGtG79bDkorzGRa33KtlCsolO2vwnTlBHKZYVsv4LO576GkobIhHzcnjr71XUa4+y/lMFK+6O6+RqiZKyCtCPJKGjO3lrKCzI4w2LD702HHuVC33qLF68Oxb/9GQbm8V+3Oa9SK1XpLwWMrIfYUl/BeCl/MQHrP3YilKjot4F2h61JAy8D22oGqg6yray3syZbaT0zGnEhjZ1L7dRLsSxQNciLPUSaHv3vmKEFS9YsQhxzNHRRap4660cTsUPR2k9iRUFnnoF986cz5y+EmWffcD6YzaUGg0eVxX1sRm8OH04egAkTh19jxc+ryFKraDWq0HvsxOTvogVJgXiiT389qt+vPrg3f7znZ+xaud5Mn83k3tVgOs0294v4JCoIlGQOFurIPNXc1hwa6ChnGY25h6iJExDolKi0tFA8tSA3iuOsvbDM9SKLspvUcH+tykknIQR03lyaAixh+c0G9/8gJJwDYk9obK6FgZN5uX7BqECxBPvMf8YjNY2UN7go7KqhphRc3k13T8KiRUlrM87ilXoTdRlFxHqSOz64V0YHK9X7yJHDu0m1y5R6fCh1H7M2t1Az4EsmpFOUsBReb7dz8JPIDPuIp9c8KFsqqc2diI7sk2oqr5k/d++wup24eyTwfaZw6+wVfG7ItYf+AprDw1aTw0Wn5EnZ2cxWgWUH+L3f4Mlj97HyMC9nF/9ld9/1pt/fzCDAWHBbCYIooWdeR9wwK1Cf4uIM1IDXgO/CwxA5Z/m8NQXIjEaFVEeF2a3hgdnzSY7luA2EaTNf+oEdZQRWiOTk7z86SOYOXE4MWcKyU38JUuG9katDRY+haOPFhC/zuMJz2DGGI2Mvt1IQstAIlKY9zY7w9J58ZGh6BUgfrOHhz45walRE0iiitIKCeIG8ViWCX1YFTu35VBaLUJ/DeK5Av7tsEjWrEfI1ikQv9nDbz8QuTexd2dCtUHkwOEvYegsMtQNlIZ520SUXk5abUTETcQUBiBRdryAtyo13Dsusc0o7eVkuQ1azusCbhunaqGyt4Z/f3ARCUpAFBF7QPln7/FvX2lY8uAiRqoBVwl/2H6CwtrhzIwB+xfvseobDU/OnclItZdTH27nD8d781iifwApvWBHG5/e0kHEchuWXv0wqQDJwpZ3CrAPm872EbEo8VKa/xprv7aw4NZBfr18eBDzbdPZfk+cv64eEbF5qSU+nefmpnFk72Z2an7Npnu6GEZ/ryf7gUUsUfvL85TlMX//aU5OGMRIhZdSqx3CB5ExaSYjVX7ZVtvteIhF6Tbz0nslRNwzl+1DNH69vFFIQmpi6IPjdetdRcakuWQ4PmXxX2xkPziNjHaCIrPVhnhJQ4RpOtsnqQAvTrfP7xBiR7J67p0U5m4lN/ZKmT0VRTz1vpURWQtYnShAUxU7d+SQd0Zi9DABVCqipCpEL6D0t+POT2oYc9+vGKAIbjOdU0Pu3jyOxGSxdaYRVVMVO3f8kXf1E1oGoKhB97H17uYgwUVuznYKLTVkx/YObhOdtnmoDffjEVREZUwiMScPwdCJzOnfwJaPVWRlj2RkSFapIHn8bFb3LuHAGSt7PvySnYcTeew3M8mKAc93R9l5XkPmr/TUO6qoB2hsI9JFK2Ypjln3mNCHAU1eGn3h9NWqABf5R8woh80mW+e/RqVSoYowkBziFMxzroi3qoz8bkosYEUZ5qO+wetXS1MVJyokxMuHePS1Q3guS4hCHFmTpjGnbxsZm6o4UeHDNCyxi1Mc8FywcrbHQJZmDvd3Vn8lUElmXvrUzm13pxMjVlEmAl4fQrMj9lrJPWYn+Z5f+zsECrRqAWVMIskqv0ylFWAa32ysfqevjU8jASgvKeRA+CD+bzyUV/rXW53fK6CpuU4uymslPEo7ZocGk06FUqm6cuRvqvBPy4Z2ZTE4gKBCaT9DntmF6GlEuliDqDbSVxGQvRJGjBnHyMANPY1etFr/A7SyL47ymTbN7yQBVFHEKFTEhDw4dkPvAcQL5ynvbcTU7szRP7gPGHkfc/o3a0yBVt3WZux+3d3VVmYXB4o+o/7WCYxRuiirBKi/ojugjiIGC7UioPRy6uNCSuIy2HqrAiQzO0OQvUOdnCsht7ofi7KN/nYOUxHTU0GCodWZawUfJSdKKBcbaPRJlLpBr2mz/taZTXTW5j8DOhGzhsJDJZRKImWnXRB/go1/tVIoqRhdXETJmPRAJw12Bw0jR0xg5AjAbWbtn/I4cNpF1t0azN+eximoKC0+RGmbSwbfPpSEMBCt5ymPGcTI5rZwWTl5WU9mnALcp/msSsPoia0jl72qBjHU9cmmKt49bMapGsjZY0WcbXJx1gNCo+RXS2B9MmtSFvdqQSloSNC00zNcNk66NSQndn0CYbbaUN56HyOuXnK1nKbUF0lCWRHbytocSLid5F7AhdN84unHogHNF3qxVrlQxfUjAfwDzGUDWXGKlrqeqADTuFighiNnXKio4d2PDrUpXMO4OwLxZ1gc2ePvpvbYl6z9UwFiRCzZk2exoH8bQS9WYL6sJzuui5buqeDtd98jHyMZ/XoTExlOZU0tql+kXyF7trF5PbSKE5VguicWqOKTsy5Mwwe1RmIOO+W3GBjXhfXJ69Y7AP6IVx8/rv3prNvGqboYMgZ34rgd5/1rqm1XrUQLRyrCUfY9ybaPTrb+3nMgo+MDggoatBESThFoPMrmbzXMedA/dQ1N9o4xn7bgSRzXqhOvnTKngGmMvx5Ocx5PfVRDwkAjJk0kEZ4qrJdjmdW2/TuyiWBt/jOgYytvUqDV6Yn6ugjPraPIjrtI3hGBe395JwMiNFyHXwCVipgwATQqQMJ+USIheSbPpbVnVF6OWDuZPn5XgzWsN1ktg1cNn3xbRUL/0NYnnV8XsedyHBm3R9Ho9fl/DPMiNXgD9zpPeY84FgyMZUAno3J31idLKyRuG2W4JhK1X7xIY9xInpkxvN31G6fDjqhObI2GPBYKvwPT+LiATOcpj+lHco/A8crTfHJZz6x4BXhrsNapGDNtJo/FdyyddkA6Tw5IB08Vb7+dw75vbSzob2xT7/OUx3QUVXVM+ecH2ROWxtYZgbU5j4WNn4EpweAv1xoot1l2l5WTYmBw9NZQXi+Q0PLQxcsp82ns+pFdWp+8Xr0D0FSFuVKBaUj7kbTngpWzUf1Y0EkQ4bRasfe5akCvqaEyvB+/m/ErRnfYK6PQ92jA7q4h78RXRIyYyb3qLsjeISLltRJ9E2JbH1qdO0mJ18CivoB0mjc+rGDkr+ezIN4vnP2z0/wp2oCpTT07solgbf5zoGMXEKYh+bZIKsV+zBp/N8nU4Ll9HAvuGsq9QxP9U+HOaKqi8OhXnGrebtMkUlpUxCHFYLIGKIBwtKpwKq0W7M07CbwiZd9VIUIgjIfkxKunj4n+UUihQNl0kUq3/1jZpwW8VSVgCmUK5rGw84iNwWOyWDIugwXjMlgwLp0xGgVioxS4l52Ivv06Xnf0SIiXRUrP2SBWT19J8q8dhYrbxqm6WO6Mv9bTxKiioNpKibv5Fy92q5Vyj/8vZZgCLruo9ACIlBz6mEKpN8mJfiOudLXZ43S5gp2HvsTeq5/f+YRFEdNDxHyuCk/LOVWUVrgCf0iUWasQm6fhjfVUSgLJ/a406vJqFygVXVxukCiz1RLVK7DO5anhwAcFHBBjSY4XaI7WtPGG9gdHwlHeImG/6K+faP2YzcddV0wPg9INvQPQWEO5qEAZ0X7xZqsNpSGxk8HVS+mFGhISDFfKrI4iymen9ILU8pNYa+WUs805YSpievooO/4BbzUMZVGbp9Ehyd4hCpQKqK1z+W3CfZotH5kR9Yl+Z15TgblRgz6wZ9r5XREvHKlAdVU927eJYG3+86DTeVPZsaPYb88iI8LCxlIFWdO7sA7XeBHzyUOs//gDlCoVEY0SSt1QFmVnkKz033rk6HEk7y7g0c0l6HtCbYOChKH38fytBML4q6aPLVMwIO5OsvqeZNvOzeQJCvrGqlCGuD5ZdqyIQmE4G4a0HXv9xlLf0NCy7njbiA7q21TFzj/9kbdrm38oYP4rBSSPX8Rzd4U2nvsjD0O7kYcqKZ0Hv93Nxjc2sTM6Es/lBpT6NFZMS/QfHzic0Z/+lefeqECvFOirpnV9EugbF4fqWBG/33yCGG0iprBw9M0DTFgc2feYKPngj/z2Gw0xYV5qvSrGjZ9OMoDXzoEP9nDgsoA2SoHnMtw2LIsnrwoTEoxGEr4tZP5/FRKhHsoz8ye0PPXtGAGTMY76Q3uYf16FEg0j41QoewUik+bBcUj7a6sojExJ1vDUwW389lMFUTF6lGGq0AbHG6B3fxXiGNEPdu55mQNh4STfs4DVw5rb3B+tmka1EylZC3l07wlqgUZJgvNv8S/HFfRN/jWb0uNAO5wFd5Wxds9mPtFoUHrq8Qj9mJOdSFIb/cWooPyMSNaMtCucVEiyd4jAmGEm3sr7K7+9oCJK6E3iLW3WJ3VGRkZ/ybYdr5GnBGXfRPSRCmKuigjbt4kgbf4z4ZabnT3II7qwX/aiVGnQ92jPL3txOl3UE4leo7pij19wvDhrXXhUvdH/fAankPG4a7A3KoiJ1nDtFkcJe209yl4azha8xsbwLP6c2dopPGINdk8Ueq3QvrP3Stjr6iEiCv01b5d4EV0uahsVxPRq597drZdYg12KRB+j6vIDMAjoBQ0J6pvzJKBTvd9sJBflbi9Rag1aoes375bskotyUdF+uzRJ2C/WQ4+O+nEQubrZ5j82N91RytxkmirYtn03lWP8+ydlZGRuPHJSjJ87Uj1oBjMuUXaSMjI3CzmilJGRkQmCHFHKyMjIBEF2lDIyMjJBkB2lzD8l3/7tCKN3VNEQ/NQflsLlpE3ZhNl3c4q37ZxNysO5OG5O8T8832xidmYGGekp3DH9NSztneMq56HlJfx3bXsHQ0N2lDJdR9rP0lEzeO3cjy1IezjYNSeFRbvdHZ/iKuc/DsLcKbF0OXPo0VVkZG6g9LocWQiyDczmyUfuIT78esoPji7tIVbMGsbPaAtj5wxZTE5+IfnLUulwh6AmgaUjL/Eff73+gVF2lDL/dHxX9B0fJSYwq8uvnf4AGFLJnpJ80xyZMHAC2eONHTuVf1CS0w30KrGw1xX83PYI6ihtO2aT8vBr7H9lETOmZJI5PpPZr5v9B91mdq2eTWZ6CimjMpjxhzcpbTNYukvfZPnMDNJGpZGWnsmMP+S2hsbuXBalTGXp00uZPXsGU6dMZcHGw22mBBKWd1cxOzONlJQUMu5fymtHW4+aN04l5eENvLZsAbPvzyRj0iJeK219/QufjYIXFjA1PY2UtDQypixgU1Fb4TqXvTOanLdwyR7Wzr9bWhLw3Ey9Yj/MhoczSRuVQsb05WxYNpWUx3NxQ2u0d6b5ZAe75qewIKdVd7bCTSydnkFKSgppkxawId/WpvBWvaelpZE2fiqLdgRSlvhK2TQ7k8yp6ym6ZGHH7zLJzMxk6pJcWkpwFLPp8alkpKWQlpZG5uy17O9CGnBH4SYWTErz1/upTayansKifa3t2pnsh5+dSmbmdDZ9I1G8cTqZmZlkTllFwRXteon8L+tJuiOWa/JOdyb7uTdZNCmTzKf246jcw5JJ/rovaG4zbBQ8v4gZmWmkjEohLXM2y3eW0nzroLLZclk6JZPMjBTu6GDqLZ3JZe3DU8kYlUJKeiYzluViCTGydexeytTMTDLSU9qdenfaV7vbFzuXjF1zUljwdmt5llemkvKH/bSU4DvMqvRMVr29i1VzpjJ1UiYZk1ZR4Gy3wPbRxXKfxsl73zQGP7cdQtp8J32xh4MTtvDnfUYE3NisAA72r3yMrZ55bHw3h2S1jf1Pz2fJc/Hse34CamzseeFlLOl/pvBtE4LkwPxFNdFtC/ZaMCtXsDsnFfWlUjbMfpQ1xn28NEUHpS+z9HkzY185QM4oJZbdy5m/bA2Gd19iciASkL62oH57GzmJYHl1BjM25pK9/QF0gFS0iafzdazcfZTJenBbS7H4mt8JCCZ7Z9yC7d97cOLDdg4JPu78RGqTb/Nm6NVB7rPLydOuZHfRZHQVuSx/aD/cEeI9v9nEY08VMGz1do5kGvF8sYlHlyzlNeM7PDIQcO5nw/PHGbzxADlpanBaKD4XqFB4Motz8lks7Wdp+psMfuMdHul/Zfmlf1zFLt88dhc+gEGQcHxznOpQX8Vw5LLq6VzU/7qbI/frcOxezux9MDhE2cc+vZexONg1J5OiqbvZPL2dlmyso/TvEST94tpG6lT2/vPY/P48/9R7dTQb33+C5CumxxIYJrDy9XUkJ6pxf/MaS3+3hE0D81mRJgSXzZDNS/uy/WuUL7ajG2cBqx5ej2PWS+x+JRWdwkHp+8dDVCzopr/E3un+NcqpRVcfDdJXu9kXbwwODu61sW7jXp7RgWS34e7ZhcvDo7g9Dt46Xw+jQ84M0EJIU28hbjILpzeH62oMiWqwHyT342iyl8wjWQcIBibPnUz0xwcpbjOY1NktWOwSCDpMaaYrFacwMHFqqt8x9UxmckYfigqKkQBz4WFsKQ+wcJQaEDDe/xBZPYs4eLQ1PBBSJpAVeGvPmGxCbbNQ1jzChgsIlxzYLBbcPlAnJpPcnCYsRNnb53tiH/aQ8nI7/17yEtuFOc116dVdTMGxaLJmT8YggNA/mwfGh26Ox9/JpXr0Qp7M9N9XfddD/OYuCwcLm+MHAaij2mLB5ga0RlLvCj3LixIBT60Ns9WBhIBuSCqmEO3SfbSAYnUWD001ICBguP8hJrbJZRZc9hBobORiYziadjpZd2QHIxPmZJOc6HeA6iHZTL7DzckzN+axiePDXRSop/HEw6noBCBcR/KUCRhv4FpmR321233xBpE6eyFjA0IJeoNfDyETRqQQzsVLNzGiJD7+2sVlh40LXhtl/5rJ/pYfJaTwYUiXAMHAA2vWUbdlF8t/swqbz0Dq9Cd45vGxrc4yPJroNiFmtFYNzjrcQLWjGqVO1xrdhevQ6eBLZx00/ypEtzkuQJvsPUL6YjY+vpWtrzzGjjN1RCdNZOHTK8geKIQge+fqiNA3EdVe2Kn4ng6SyrTP9ej1UjUunw5dmw7cp08fQvvKlRuHw4378/VMn7Sp9edLaqKNgRFCO5kVL9rY+pc1zH/FQp1uGNMef4YnMkNzlqZH1rHCt5Ud/zqF5XYBY8Y8Vj49j+QQFt3qHC7Q6dA16yRcTR8dgWl9CLKHQkQEvSJ8uC7dWNnBTWnOeja9W0yZ0y+PdFEiflToonVGnaMa+k6mz015yNN5X+1uX7wx6Ijv252V2yYaJB+9dNenwOt/701nQCcMI2vnNh7oIKAR+k9g8QsTWAw4vtjEkkfX8mb6WJ5IDpzgq6a6GghM3xyVDtBGIwB9evXBc9aBm0BT+Bw4HNBHG93OndoVkOTZK9g8ewVcsrF/9XxW/ed+Jm7JRh2C7B1zC7Y1kTdk6t2+2EFkU/RBE+7A4QQCI3h1dXVbIQCJhpbRXEJqybqmRqdTo5u0jvynUzsUwZD+CM+kPwK4MecsZ/6aTYzKWMfYUOqlNpG97CWyl4FkP8yGR/8PL+yeSM5DbRytFEbdN7fQqPie6DubWgaXaJ0GHA7qfGAIB3xuqi92TfbWWndARDTJv2jkr3+XYMhVFQpF9g5Kl4rWs+R1Bwtf3822gWrAwa6HM8lt79yg0l9LtK4PVFqo9sF19vVO6ayvdr8vBsH/9ZIW3Jc60FBn9Q4Psr7jq+fbCkhKuT6Zr/+pt34i00aV8eYLuZgDi6puWykF+c0L2A6K8w9jCYyu6p6REC6gvOIDcg4O5uRikUCy7WdHfh2pGf6puGnCWAyf72LrMTf+xeQd5NWlMjYttFFFOnWYglIbkg8QBAQBlD2FEGXvjO/p/bCHlJfa+beha1PvdgkmmzqVCSl1HMzZj00C6Vwuuz5sM71TGDAaqiktdQT0sJ+DZ1sNb9j9WUR/uIlNR23+Dis5sBTt57A1cIKzlIIPzTgkACXRghJBGc0ViWwUOqJ7VnPy9LXashXtp9jq/11QahDCIbLnVUopD+fL+QKfPhxBTZvpmTptAqnOPN5834aEhG3vDg5Wth4PKru/FKK1cMF8sgOH1JPM4VGc+rqKqx+AhiS7Vke008LJyqsudtchqY0MDky9pW9yybvmgUYw2TpGl5FNunsPG14v9reNz435/cMhP8zpnM77anf7YufoMCaqKSs97rdvdzF5RbZgF12D0M+IwVZMsbWDExxVFLq0/HpIl+Z8LXQjk4KO7Oe3IL24gaVT1+KQlKh1RobNWIZ/vJewfbyVVWv+Dw4JlOokxj6+joeS2hQhmEhNPMzyzLVYJB3Dpq9j3f2BMCr597y0rI6nn76XFIcHdWIq2S88Q3aoEWDdKXY9v4qnbW484WoMw7J4duXkwPQgmOyd03OIl55DQlZUFwkmm47s1c9ieWo909NXISROICvNSIuHDzfxmyXTKH52OlNzBxA/KJkBtwktT6WF5CfYsnoT61+cTYbVrxvjsInMe2qy/wRfNcdzNrFmpQ23T4k6MZXfrFlIatvRPDyVeY+nsvz5e0l7XiD6joVsf+UBDEDduYNsWLMGi9ODUtAxePwKVvw6xEbTZfPM8xaWPz+d0c8JGDOyGTuwiLpQZfefxYT5v2f/yuVkZIAgpPLk7nVMbtOnb02/lXv+p5y3HAksbCNaSLInTWPxlGLWzEpja7iAYdYWch41IYxfzJNHn2bZ/TPQ9Y0mUp/K4CSBKx+3dCxb8QtTWZVfh+Rx466Dx+7NBcUA5r2yjXkDAd1k1r0qseHFtUzZbsMj6DCmLWRdZmiq7ZwgfbW7fTEIqfOfZOy/rmHK/TsYYBhMsskIXR0AhvyGJ6YXs2p6ChtQM/mFQp7JaD1cWmSjcqSJqdf5GfUfLymGO5dF4/cwancO80LJLSrTIZZXZzDj6wcofCX7H2cjMYDPzKZfz8fxh6NXGP2N4Nu/HeGh6tv4nznXsen8Z4xtx2ymHptG4ZZ/MFvpDFc5Dz1Xyf9aPpJ/uY5v4UG3IkoZmRuP5dhhGDgWoxYcR3IpuJjKwuTg13WV2//XaI7c+GJ/2vhsFH9uQZc44J/HSQJoEtixrnufMZMdpcxPCvexrSz7w3LqAEE3nOznnmFy17e9/fPgs1Dweh4nO3jKHNknlQfutbF80lqKPaBOymbl0zdh5GkXCfO7f+SgrYMXBxXxTJyTjakr+yF/JOR8lDIyMjJBkN/1lpGRkQmC7ChlZGRkgtA1R3mTc+XJ/JSQ2L8khRmvduH1wBvJpUoWPXWErVe/cXQDcgvKyHSVmx5RmjdOJW1Zwc2+jcwNR2DY9BXMS+/zo9y99P1v+XTQbczVX3XgBuQWlJHpKvLUW6ZDDOnZTB7yI2wkaahka1ETv8pof49jd3MLysh0lc63B10ys2v1KrYWWpB0w5iWfuXrXJbdy1mbU8xJmxuPoGPY+IWsWJaNsSc49i1n/ivHqauz4fatITNzPYRHM3H1OzwxCvz5+9aytfBL/5sQ2iTGzl7GyjkhJC313YLkuKWdzfvfE67+HiGk7QZuch/PYFf/FUy27yH3awd1kkDW83t5YhRI5/bz8nNb2VNqwyMYSJ15ZUIPd+mbrHnuTQ6fk0CIJn7UQta9mI0R/EsUzzoYV1wWLAAAIABJREFUmwIXbHW465SkPvYCKyYF3hn22Sh4cRWb9h3HJikxpExj8conmGAAAqm48gbOZUBFMebzNup0WazY+ARjm7fJOIrZtHotuZ/bkFASbcxi8X+uYHIg+gome+dIFKyewfqjEnVOG/Hz9/LOo8Y2um+W/SQ2L6h1g8le9hKL09Utsr327Fr+ctSGW9CRdO9Cnl2WjVEIsW5Aw+m/80F4b3Z09CKCLpb7NGd475tG/mX09b2SJiPTFTpxlBKlryxlw/nJbP/wHZKlYjY8vAA3re8gSoKJ7NVPsvkOHYKzmA2PLmLpdhN7Hzehm7KOvVP8U+/5tsXkvzDhmvI7y9/XKaciODJbwaV21kp7/k5i3JLQF1Et+wrwbHyVvclquGTDdglwH2bto2sou3cdu18Zi+HiYdY+upxVffexebqOoPn7AOxlkLGbnEk6pDOvMX/+Mt68w/8WkmXnMpYXDmDd7m1M0NkoWD2f5U/p2LtzHoaAbk6dimTl9hxMgo1dD0/n5Zxsxj7ud1id5k0MKnswBCas3ssEJPYvGc2bVx0Nluczd/VS/iI8yfaibIzuYjb870UsfdXE3iWm5hI6rRvAeWs9Lr2BpI6SIHQzt6CMTFfpeOrtO8XBQgepsx7yp5nSpTJv1pXfpTBNmcfkZB1CuP949gQjtlOWEF/470b+vkQvd77Ufk7IO6eGmmPcjzpjLnOb82j1NGDQgbsol/3eLBYvHYtBAPRjmXe/keIPD1+RNKPTXJvaVCYH8kQKAyeT1f8UB4scgI3Dh05hnLGQCXog3MCE+dMwfnOQgy25AASSJkzGJAAYGJbcB8u51ocqneVNDFX266azPJ/NuTLnBCJIXSoLZ6RiKzjY5gFg53UDaHB7ISLi2gzkLXQvt6CMTFfpJKJ0UedWotO1ToR1Oh1tkxk5il5j/Y48jp+v8zvHSw4YJuEhaEpHupW/r+f39DA2tXuPMG3X9s/3MfS5ppw6RzXSxWJWTTnc+qNPQp1Yhz8DXwi5Nnv2QdOiXX/eTbejGnxQ54Q+vdrEnzodfXBTdxECIeUVWWv8/5OQAv/vLG9icNm7R6d5PuuuzZWp1qlRuh1UA80xZWd1A4hUK8DaiAs6eA+7e7kFZWS6SieOsg/Rag8X3K0m7K5z42k+7NzPqmV7UD+9nb2TDAgEkjOUXlVMB7bclfx913AqguIbNPVuj2hdH9T972HL7kcwdnBO0FybdReoloCeAHVUV4N6VDSEQ3Q0VF9s47YcDqpRM6pXiAJ2kjcxFNkBGs+FU+eECIOP6KufLHdKJ3k+o6/Nlel2uPGoDXTl2Xm/xCg0/1PPKR/o27OfbuYWlJHpKh1PvcNNTMwwcDx/v/9DRD4befuKW92Ypw7Jp2OAye8kcRazK998jZvro+2Dx2K5Nm9eSPn7OiDRy5AX288JOaSLU+/2UKdnM9H9FzbsLMXhA3wSjm8K2H+seVkghFyb7iJ25ZhxA47CN8k9l8TEdANgYOyEJCy5WymwAz4HBdv3YEmayNgQv7jQWd7E4LL7qX5F4NO5AqX7urbxodM8n+pUJoyqI2+nP8cozmK2vlOMIeMeTF0I/iIH/YL7fDUU3qTcgjIyXaXTp97Jj69j4epVzJ+yC3V0NAMMSaibk2nrs3ni8WJW/e+pHNT1ITraQPIdJoSrlhh1k+Yy98O1zM74C4Iymolr9rIijRDz93WAuonY8d13iB2XP5YVrz7Jyy88zfRXbLhRouufyuTHhgVOCCHXpiEdk20NU9JO4e6ZxOSnX2BeIJO7cc4LrKtexfrpKSyXlOiSp7Hu+XmdRoBt6TRvYlDZu0mwPJ+r13Fh9Qbmp6/FHa4jKXMFLz3exSQMkX1ZmP4tDxVWsbz/tVuEuptbUEamq8hJMW4GhctJe6EPr+67+kt9PycC26eS3+Gdh0N14TeQS5UsetZC8tLRLGy7NHADcgvKyHQVOc2aTPs4iyk2KzHeH/oXGG8oPfuy+fm+1/5+A3ILysh0FdlRylxJ4Soylu3H7VNiuPdJtmR09yNAMjI/f+Spt4yMjEwQ5He9ZWRkZIIgO0oZGRmZIMiOUkZGRiYIsqOUkZGRCYLsKGVkZGSCIDtKGRkZmSDIjlJGRkYmCLKjlJGRkQmC7ChlZGRkgiA7ShkZGZkgyI5SRkZGJgiyo5SRkZEJguwoZWRkZIIgO0oZGRmZIMiOUkZGRiYIsqOUkZGRCYLsKGVkZGSCIDtKGRkZmSDIjlJGRkYmCF37uJhUQ2kF3Na/N1RaKBcSSdKGWISnhpKvT/JZpYv6sChMScO591YNyusQ+gfHK+G8DFp1dz+05eXIBzs5EDuN1XeF+lFqL6JLArUK1c0Y1iQRZ5OAtseN/c6cWPEVeZaL/j/CI1BFxzHm9kRCNZeucT16vXE4T+zhKetgXswyoQr1om7rXeLUsYPs/KaCSgmSx81lye3yh+BuFl3qemXH8th2wYfKY+GN/SWcDQutkT1VX7L6zRy2WX3oY3XosZN3ooLG6xL5h0f8+j3m7z2BvbsFNVkpsTSg13WhM9d+xlNvfkDJTVGWlyP523jqWO0NL/fkF4d469sqKkWRyprz5Ba8zcJ3Srqvw/a4Hr3eMCRKz9pQ9ooN3UneAL07v8pjzVcKsibP5MUH5/LYQNlJ3kxCH84um3nr215kz47Ffvwg5sR0HgvFLi+fZmNuEZ4Rs9k0oncggrybOU1XniY6qzjraiCqdxwD1G3E8og4fQLaCInyyhrEnnqSYgJG4ZVwSqBVtTUSL6JbIkKlQtk8DDR5sVdVUOmJJLFvLNorwlgvoihBDxWqRhdldhdo/TJ4LouIXi8l39nR6oaDW8SJApVaCD0SbpKwV9lxKvUYPTbMXgNz2nyu2uOuodwpUq/QcFtfTWvU6JFwSg3Uny2jvFcifRtEnB5Q9lChalGPF2dtLfa6Bohuo5cQEEURj9dGSQUk9BdwukUIE9Cq2pqEF2dVBdaGSPr2jUUfaqWbqjhR4cM04j6W3OV3H/ZjOcz/xIrZOxK9IojsTYEIXhWOs7ICa5MGU9xVs4/r1WtL1UTKK2uobYqkb59Y9D1C1ZxfdrG2ivIGFQmxNZRWKjCN6N3msIS9tobKSxDTJ5aENjoNRe+dye65LCJ6RA59bSVm0ExMPRQQFt5q653YczDZPJdFGsOh1iGi1MWibazC4hIwXqV7sbaCs3VeYvrEXXH9PzJBaymWFbL+Czue+hpKGyIR83J46+9V1GuPsv5TBSvujuvkai+njhRyRDWqjZMM0OIQKsjNy+OtKoEElUS5w8vIe+fy5BAV/inVNjaL/bjNe5Far0h5LWRkP8KS/gooP8Tv/wZLHr2PkYHynF/9ld9/1pt/fzCDAWEgflfE+gNfYe2hQeupweIz8uTsLEY3D//ur1j7xgn0d/XCbLaDwovdY2T1I+k4D+0m1y5R6fCh1H7M2t1Az4EsmpFOUgixuFhRwvq8o1iF3kRddhGhjsSuH45JCSByIPePvFEVSYJGoNFVRXmP4Tz/QAZJSig/kcf6r1zU1tWAILE59wyEabh38jSydIDnNBvf/ICScA2JPaGyuhYGTebl+wYFj2w8Ft7KLaL0sosyEfSf7eHfPgsnIjGd58cbUQKe2q/Y+NdDlDb1Rk8Nlst6FvxmJlkxweuNy0qpqGFEfKskHklCGW0gISy47OKJ95h/DEZrGyhv8FFZVUPMqLm8mh7bbb0COMsKWJN/GlGjQeUVKXf1ZtHCaYT0CXPRws68DzjgVqG/RcQZqQGvgd81O2lrIY/uPQlqDTEKibNVDSSPn82KOzUh6D2Y7DUc+FseB5z+fqC69AH/djacCOM4nr8n0d+/OrTn+0iu6EQ2r4UtO/Iwa/VQY6VWY2SwwsXZygbGTFvEY4mA6zTb3i/gkKgiUZA4W6sg81dzWHDrP76zDFrDCK2RyUle/vQRzJw4nJgzheQm/pIlQ3uj1sZ2frHXSr5ZxPTLoSS0e4LIkQ/eI5c0Xv7dcPQKL6X5r7H6xGmcQ4ajbaqitEKCuEE8lmVCH1bFzm05lFaL0F8DKhVRUhWiF1ACkoWdn9Qw5r5fMUABnooinnrfyoisBaxOFKCpip07csg7IzF6mL9XeC5YMTeJKIWJvPhonL+jukUiFCqUk+aS4fiUxX+xkf1giB2pGbeZl94rIeKeuWwfogFXCX94o5CE1ES0AdUnZ8zlv2MCzkT6itWvHuWTqgyS4iFhxDQ23WVlyxt5eCbO8Q8MbfleT/YDi1gSiBQ8ZXnM33+akxMGMTJYqyqNLHjQiPP428z/xsiLs0cGZArgsbIt9xCVQ2axPS0WZbPeTlaR9csgbQ6I5TbKhTgW6AJ/X/iULaUuTHcPZ0BYMNm9lFrtED6IjEkzGakK2ITdjodYlN3UKx4Lb+SfJjFzAUsGBGxAFCGktq0hd28eR2Ky2DrTiKqpip07/si7+gkBJw0ezVD+/ZGMlui77KPXeOJbK+KdQ1EF03sw2elNVvZcsqwFzM/zsuSh+0i+asDu2J6DyOawYsbInOwsYj5+jVWuQTz56zjy/vQ2tU2AZGHLOwXYh01n+4hYlPjbZe3XFhbcOigU5f2sCeoolTGJxJw8BEMnMqd/A1s+VpGVPZKR2mBXAhUWSqQYsvt1EONUfcHOcxpmzRsemI4piFFFQq3Xf/yiFbMUx6x7TOjDgCYvjb5w+moD5amjiMFCrQgovZz6uJCSuAy23qoAXBwo+oz6WycwRumirBKgnsaramy22ohITGPJ3XEtkZhK3SqveOE85b2NmLq4BFT2xVE+06b5OzOAKooYhYqYxOYpmkBUk43CL6qwX2oEXxXWJhUj2i5nXKzAfFlPdlw7zSSoUNrPkGd2IXoakS7WIKqN9A15cPdittrRx4/j6qZ0nijiwC3D2ZAa649SwlTERAHfh1buSasNjwTr37CCR0T0qUgeNY0nmyvXmexNVZRWwogx4xgZaAZPoxet1j8j6bZexSrKL3uJqbJRFpvIALUCpSq01UXPuRJyq/uxKNvot5UwFTE9FSQYElt0qFRF4iz7kk+cEo3eRiovNKDSadpE+R3rPSSbAMqtVur7pmFqZ1bTqT13IpvdaqM+cSQjBJFCRwODBw9C5bVw1t2b5D5QXlLIgfBB/N94KK+sAsD5vQKarpXhH5FOulUNhYdKKJVEyk67IP4EG/9qpVBSMbq4iJIx6YxUd16401GDKPQmoYO1zPLTZ7DHDmVMy3GJsqp6VDo9WkC0nqc8ZhAjm4+7rJy8rCez2XEIGrQREk4RaDzK5m81zHkwMPUULRypCEfZ9yTbPjrZetOeAxkd3+z1/BHr4BGD2zFaAH90o48fh77zql5FFZ+cdWEaPqi1XIed8lsMjOvrr2fpobdYb4lizO0G9JGRNFbU4IwehKlNnxWt5ynXteOkPRW8/e575GMko19vYiLDqaypRfWL9A4i93ZoqvKvrQ29ei4t8klZFfpBE/3RH4C3hrKacBKGhTDvDqxPJo2YxqLbI1EqVMT0avPEPpjsF62YLxvINgqt5VWC6Z5YbohetcNZlO5g5zcf8MTHIhExJhZNzyIjhPV282kLnsRxjGhuD6+dMqeAaUzASTu+ZO17JdT2HcSoWBUqZT32Gh+mYW2sp0O9h2YTIFJqc3HbgMR21sk7sedOZZMwX6jhttv6ofSep7S6NyMSBai0UaaKY46qhiNnXKio4d2PDrUpVMO4O7rWM36udOwomxRodXqivi7Cc+sosuMukndE4N5f3smACA2JoQzCTV4IU3Tw4MNLucOFKkbf2qjiaQovKBgzNY5mJ6WNT29xUmK5DUuvfm0MJwp9jwbs7hryTnxFxIiZ3NvsvGtqqAzvx+9m/IrRHdXSbeNUXazfKNqVvwpzpQLTkFAW5tpWrYbyeoEEXbOgXk6ZT2PXj/RP0axFbDT3ZtGCLEYLABKFuUdRGRJbnRNeTl6wo49Lv8ZJl39+kD1haWydMdyvO4+FjZ+BKcEQuowXre1Hq001lDsh4c7WOnvOn6CkqR+LQlmLCqxPjjElMkB37eFgsvsHRyOmHq3lnRQDg+MN0atA0qgsnhsFntovee7PhXxywUuGJljdRMprJfomxLbYs+fcSUq8Bhb19R8/8GER9iGz2ZQWcJyVheR9EttmYKZjvYckO+CxUWrXkDSunQ7YoT0Hkc1robRSw53jBKi0Yu5hIFsN5V/ZIG4cCd4arHUqxkybyWPxQdT0D0rHjyTCNCTfFkml2I9Z4+8mmRo8t49jwV1DuXdoon8qHAStTo/qspXCMtH/g1fklNnaskUkQhGOeLEGJ4C3hgMHizgZl86sWxXQVEFpJSQnNq+J+ad02vjE1qgpTEVMTx9lxz/grYahLGr75FEdRZTPTukFqeUnsdbKKWfrKZ4LVs5GGUjuKDJurKFcVKCMCF7XKwlHeYuE/aK/3qL1YzYfd7VM0eyVNpw9NCREAEiUHcvjjXO+qxydSLnThzLyaqOXKLPVEtWrtz9y9tRw4IMCDoixJMd3YX2gxkFleHuDmAJlmBd7TWDrivs0Wwot6Ef8MtCBO0csP095jziS2h1bgsnePDgaOhgcu6lXTw2nKsQWaRobXNSGxZEcH8p6hQKlAmrrXHia9fKRGVGf6HfSTXbM1aDvFQhNXafZ8rcvKY82YGprXx3oPTSbACqtlCniSG5nEOrQnoPJ5rBiVhoYrIHychseQyIDwvyR64DEOAiLIqaHiPlclb/uAJerKK1whaC3fww6tZCyY0ex355FRoSFjaUKsqa3F+53wq1pLLnTxvq9m/mkh0CjBPo7snjR5L918l3DMe4uYP7mElTeBqIS03hmylB/pHGxAvNlA1nNI+8VU7BmBGJUUH5GJGtG2pUjr3Y4C+4qY+2ezXyi0aD01OMR+jEnO5GkwClmqw2lYeiV17VFiGNEP9i552UOhIWTfM8CVg8LIZRWGJmSrOGpg9v47acKomL0KMNUmALraPrE20k4WsQfXjtDVBgk9u9NTNjVjk7F4NtiyT22k/uPgWrAZLZnDUKJgMkYR/2hPcw/r0KJhpFxKpS9ruqQwYgdwJgeB1m/+b8gPIZZv5nLTB0QFse9IxI5dCiH354U8DQouG14Fivv7h20SP9gZiei753trp8RTPbmwXHI1YNjmn9w7K5ea0+y+Z1PKY/QoFd6qfVqyMzMIiuk7ZcCY4aZeCvvr/z2gooooTeJt7RZnwzTM/JWBes/2Mz8TyKhRxzJUeFo1VdFhB3oPTSbCL4+2a49B5HNbrVR33ckxjCRwgsuTIMN4PFPwZPjFRAWR/Y9Jko++CO//UZDTJiXWq+KceOnkxyK6v4BuEUUxZCW6LvFZRfllyEqSnPVHkb8+7ou1oNKg/4Gvx0CgOSi3O0lSq1BK/yw2xg87hrsaEhQt3Nfj0h5nZeo6HZ0EkrZYg12KRJ9jOrmvN102UW5CDG9NNzorXLdlb1bem2ScLrqqScSvfY67i+5KBcVHcjuRXS6qA2LIkFzHRvAu2kTndNN2cDfV+vqISIKfbffUvt58cM4ShkZGZmfMXJSDBkZGZkgyI5SRkZGJgiyo5SRkZEJguwoZWRkZILQNUdZuJy0KZsw+26SND9ZbLw5M4VF+6Tgp16BxP4lKcx41XJTpPqH45tNzM7MICM9hTumv0aHWnPnsmjUbN603SxBLvHfLx3ioU87b+/SFzLJePrwzRLiGhpOnGD0c2f59p+u//343PSI0rxxKmnLCm72bX6iCAybvoJ56X1+bEF+HgxZTE5+IfnLUjvPUdFzGLOWPURqKPkGroOGE9/yH46+LB15o7fAONg1J4VFu93XdXXknbcxl+/4j+KuDtgy3UWeet9kDOnZTB7SlZ3gMkEJNzJ2+gRMPW9G4RJ7C6rpO6YfyeE3o/zu0JNZ6VHkf1jOdz+2KP9kdL6V+JKZXatXsbXQgqQbxrT0K0dYy+7lrM0p5qTNjUfQMWz8QlYsy8bYExz7ljP/lePU1dlw+9aQmbkewqOZuPodnhgFYKPg+bVsLfwSi9ODUpvE2NnLWDknmaBuxXcLkuMWrp2BfE+4+nuEoB3Ixpszp7I/fjJ9KsuovuSAxGmsXPNIy+tfjsINLH9hD8cdAsaMLIyezku8EomC1TNYf1Sizmkjfv5e3nnU2EZ+GwUvrmLTvpPYvKDWDSZ72UssTm++eTGvPbuWvxy14RZ0JN27kGeXZePPE+Fg15xM8gbOZUBFMebzNup0WazY+ARjQ4mwjq4iY2UdWZPA/IWFMhsMe/wlXpreLJ+E5d21PP3qQU45PKgT0/nNspU8ktb6zpxtx2ymHrmHZ5KP82Z+GXWXQDfrJXKMb5L24gWGCza+lIbxwHgP+3cXw+hn2P7iZAx0bjNB8Zl57eGl7LHV4ag08vv3c5jX9g0/536Wz1pPS8Dlc+OoS+KJlvPcFO9Yw4Y/H8ZyEdRJE1m8egXZbbODX6rivdMCGdOvFUg6t5+1K9dz8IyEMHAiWX2BltM6t+fDz05l7cd11DkkPOemk/k6oEzlyb88wwQ1SKVvsvzFXI6fseH2qTGkZLH4qSeYkHilDJohsQzbWUm+4zYWtvMao8zNoZOIUqL0laVsOJ/Oxg8/5+jOR+DYYdpOGiTBRPbq3RQe/ZzP330G09drWbrdDIBuyjr25uezZZYRdcZK8vPzyX+/2Un6y8cwgZWvH+DzY59z4D/vwbFlCZuOhjCtOBXBkcxIDk24+l8PjrweahggYbkQz++35/DOu7tZ2HMPS144jARgz2XVU3moH9vNkWP5rEuxcPhMiMUCIDBh9V7y8/eyMu3a6ZtUtImn83Us3H2Uz48eZd//W8w98c2vYjjIXb2Uvyjmsb3Ir9fhX69l6avmK2Q/dSqSB17K4Z33c5gn7OHlnC6sgzqOU33HSrbl7CX/hVTML26ioLlhS19m6fNmhj97gM8/P8L22fCXZWvY77iqDl/s4WCfJ/jzvnzyP9zNC5mBbAm+wczN2c3ivkXssmez+/1nMB3L5XDgBf/ObCYo4SYe2Z5P/u4nSW1vVqydzLr8QgoLCyks3MczGTp06dOYGEiqa9n5KEvfknjg/x3g888PsGWSg01LXqa0rcldcHGKntz+i6sLt/DH/28Vx5OeYd/Ro+xbFs+XRTZaL+3cnsc+vZf8/N0sHiKQumS3vz/s8ztJv96iGTZ3Hbs//JzPi3JYrDvI8tW7uGYZVhNFUs96Ss//k+Q3+4nQsaP0neJgoYPUWQ/5oyxdKvNmXbl2ZJoyj8nJOoRw//HsCUZspyyEtoJiZMKcbJIT/ZaiHpLN5DvcnDzjCHIdkOjlzpc8pLx87b87p4ZqQAJJ900OpDBTM2FSKhQVcNwH7iMFFGuzeGiSAQEB4/S5ZN3IbFLhAsIlBzaLBbcP1InJJPcPaNZdTMGxaLLmBCJIXSoLZ6RiKzjY5iGaQNKEZtkNDEvug+VcFxxl9FgmT/CHI0LyMEw+G5ZK/yFz4WFsKQ+wcJQaEDDe/xBZPYs4ePTKdTUhbjILpxsD9qDGEGhH9EYG9NRhMKiJNxpRR8cT36ua6kAyku7ZTOhYcpay6vhY1j2fjSEc8JnJe/cUg+esJDtJDagxzZrF2EsHOfhNmwsvNXIxQkGvq3uG9TAfnU0ie+5YdOGgTp7LQ1fMsLphz4BwVzbzxpvQ9QQEAxPuH4vOYqbsmmlTBJpIHxcl+YnOD0knU28XdW4lOl3rRFin013xfquj6DXW78jj+Pk6v6FfcsAwCQ+hJIx2U5qznk3vFlPm9HcT6aJE/KgglwH0/J4exqZ27xGmDf2NTI06uvWPmGgE9wUcXqi76AKdDl1zcBrehz46rh3drxMhfTEbH9/K1lceY8eZOqKTJrLw6cAUsK4al0+Hrs00Wq1To3Q7qAZMgd8ie7bW3v8/CYkQE3UrhdbzFAIg0RDod9WOapQ6XevyR7gOnQ6+dNZB20WR+Hji2wvem1OFhoMyHECJUgGeQPnds5nQcB9dy9LXYd7rK0htEbkah0Pi+PbZZOa0niv5YKzY5uKeEfRqvMzFJqBt/dwOHGjo0zLdFeij1yG0jB/dsGdAshawdeMOCr62UefFv2wgTWjnzEZcDeH0En5yC6j/0HTiKPsQrfZwwd3a/dx17tY0S879rFq2B/XT29k7yYAAWF6dwYzSq4rpoD2lovUsed3Bwtd3s22gGnCw6+FMckOJLU5FUDxbwaV2BtWev5MYtyS00bbaUU1z55eqq6lTR6NWQHQvDbjrqPMRiEbc1LX3oNIRRo31FtA20bt/V16Z15E8ewWbZ6+ASzb2r57Pqv/cz8Qt2aij+6AJd+BwAoH1KbfDjUdt4Id4dt6nVx88Zx24CWjG58DhgD7a6CBXhkDINtONjBC2XJavPMywp3OYN7DtgT7odGrSH93LS5mduOR4DUnU8O3fadE/AGodOsx+O+gJIOFy1iEFelBX7PnaX2zsemo5Rcn/xfbnxqITgGNryVhSd618rnpOXerBr/rJz2F/SDrWdriJiRkGjufvxwHgs/H/t3d3IW2dcRzHv+DIEccJFJLakeJG3IvRohbB1ELt2YwWaidTtMwVZpWNDWZLKWou1Exsy6ZzkHnRUXahG3TZ6rDQxo1iCmKh6xHGaplVGGSs1ItuAWkywhLm2EWyTa3sJPhW5v8DuUpyzhPOc3553niO/6r+70WOh4ktWsh1JCo8Czq+a7OPVALrDivxYJDgyuyKhImpdvKTXZXYzCj+6RQ7YDl/UPBhnBLvo6+ClLveMWavDBN4AESD+C5Oohxw4cwAdb8LZyjA2A+J8kSm/Iyv0pyMXTdxq0nhVv8TaT16NzY3SWB6ntgioCgoCpj+biGqTlylYfyfjRKMAQs6F0Z0bNpBHJvQiHC4yrF95+PCVITExM4Q/rCT8rJ1mLkaFY/bAAACzElEQVRPsc4oT9uxzevo99I8fnSawdODPGzw0lmxYqYjw8GRGjv6JwMEfkqecWEe/Wpged3M2skrz8eYmIku/35OOZV5d/F/nRziCAUYXTockVJ9VjHvgPuzd5f/5sUw4agJqz0/EZKLIQKXxwmt8n//cOYX5nY/xSGZyNlU/znrXdTax1s9Hlpe9qGazeTa8lB/Tb6ZXUdbq47nnRrGLVbMZhtFexwoK4ZkLIebaLp+jmPa5ygmM5Vnr9BZBkrFSdq/7aajtgHLLjOZ2U7y8xRup1Jq9U92Vqx1MFuhqNTM6BtluB+ArbSZvtPliRs4u47eM0HcPQ00mFRMu3LJTWPzcEPhOXzveeiejxDPULEVH+FMV3WybWuhrqeP+z0DtBw4RyTDQt6hTrytm7TzX9EJvB1hururKAnFUXOc1PX3UrceN2aKdYaC12ir1/HUlzCASnX/BL0aRK55qO+fJEaMSDTO969rDKNQ3HoRb60FfhxnbC5E6F4L2qfJYyl7OfnleRqzwd78EV4+YPBtDfdCHFOWjfyyRtoOLz25Qo3LyvuXfma6yrFkiZCd42e7CL57ipoxBdVsZ/dzln+GC1KrzwqulhOMdbnRNFAUJ+1f9VGtOmjuaMTdf4yaEQvWJ604CooTvZllonxx4zcOVu7lmbVdCZGmbbrNWmJ50NSrE5yv3cg1jhFGWzV8RSOMvGk3/rh4TES55NX5Zt9+hvY9Pvsu/n7nDi/5sxhyP8sLMkS5qf7/D+TdSgs6+qwJe+16NkfFxsvi6KkXObrVxVghs7CQm4VbXYrtSYJyI0x40DrGiCyasFW183FaDwRfg/lJhi/fZpUpACAT855qjmsS2kKka5t2vYUQInWyxkAIIQxIUAohhAEJSiGEMCBBKYQQBiQohRDCgASlEEIYkKAUQggDEpRCCGFAglIIIQxIUAohhAEJSiGEMPAX3rN0MtJl51EAAAAASUVORK5CYII=;fillColor=#FFE45E;strokeColor=#FF6392;fontColor=#5AA9E6;rounded=1;labelBorderColor=default;imageBorder=default;" vertex="1" parent="1">
          <mxGeometry x="236" y="176" width="330" height="110" as="geometry" />
        </mxCell>
        <mxCell id="7bl6Vf3JTjFMhsMhAHnB-9" style="edgeStyle=orthogonalEdgeStyle;rounded=1;orthogonalLoop=1;jettySize=auto;html=1;entryX=1;entryY=0.5;entryDx=0;entryDy=0;exitX=1;exitY=0.75;exitDx=0;exitDy=0;labelBackgroundColor=none;strokeColor=#FF6392;fontColor=default;" edge="1" parent="1" source="7bl6Vf3JTjFMhsMhAHnB-4" target="7bl6Vf3JTjFMhsMhAHnB-5">
          <mxGeometry relative="1" as="geometry" />
        </mxCell>
        <mxCell id="7bl6Vf3JTjFMhsMhAHnB-4" value="" style="shape=image;verticalLabelPosition=bottom;labelBackgroundColor=none;verticalAlign=top;aspect=fixed;imageAspect=0;image=data:image/png,iVBORw0KGgoAAAANSUhEUgAAAOIAAADOCAYAAAAjft6aAAAABHNCSVQICAgIfAhkiAAAABl0RVh0U29mdHdhcmUAZ25vbWUtc2NyZWVuc2hvdO8Dvz4AAAAtdEVYdENyZWF0aW9uIFRpbWUARnJpIDI0IE1hciAyMDIzIDAzOjA3OjI1IFBNIEVTVIEKz9oAACAASURBVHic7L19dFPXmfD7e10NHFM3kqjAghpyIBDL1MSIASynAQQJYNM0jllp7JBZrVYybzDTaVzf3gbTP3J1u+YNdvq2HjdTcHJnuLqZTmKTDNSQBDtJgwIplsGDEHGxjJP4xHaMRBwsEQUfPKfS/UOyLX9hm/Dhpue3lhZYZ+vZz7P3fvbz7H2+/kckEomgoqJyS9GMdeCzzz7j/PnzKIpyM/VRUfmrZExHPH/+PCkpKQiCcDP1UVH5qyRhrAOKoqhOqKJykxjTEVVUVG4eqiOqqEwBVEdUUZkCqI6oojIFUB1RRWUKMObpiwkTVpDDGgQNoCjICRqESbp3sLuN+q4AwYQkTPMXkHHbBNWSW7Hvd+FRgISvk7txC7bZQ4t4T+xnp/cLAKbPteC4bzFTcS9YDvhouRz7I0GDNkmHmPTlu2fKIQfwXFQQjQa08eNECeG9EEIwGBGn3WSdLjZRcrSHvM2rybzZdcf4khFRpubV3/DIqQAobZRUvkBp1yQuAAi1UfbSb0jde4jSEycprX0F678exhme4O8TZpFjsbBtPtR3/hn9bSOLzJlvpujudMRLbUgJ37ilTug/9QrWV08ijTgSourgC1gce8n93Ytscuwm7dfPYt7fNErZm4DvGHkvHKJGvgGy298hd+9+HIGhX0uul8iqOo53on1/HQlK71N1QUF7C+e9L1d1Vz27Liym9EEd/lOHqDFk4UyZaDRrw/67l6kxbMD5k5WYpgHIeKQAqROdHqbpyFyowyO9xRXjIiyjeJnWuACr3IQjlESWaJyg4BuBjPNcK/6kFYjDD/V14PRpyN74JAdWJAEKkutlzG8fp2ZNOkWGm6upX2rFGV7Arhsxa01LJBEg3uHkZspOdGO5+2Gyb8FMqV3+CNLym19vPNfgiApSlw9/+L9xHz0J8zeT6HNjd31KpkWHr1sm2TBeayo0vHOIivBKah9ciWlAC4GMAWcJ4TxeT7XUQXNARp6mJ+uu1dhXpaAdIitEfXuA1PkLSB6rus42GphH6dzJWwsK0rl6ylzNuC9rMC9fTXbIizdlHTvuTIqVkfGcOkZlUxvuyzDHuJSSjVlkzgCUTioO1uNWZLySQu9MF7Z9jZCgo2DjBrJvA7okGvoMFIr98jQkagDNNzDOGNTD23SMitOtuEOgNyym6L51ZOviVL3URuV7Lmo6e+hJ0JO1bB27VhgHswAlQK3rGI5zHUh9GvS6OeTfswFbigDI1L5ziKpu8Ps6kRUo3dcNCV8jbflmdizsl3IVW2MEzx2hRDJSlC5T9Z4b50UF/fy7Kd+cjqjRIKAgxzmi98QxqqatpHbFoDF+6STlJ97HdVGGpHnY7svBZowbrmEfjteOI9+1BlPnUSq8Ps4nzOKR+/Iomq8Zx1aAbhyvHcF5GUj4Gpa7t1A4fHwMkSEgLlxF6fp0xJga3lOHqLi8CJsgUX6mDSmsJ8/6PXYsSmKyTD41lVupOLifwqqXKZbgSvs72F46RFUfeE4cwn42MK4IQu9TfibEJksWmWNNBRdbqemCjCVZ2DfnYDdB7Zv72CUN10fC5ROuGu087R34jCmjRszxkBpfIef3zQiLVlO6fik0voLteCs+TayxlW4cVbvJbfwc0/J1lK43Y+w6gu3tVmSAsECGKY282Rp8ipG8FUvJW5JG3pI0zDERXqkN323zsMwEUPB3nWTH8Q5Sl1nInQEg0/D2XqxvdpK8ZDWl682IvmPYXnPjH2gvN7a9r+CQUyhcv4GdYi8Havdhb+8vEKJ6/16KPxDIvieHivtWk2+AoDLYAWJKOnkmHYQ0WO9aNaBn9mxhYrZGC+E8c5Kqc8cofruNRHEV21elIfLf0Ug4TRNdG/Y74uUmSk8EyLWujo0FBc97e7Hufx/mZ2HfuI48TSvFrx7BEx9Fu5txnJGoeucglZfnULAqC1vK12IOPr6thDWkLUwnz6jQ4A1A3EQSNcNH5e9eoNALVssGSlfNwte4H9vx7liBAHWn3BxoPIYjZMR2TxbWcBulR98f7JNJMPmIKKRRXriAmld3Uzn3MQ6v6qGk8jDCg09gn2Ba6vc2URdeQKXpKjPHTDPlD8X9nSJTc7yDYJ8yVO2u8aLdBCLmWAROUvzOeTLvf4LyJVFdjZ0nqToxC2tKtIjnvf2UBJZS99gGMmILffGCm6qzPnwsRpxmwLrEgD9wgqBhMduWp2Mapp+rvRs50I31n05Gv0oQsN79CHXrFyAAcvsRCk8oFNseYcfcqO1Gn5uqUz6kMCQnhHDUvoVz7mYatqRH7RQVahtfocUXgvlJcPF9HB8I5Ns2YIu1VeaitDg9BEx3pmHq6mQXRgpXpZM7bM09rq0A4Q7qO2W0BjN7tq5EjE31+f1CpgkkotAbcyqP6yi1M7NwpkedXf7oLWzHoeixxyiMpeTWaZ04XvThliEj5jD+9k48CGyzbqW0P1rfZY7+O66tQIKOzCU6/I2N+GbOI2uYrV7XQeyX0qh64ntYBYB52M66Kb7wKTIGhMtt1F/QYF7/MHss0Ug+RzrG811cE9e2RvTVU+5bjP2Ba1gbouBuPw+zh6Yzw5EvtuJwnaauq4fzfQqEZaQ+A/bZQ+vxSB34jOaxo11/xFwz+fWh9/RJnDOW4oybMIJ9ChhFLNOAvmYqG33ojfOofe8ItTH7fO0BSEpCP6gEznYfxpR1w5yQgfWhdf1j7EkXoruHZ96k8MQRXl62gMKZCs7G9zkvbqBw7qDtVxQFBCEaXS64cXwkYLOlD0424T/TG9agnRFrmASIpmOvIC8RsYppWFOSRmxeSVIHLTMXYBm+8TVRW7slXJcNbL9v0AmHoNFE6wwDoSZ2nVKwbcmKtUuIquNupBkL8J05QlnsJ72BNs5PM2Ac2NFUcEnn0d65mZ0LR+n4CdraL8eYYiEjXtdwJ45T3ZiWPxxzwmhZWQGjIEQnx842XJrFVCzrT6dlvN0hjLPnTX7CZ1KOqOCsfYHtXhn6QkiKwPbdrfReDhHUfIq10seev8/BOq7EEC0XZabrDIzlGnLXMfJecqNdvp6izQaM0zT4Tu8nzzt85ppAtBs3Yo6tp1MKYFy4KK6TunG1h0hdFGvszg9w9hminTxQRoO4MIvylMWDa1mlA1enhszN80bRL7Y+NBkRdQA6xFVLMR9/C88FBXQd1EkKWffEySNAfXsA49wURMD/USuepMWUxdkod7bRgJGi/glSl0WV7Rs4zpzDeeYIz7/zFpb1T3D4nvidIJmGdh/G+aNMGBO01d/eiee2xVTMHi4gxrREpqMghxU8x4/imruaioUxHfsknJ1gWWJErxkcSIIhjZ0LF5DV/1W4g/pOBcv6RcP2C5iErYNyMtYP65cLrThDOvLujFuAyxKuCxoyls8BwCN1Is9dPeioSgfOLg2Zy65tQ3ASjqjBbHmYKuNRCo6C46G70Z7ZT+HFLGrvW4xWI8Rtulyd6QlwRfnzGEdlao7WI5m+jzuWmhHupk7qRpuybuiOal8HLp8G891jbyt62zvwzTaTMdn1YTiAL6SQvPAbg5p1unn5gkDWfdHGli+F8E2bR/6a1Vivttq+IFHfZ6BwlKwhuj5cEFsfxurp6sCbYMQ6WwNyAOmyBqMuzoAL71PVJZC7Jto+nkAIkpJIHtBBxnm6lZ6U1eTFjSXt3HSK5qZTRIDKvb/BfuFTIK7twh24OiEze+SEMTFbY5EqxTL2znfC1xAS4ErAza4zGrb/nXlwEg19jj+sI3PFOoquNnF2S7guGymYP3anjmvr1eQEepDCesS4Sd/f5KY2YTHP3ykAAVztIUymeYMTgU/C1TcnulF0DUxqs0arE/CekzBZ1pNv6MX5AWy3ZpE524Bp5kR3inRkpehAOkFFZ3SJL4d81LiaoueQwgGaL8qDs25fN9Wv7WNXF1gWzhuaXigywTD0BAIEZRl5lFOYQVmJDuZLcvT/EyVBhzFJg/ejZrx9CkGfm50HT+LRzBtYHwoGHaLcRrU3NFjfhVaqz3UPlRUIIIVjae0QQrjaA0w3GNAGAkjdPhqajmB7w4tw12psM4FpAtppMu52X3RD5FIr9oP1+BdtpDgWSbQzBAh00nAJQMHbeIjic0kUr48N8kAbNR8EBjZUZF8zdReTyFuyYKg6lwNIsga5b+QJxAnZ2h+phvfTkHbVoNco1B+vx7NoHUXxASRJhzgtQO2ZNoL9uoZ81J5pG7IB4pc68dw2cl3HZGwlFr11o8iZkYie87jao1KC7ccodJ4n65515ArA5Tbqu5OwzB90bElqQzKIWCa/YQpMdo3YVU/5hTRKt+iQGvdTM3sNrms4JZCxZgslvn2U7n2WUo0GOawhY3kedQkABvJMRirf+3dEr4CAjry7jIgaAevwmWvGYrYtO0nhm7sx1oL1vic5fLduaF3LVrLp3BFy/vkkzDBz+Cffm0D6DJDEI9Ysal49grn0GGLKUvJnJ6FNiq0PAVJWU76qA9v+X2N8IwlBkZEFA7aNWwc3JwDmp2MzHmZX5TOUhOP07OvA6VMIyocx/8thSBAQDXPIXvUIFZYF0dlWs5jiu1PIde5FPC1wRYaM9A0c2Dy4HjQtW43tzAFs//IsOxJk5BkLKH5oKztiEVjuclOyv4mCBAFRgJ5wEnlrtlJuGtaeSYspWHKSHbW/JvE10N65hZaC9KgeE7G1W8J52YjtKpEKEpmukfEE5rCnYNhVTtPS2LGxmYI3/h3xtIBRo+ALJ2FZ8T0ODBRScLWPHXXHtfXCEawvHKNhYAe2Dcs/1YMmhfJ/fIzC24CUlexY1Ezxvl9zQICgoiN3zVYqLFHHk9vbcCWkDGwERVP6bowpC0am9BPkf4z1zJrTp09jMl2r2IkhX+pGkjXodTqSp41+bI5BN/RSqFuArIBAJ/bKF/FY+k+6xxcI4A3IIOgw6SabA0+QywG8lxT0OgPJo1ah4O/upichCXHmKBsTiow/EKAnLHy5Nr0Ztioy0sUAcr8tk9X1OtkaDHRzvk/DnJm6G37VzS11xClNoJXqrkSsC40kE6Dm7X0U+dKosa0j4yt4CajKrUUdUmMgX5TY86abwkvR2d9iWkn11izVCVVuCGpEVFGZAqj3I6qoTAFUR1RRmQKojqgSh0RFth5ruXSD65Fx/tSM5ReeqxdTGihJ11PwUvDq5W4A/n0FpN1fedPuB71FjuilbK0e63PSyEMfV5KjTyQxMfrRG0XM9xfjOHXzOwOg4ak09PnVXP/ag1TnGzE+Oly2RGW2HvHxWm7EfblXR0/GvTZyliTe2Gpansf+n6kUb8u4MfI/c5A3y4z91LWLSN6yk/xPKyh7/eaMuykaEZPJf96N+7Sb+jcq2fbNWoq3llAbGv+XfzlosW7K4sofndTHe1ywAefp6Vg3Zd2Cpwlosf6snB2bruWy5Yki43yhEuleG7k3spoviyaDgoJkDux5+Zpua5osk3ZEf52dvGVG9LNELI9XUvaoEeOPauNKBGnYvZ2cZUb0ej1iZgH2upgpigf7ikQSE83YT8g0PJUWi3xGbK8PrUf/LROmVBOm5dkUPpaN0d+M55P+ozLel4rJWSbG6sjDflAapqiTsh9aSTPq0aekYd1WSUP85KZI1Dydh2WRHv0sI+IyK7YXBlMlZ5FIYmIi1uck5IM2jLEInfZUw8Rs7ecP2xGNNhx/qMC2Ng2jXo9xmY3qTyD5XiuWL1w4zwwWl11OXFix3jt4ObP/D2WDvzVZsZU3jIiiFdl6rL+oofqpHMwpevRGEeuuhgnZCn4q79fH+mKM1FSRqHm6YECG+f5iqv80OIP4X8hBn1lMxa4CLCYjxpQ08nY5R2YSsoua13uwfne0iSaI85cFWEQ9+hQzBb8c/vtoe+d9Jw1xlh69aCYnvl/7s6mU7dSGvJR9J5ZZ6fNwfNZvhxdHUR7WdDHanulWbL904h/l6kfTxhzEhhoOfDLy2PVmco74cSW2xyuRtziob6ylNL0OxxtDm8r7XAG5u3vI/l91uJvcVG/TU/N4PhV/AjQZ2Bt76e11Y18lkPlsM729vfT2+nB8d4w6ZT+1B+vxJZvJ+Fbsq3d38kiRk+Qnq3GfrsdRAI7HCygbGNASldsKKPdbKf+DG/dBO+amneQ/WT0wuwX3lbDtJXjkRTfeJhe1FdsHbtQFsFZI9Pb24vyxiPCAA19vL729vTQ/mzkxW+O54qSsXCJntwvpvITzVwWIAnD7JqxLJFx/9A4U9bzrImjJJuebMVtP2Mn94QESH92D87Qb5/N5yM/nY3tx5DztfXEXB+bs4ID3POf/q4biVdoJ2QrJFL7WQ29vM6VrR+8Gzy8LsL10hUeer8ftqqEo2Ulh/k6c8VnKuQM4k3ZS5/XRsi+X878uofzMMEEfNlD/mQnzt0feN+Hftw3br3xYf1OP+91KrF4HVR/Hl5DxfZHMph0Oal1e3K/vwvpJKflPxtL72ws53NNLb+cespNM7PhjtM96ew5gi7Unio/gdCvFv63B1eTF+ds85H8rwLZXGmn0HRmYv+7G1XATFgmRMXC73ZHe3t4hH/czmREhtSji/Dz23efuiP0uIaJ97EDs78ORwtuTI/n/4Yv7nRTZs0mIZDwdL88dsa8SIpnPNo+oo9dbHrEKRBCEiCAIEUFDRLg9O1L6bk+sTE/kwA+SI8J390R8A79rjpTeLUTEHzujfzeVRjKTTJGidwfl9rxqiyQnZUf2SDFbfpEZEe7aEXF93jtSh7iP88diRHjAEVdX7+Rsfc0WSdaIkaI/9Iwq37UzI6LdtCcixdqldJUQsf6qv118kaqHtRHxHw5HeuL74ReZEeHe8thvYvavFSLCgJxh/TZBW/vlZD4zrF8+d0aKUod937knkp2kjeRXR+2SKqwRIdkWOdDT/xtXZMe3hUj2876hsl61RbRJuRHHp8PrjrZd8g8ODNrqLY9YBSGS+2++MXXuqc6PaL9VGDkcb1vnnkh2kimy44/j2TvYx9otVUPaeMCGu4RI5jMjfeF6fyYVESWvF1LNg1eXaESGnPP/xIPX76f6UePAZktiosj2OhmfzzeJmpLJr6in3lVP/buHKd90nl1PFFP7GYCPlo+DiEvS4u5FE0k1Tcf3UXN0ZvzAi0Qq5tRBiYLJhIiENzbDmh4owPpZBZssOdh+aqfipQb8k5n4JmOrkIH5rtFXfBnZVuY0OnGFAL8LZ0sG1nvF6EFFwv2nINLuHPSJgxtY5qcbkD/14RuWTqUuN496X+aXtlWWkD6ZTtoScfA7rZmM268gfRhna3IycwbGxnQSp4McGlqR/OderiBEH78ZjyLhlUBMNw2mrN8yYRpmkL+uDNu9aRhnxTbz8qsJhnomsbEVpOG57eQsEzHGNgWtz0lcudLDleFFNdNJ1IB8EwLidd+s6dXEpQRxH6nCOik5g2tEK7ayUh4JVVHxn9dx2ZxayIHTbmqezsf8NS8v/zybzB86JrUwn7CtXxMY88Vay7Ox6hpw/hfIDU7ct1vJviO+gID1V80j6uhtsI+43E5InH7DbJ0Yo+229g7VUavHSJCeUTYjBSDxa0O/G2LRh5XYfriH4IN7cLXF2uH3NrQw0onGILhvG7llEpllTlo+jcpwFptgtDvklKie+m/qRzl4fZmUI5pMJviwOfpAX4jOYh/EFUjOwPxNiQaXNI6k2IyoTHCq0UQ/vcEewEjq7dORzjbHLeQlWrxXMC6MRclFJkRacLcMipC9XiRETLfHyU0SyXzARtGzVTh/WwDv1A5d8wBoBPhzLyOYsK3j2WZh01qof7cB17sN6O/NGZJxpKVOx/3H4Zsz18BEbB0LQUT81hWaz0qD3wXdeD6ejnjHJO9IN2Vgwov3w2Hfa0yIi0CS4qaHoETLZ3Fl/uTCLeSwbbuV/gfeSeeaR4lk0X9Gu/3U2+jhyndslGwSY3dUBJE+lEYWBAg20+I3kpF+47d3J+WI4pYCLJ0O7L904v1EomGPHce5OGcSrGzbZsH9jI2SfQ1In0h4T9TieNpG2bvxkoyIKdPxvluH5zN51NDf84kXb4sX7xkn1U+XccAvYllrAgSsDz+C8d0KivZG63CWF1N+JpX8gthGyh25FGSex/G0ndo/SUhnqtn5TBVsLCAn1qbel+yUveTE+7Ef/8ceqg66CC40MfwWPVE0wmknBz4MRvXs79wJ2zoeAtZNmfjedeB4DzZtyow7piX3RzbEN3dg21WD50M/0pkGanaXsH33OCfD45iorWOiyeSR/FQ8vy2m4l0v/g8bcDxVgTP5EQrWT/IkS7KVTX/bM2SDKoqWvIdz6T1YjuNjgCANv3UMnSzuSEP8wo3zRHRaklsc2J/3jExLvy4iflPC9VoD/tDQG8bFRSLT/+TEGfN3/0E75e+MHhDkPzpxfzOb7JvxzNPJbNb09vZGpN/viGSnaiNCUnIkY2t5xL5FG0l+7HBcGV/EWWGLWL+dHBEEIaK9PSNi3bojUtU0bJHduCdiWyVGtBoioI3kvzpss4bYJ0kbEVflRnb8R3PcYron4n6+MGJN1UYEQYgkfzs7UjTkeG+kVzocsW/JiIhaISJoxUjm1tKIs3PweHN1USR7lSmSrBUiJCVHTJsKI47GUTZUPnVGSrdkRJKTovoMbAhN1NbXbJFkbX6k6mobJT5HJPebRIRv2SKHe0Yel16zR/LvNkW0SUJE+KYYydhki5S+Jo3cZPnF6H02rq2v2SLJmrg27/980xY5MLAx1xypKs6OmJKFiCBoI6a1hZE9DYMypAprRLjLHrch5I7Yl8dvPMXZ82+5keTl9oh7hK6+yOFf5EYybk+OiHeYItZ/KIrk3h6/WdMTcVXkRzJvT44k32GKZNxbGNnzTP6o7dv8H4UR6x3aiKAhgpAd2dPf9z3uiOMJa0RMTo6IqaZI5tbSSPkTpoiwac+wDTlfpGprcsRU7By1Ta/350vefRHE8aBIZaYT184bdJWEylcPuYGStYVceaae8nun4ptIiJ6T3OQk/w9V2L5146ub7OtiaNhXjbPFjywHkV7fRWVjKnnfVZ1QZRIImex8rgjxC+lWazImwU8Esn9VelOcECZ9P6Kfmqds2Pe5kYJX0N5hpeDn5ZRuEW+8pioqX2HUG4NVVKYAU/SibxWVvy5UR1RRmQKojqiiMgVQHVFFZQqgOqKKyhRAdUQVlSmA6ogqKlMA1RFVVKYAqiOqqEwBVEdUUZkCqI6oojIFUB1RRWUKoDqiisoUQHVEFZUpgOqIKipTANURVVSmAKojqqhMAVRHVFGZAqiOqKIyBRj+BoLJE1aQw5rYk7sV5AQNwmSfDdfdRn1XgGBCEqb5C8i4bYJqya3Y97uiTx5P+Dq5G7dgmz20iPfEfnZ6vwBg+lwLjvsW34L3Dk6AvgDeboU5sw2xJ1BPUS63UvamhMm6gVzdVcqFfDjbu/GHv0byzHlY5iaNbPewD8cbJ2HF97BN8oHhXzW+ZESUqXn1NzxyKgBKGyWVL1DaNdpLBMYg1EbZS78hde8hSk+cpLT2Faz/ehhneIK/T5hFjsXCtvlQ3/ln9LeNLDJnvpmiu9MRL7UhJXzjljqh/9QrWF89OerroP2nD5H1uyMTt/0WIbe/z54PPmd60lglQjjf3kvab16k+L3j7Dl6mIK9v8b69igvIbrYSrU3ADNGl3S19vqq8eXm3q56dl1YTOmDOvynDlFjyMKZMtFo1ob9dy9TY9iA8ycrMU0DkPFIAVInOj1M05G5UIdHeosrxkVYRvEyrXEBVrkJRyiJLPFWTrsyznOt+JNWII44puBq7wDjBizTbr5mk8EjdSIbV5M1Rjd739tHgVfH84U/IHdmtJB8sRWXYhhZ2LCaw//n6jFqulp7ffW4BkdUkLp8+MP/jfvoSZi/mUSfG7vrUzItOnzdMsmG8eKOQsM7h6gIr6T2wZWYBrQQyBhwlhDO4/VUSx00B2TkaXqy7lqNfVUKQ19xGaK+PUDq/AWjvpIMgM42GphH6dzJWwsK0rl6ylzNuC9rMC9fTXbIizdlHTvu7A8LMp5Tx6hsasN9GeYYl1KyMYvMGYDSScXBetyKjFdS6J3pwravERJ0FGzcQPZtQLiD+k6FjGVj2yD7mqhobMbl+5TzfRr0sxdTdN86svvTQ7mVstqhKaP/7FvYL4iUWhejJUDNm+/gnWtG9DXi+OhTemcsoPj+nGEppozndD2VTW00hxQSdfPIv2cdthQB6MbVHsK0UKD27VdGygi34Wj0YbY8POCEAMLMxVjj2tPjOkh5+58BMN65jtJlcU46kfYC6Oum5vhRXv7Ih9QnYDKtpsy6eOwxMMWZfGoqt1JxcD+FVS9TLMGV9newvXSIqj7wnDiE/WxgfBmh9yk/E2KTJYvMsaaCi63UdEHGkizsm3Owm6D2zX3skobrI+HyCVeNdp72DnzGlFEj5nhIja+Q8/tmhEWrKV2/FBpfwXa8FZ8m5oRKN46q3eQ2fo5p+TpK15sxdh3B9nZr9OUoYYEMUxp5szX4FCN5K5aStySNvCVpg2/t7ZZwhpKwiKNEjWgluM4240sSsa3JoWLjSjIC9dgOnhx4tZosvc+ec/Epo4zz9ElccmJ04rrcxsuNTex5r5FmXTpFdy8mseskuxrjUsZ+W453Iy7Jwr5xHfkzA3guxo5f7sDZrSB90DS6DOULpMsKUmcr3qu86Es7O408k47gR61ICcNy3Im016Vmil/Yy64LevLuyaHUMgfJdYCiMzfhRYY3iMlHRCGN8sIF1Ly6m8q5j3F4VQ8llYcRHnwC+wTTUr+3ibrwAipNYy40YKaZ8ofi/k6RqTneQbBPGap213jRbgIRcywCJyl+5zyZ9z9B+ZKorsbOk1SdmIU1JVrE895+SgJLqXtsAxmxtFK84KbqrA8fixGnGbAuMeAPnCBoWMy25emMeH661EnLtHnse+eIwwAAIABJREFUHNMGDdb134+LKpDsO8nzXnng7YMeqRN5blzKqHTg7NJgWR6doOTONlxhA9sfyGPHXA0wB+nESRwDU7GCx7mPkotLqfn7DWT2p8gLFw/UKbe34b6ajGmLKFxmoKDxEGbvYUzGBWxatpqdK+KzGA3iwjTECz7Kw0YK5g+bHcdtrwCO3x/COT8P5wOLY3LnsP2sm9KubrgrZaxGnNJc2xrRV0+5bzH2B65hbYiCu/08zI6lbmMgX2zF4TpNXVcP5/sUCMtIfQbss4fW45E68BnNY0e7/oi5ZvLrQ+/pkzhnLMUZN2EE+xQwitG1XF8zlY0+9MZ51L53hNqYfb72ACQlMfh6Sxlnuw9jyroRTjix9WEs9fV20HxJRg7DlVA3WtO62PopgKszhOnOeYMD3ifh6ptDUaxfPFIn8vwsbHNj7ad8iueiBpMlFoVlL+WnQmRvXj3ohMMYVwYC1s3/QMuKVmrPSRz2unn+jReREp6kavnQSdff3olHN4+KUTbYrtpe7fVUtINR10nlO53R78IyrgsK2vlXmdinOJNwRAVn7Qts98rQF0JSBLbvbqX3coig5lOslT72/H0O1nElhmi5KDNdZ2As15C7jpH3khvt8vUUbTZgnKbBd3o/ed55ZN02VNa40W7ciDm2nk4pgHHhIjIGokZ0jZS6aF60vs4PcPYZsKYkxZ2y0SAuzKI8ZfGgUygduDo1ZG6eN7Ka2Powdcz1YYia/Xsp6l5AyZqNFM4UmB5uo/R3byGLMXmX26jvTsKycTC1laQ2JEMaliSAQHRtZ4qro99R58c6rPMcTmUO9oVjzWjdUWe/mowY2tmLyZ+9mHxLGiW791J3IQDEO4mCSzqPMcUS17bxh8duL88HbUi3zSNXp4nbAU/CunwDqUuudj5lajMJR9RgtjxMlfEoBUfB8dDdaM/sp/BiFrX3LUarEeI2Xa7O9AS4ovx5jKMyNUfrkUzfx71+QbSxw93USd1oU9YN3VHt68Dl02C+e6y1FXjbO/DNNpMx2fVhOIAvpJC88BuDmnW6efmCQNZ9sXTvUgjftHnkr1mN9Wqr7QsS9X0GCkfLGmLrQ+tY68OuenZ5kyj5x+9RGJuEgmeP0iAbKepP67o6cTGHR/pntnA3NWd9GFM2RyNKv6POH8tRIXjpC4II6MeKypc7xpUxgvDnBPsEMuYOs61/c2r9KBMTXLW9ei6FYPYaStakT83zwdfIpDZrtDoB7zkJk2U9+YZenB/AdmsWmbMNmGZONC3QkZWiA+kEFZ3RxbUc8lHjasIbBsIBmi/KgxGmr5vq1/axqwssC+cNbXxFJhiGnkCAoCyP+qrmoKyAHEC6JEf/P1ESdBiTNHg/asbbpxD0udl58CQezbyB9aFg0CHKbVR7B19rG7zQSvW57qGyAgGkcCytHYZf6qQlYRZzpnXj7R78SIFY23R308LfDNjt/+gYttomJN1gdiCHQgTDMj0yEA7hdB5kl08gM7aBJbe34dKkYB3ICmQa2rsxpiwYSP20BgNiuI2XzwRib+BV8Hqb8cT2P8aTIX90jOL3WvGGYjaGOnEcfIsDM8xsXzLMZbolXJeNWIevDyfQXqJBB53vU9UdOxaWkT5qomYy56+nIJNbI3bVU34hjdItOqTG/dTMXoPrGk4JZKzZQolvH6V7n6VUo0EOa8hYnkddAoCBPJORyvf+HdErIKAj7y4jokYY2XEzFrNt2UkK39yNsRas9z3J4buHpicZy1ay6dwRcv75JMwwc/gn35tA+gyQxCPWLGpePYK59BhiylLyZyehTRIH13Ipqylf1YFt/68xvpGEoMjIggHbxq3kx4uan47NeJhdlc9QEo7XM7o+lBWFkn/dTUncT7RLvo/0UBqCuJTcGfvZ/i/PUjYNhLlmNhk0uG8TB7IDIUXEkvAW2//lWeyCjrwleuZo/gbr/Lj1oXHkRk7msrjFwfzV7FrRQeEbv0F8JwlBUdDPX8fLMU8dT0bw8qfUHz9C5TsgTNOAAuLCLBx/ty66Mx5uo+Q3/07FpcEqG37zC4oTBPIffBJHelzfjtleIK7YjP2jfRRXPot9hgCyDDNN2B9Kn0inTllu6WvZ5EvdSLIGvU5H8rTRj80x6NDe4itiZQUEOrFXvojH8iQHVgyL/nIAb0AGQYdJdwMSJkVG6g5AkgExaYxZRA7gvQRzZuq+3CVycgBvQEG4TYc4Y5KCwgrBSwHOy6DXGUi+gbmjfKkb6TLXpucURH0/4lgEWqnuSsS60EgyAWre3keRL40a2zoy/vL7XWWKoQ6pMZAvSux5003hpWiks5hWUr01S3VClRuCGhFVVKYA6v2IKipTANURVVSmAKojXjMyNT/UI/7UeV2keZ42o3/IQfC6SBsb/z4bafdXjnuPX+02I8Yf1d5gbUbhw0py0m1U+8cv+lXiFjmil7K1eqzPSaMck6jI1iMWOW+yTjcCP87ntpOzTESv12M0Wch5vAznZyNLapflYlubxvRR5VytvSaB3ED5sw1Yf2y7Qff4XQc977BRtLaB0ooG/nLvpZg8akS8gUjP2Sj4lUTGUw6crnpqfltMtq4HaZQ7xcQtdsp/nHlDL9sKvrGHKiUX271T+eIwgewf5sJLe6i70enBFGLSjuivs5O3zIh+lojl8UrKHh2ewgRp2L2dnGVG9Ho9YmYB9rpYnqF4sK9IJDHRjP2ETMNTaSQmJpKYaMT2+iSU+LCGkketmBcZ0euNpH2nAPtBafC44qTYpMe2P25OPWhDv6gYpwIDaeXjFVQ8biVNNGI05VBycHg+FLNlRTSiicty2L7XM3SmliWqf5pDmlE/TIaf2joX+oftlG61kpFqIvPefIp+VYrtjsGfe3dZYm2QODI1nWh7hbw4fpqHWdSjnyVifrCE6pbh8SRIbU0tiWuzR70H1P96fL9W4AkNO15Xhu1+C2kp/XUU4/iTPAk9o22Z9500xFl69KKZnG2VNIzmbMuzsQq1vPxX5ImTc8SPK7E9Xom8xUF9Yy2l6XU43hjaWN7nCsjd3UP2/6rD3eSmepuemsfzqfgToMnA3thLb68b+yqBzGeb6e3tpbfXh+O7k9AjeB6Wbad8nxN3kwvHNj01jxdgPzMpa/C/foCeH9TQLEnUbQPHU6U448avtzyX3GeayXiqGneTl9rd+ST7Ja7Eq1JTyeHUHRx410nFvT6eH5AhoNdOp+eMc8Sgjse000Vvby+un41yqmhC7eWn+vFs7C0Z2Pe78TbWUHKHi6JH7TTE+6LixtVwBdPfmkfW82EltscdyPlV0X41OdkzrF97PutFfNiOo86N11WD/U43Jfk7o7ZOSE8Z3xfJbNrhoNblxf36LqyflJL/ZPXIdbHGjCXjCp4G99gN9xVjUqenvfurcBls1P48G5MGTD/eha3KSXl/AcXJ879tJvsZD0Xfjd4EJD5mp+igicqDXoq+fZ3OSy4vpHT54J/iD4oo+LcsnC4/3DXx23+FtdspXhvVM2NLNuZnDuD5GKypgFxLxW89mH/upvRhMfqDb9mw3z1MyIpCyp6wkgyYnrSxZ1+/DC25Py/l8KPFWBY5yLwnE8t3csjbmk/m9Xyew5k9lL+TRslpO7nfin6V/38Xc9hUQlVDKZlrY+WCEtJnWozJ2hEivPurcBkLqP2ZNdqvxXZsrzqpjCtj2mrHHvd37g4bjv+3Euc5sN41EUWTyf1ZvIRsip6wUv5/uHAr+cOu/9WSbNTi+1giCIzU+KvHpCKi5PVCqnnw6hKNyJBz/p948Pr9VD9qHEi3EhNFttfJ+HyjPMXrWgl6cPw0D8siI/pv9KdE0BvsmZQYrTF5sJMFLQIyPf3h7pMWmoMimRbx6jJuFwfvz9Np0cfJEL5tw9Eo0Vxdii3TiO/3O8j+2xzKTl2/bYhgk5eWkJPiRYmDbT6rgOrPfJz3x9UTuzlBGGV5KH0Q7deB29g0qZiHzZlySzUl+dHUNDExkcSU7dTKQeSrRPvh+OvKsN2bhnFWLBXPryYY6hl1UyZxeiLI8l/Nhs1136zp1ZjY8cfeWGoy+JEqrNepBhnn0wUUu0R21rRw/vNeenubKR0eqUb8ahSux+Vq48nQaBHX5mL7WSmOdxsoX+Gm/Ld113eAJRdy+PPhbd5D1cNxXqfVo/2aTE9wjJo1DN2xjbdL8VD6g0Lqkgqp+q/zUfk+B9mT2fP5sBLbD/cQfHAPrraYjr+3oYUhqX4UmZ7Pepj+zTl/FdEQJumIJpMJPmyOPtAXQJHwfhBXIDkD8zclGlzSOJKE2AOJr2U4SjQ0+rAUFJH7bW10l1H24v0wvkwi0wUIhga7ONg5yRNT30olTTsRWyaDFuO3BK4Ee0YZfFdj7PbSpptI/aIe59nxRKSSlnoFqUUacUg0mUCS4s4t+pDii33mxvORSO6PbGT031LR0ow04hbAq/Trn1y4hRy2bbcixm5ekc41j9EOEi0fXMGUnvqVuvn3akzKEcUtBVg6Hdh/6cT7iUTDHjuOc3GNLljZts2C+xkbJfsakD6R8J6oxfG0jbJ34yUZEVOm4323Ds9nMvIo/SZ3e/Gc8cR9vHj9MjAH0yItzS5ndCAoQZzPlHIg/tycxkRWxnTcrx+IlvnMSfl/uCYXhYRsCrdl4H52e8wWP9KJGiqeq53gSXeZ2p/mYNvloPZdD94WD869xdj/U8ay3jrJmf4q7XWXjcL1Pir/53Yc73qRPvbi+YODsm12aoYoaiL73lS8f3QxfEoyPVCA5eMqnn89esRfV4HjRFwlWhEx+TwN73qjbRj0UPGMYxRHvIqed6QhfuHGeSKqlNziwP68Z/Q+8btwtohY7/3rudZ5cqnp7YU4/j8bQnUBWcusFJ22YtuoRYibt0zFVdQ8nYbn2XzM6WasP7BT/YmIacjDtQQ2PVVKXk8lm0Q9ev3I0xfB/cVYMi1xHzOP/LYF0JL7TCUFX1RgXZSG2ZJLpcaGbVX8r7Xk/ryCnE47lkVpWH5Yg+nBTZOeXTN+VkPNU2LMFhPWJyrxTp8zxkn34QiY1mbCHysp/qGVLIsV228kTD+twvGEGC0SqqYgtl6y/NKL/Pp2jImJJH7DTMmJibaXiO3faqlY66PycSvmZVZyf+rArU0jdZiiGY8+gqmxhgOfDFP1jkIcz+ci/V+ZiKY0cv8fLZvujZsqBCv23xajrcrGZErDvNnO+S3bsY5o0Kvo+e0inv9fJlyPZSCmm7H+1IP18dxRn9Pjf72G+m/bKFg+ysGvKF/y7osgjgdFKjOduHZm3AD1VK4vQWp/ZMGeXIXr6SnaX4oH+9oC/D93see7fy0rxElv1gRp2FeNs8WPLAeRXt9FZWMqed+dop2qMgwt2U/vwWY4P3XfJ+E/j/GHe7D/FTkhTDoi+ql5yoZ9nxspeAXtHVYKfl5O6RbxxmuqovIVRr0xWEVlCqBe9K2iMgVQHVFFZQqgOqKKyhRAdUQVlSmA6ogqKlMA1RFVVKYAqiOqqEwBVEdUUZkCqI6oojIFUB1RRWUKoDqiisoUQHVEFZUpgOqIKipTANURVVSmAKojqqhMAVRHVFGZAqiOqKIyBVAdUUVlCqA6oorKFODLP3Q+rCCHNbEnPCvICRqEyT4brruN+q4AwYQkTPMXkHHbBNWSW7Hvd0WfPJ7wdXI3bsE2e2gR74n97PR+AcD0uRYc9y2emk+PvhzAExh83O70JB2m266zpu3HsB2VCIYBQaTkodVk3oypuOskxadg2+aVmBIUgt3dSH1AggZtkg4x6Xq8++Avmy/ZAjI1r+7GIT7GgeU9lFQeRnjwCewpExQbaqPs4CHKO8E0UyAY6EZKWMqBn3wP60QGSMIsciwWLO0ubK4/Y7ttZJE5880UzQxQU3uI+pQNt9QJ/adeIf8jEcdDK0e8sdfz3otYToTQTtNAWCbYB8lzs3Bs3YB1xvWpX9YtxmYx4j11iJ2XF1F5k/Ihz9mTOLpXUpIAKG3YHS/jUASmh2WCCojzsyjfsoHsUfrvqiht2F88AtYfYF/4l+3MX077rnp2XVhM6YM6/KcOUWPIwjlRJ5TbsP/uZWoMG3D+ZCWmaQAyHilA6kQHyDQdmQt1eKS3uGJchGUUL9MaF2CVm3CEksgSjRMUfCOQcZ5rxZ+0YpTXZgdwtgdIvusRvA9EI7a/aT/W/fVUNGVhXZV0XTQQbjNivS0J73syqfMXjPqU7etPgPr2AKkL50XruyDhlHUU2Z7EnqIQ7DzJtqq3KHw7Be+WtMlNlBc+oNYHhYa/bCeEa3JEBanLhz/837iPnoT5m0n0ubG7PiXTosPXLZNsGK85FRreOURFeCW1D64cfB0YAhkDzhLCebyeaqmD5oCMPE1P1l2rsa9KGfbeiFC0o682sDrbaGAepXMnby0oSOfqKXM1476swbx8NdkhL96Udey4s99BZDynjlHZ1Ib7MswxLqVkYxaZMwClk4qD9bgVGa+k0DvThW1fIyToKNgYiwKX26i/oMGyat7AQExeuABTQtPAKl72NVHR2IzL9ynn+zToZy+m6L51ZOuix6XThykLLKLUuniwfZROKt9ww7IcCufHGlmWcPkEstaMPikFu9yUH2/C2f05zDCSt2YzRWK/VgqSt57KJgnPxc/pCQuI4irs69NjEylAiAbXEcrPdiAxizxLCu4LAlnWaH2S1IEkpGAxAmjQpmRReOcx6to7aQmnkZEwAVubDmM/G4JLHXjQUF37Ck4gcX4WeywpE9RzajH55ERupeLgfgqrXqZYgivt72B76RBVfeA5cQj72VFeED+c0PuUnwmxyZI16mukAbjYSk0XZCzJwr45B7sJat/cxy5puD6xgXWVaOdp78BnTBk1Yo6H1PgKOb9vRli0mtL1S6HxFWzHW/FpYk6odOOo2k1u4+eYlq+jdL0ZY9cRbG+3Rl+wEhbIMKWRN1uDTzGSt2IpeUvSyFuShjkmQu5swxU2Yp0/qKDf66U+IYVNC5MABdfZZnxJIrY1OVRsXElGoB7bwZODL5S5fJ6qJgkp3P+FgufoG9gv6LDGZyld0UnJOsqk5PcewvriMbwGMyUb15GnkSh59Q1q+2IFwt3Unv0U/XwzRfflUHrPPK407afweHesQIia/XvJPfXfZK3aQOlygcOvHaGOeVhTAGQa2n1Mn7uArPh+DwMJ/V+Mb2uiTiRvySL0Sohk0UzhkjTylqSTv9AwQT2nHpOPiEIa5YULqHl1N5VzH+PwqsmvDf3eJurCC6g0XSXlmmmm/KG4v1Nkao53EOxThqrdNV60m0DEHIvASYrfOU/m/U9QviSqq7HzJFUnZsUGFnje209JYCl1j20gIzbbihfcVJ314WMx4jQD1iUG/IETBA2L2bY8neGPbW6ROgnOmINwsZOGi58jtTdR7mrDZPkBtpkAGqzrv4817jfJvpM875Xpjf1tnKljeiiAFIaMBOBCPSWNUPx3WZjipluP1IHPaB45KcnN2N94H6P1Caos0QGdrZFwvNiGJwDZs4EEI4VbtsT9aA7+0ycpjb32Keh9k5IP9JQ+sQWbLnq84LQbDyKWaYDSgatTwXz3grisJoD3osz0mbNiS5LxbU1OSSPX2IrzTQHrPVnkpg8bd+PoORW5tuTaV0+5bzH2B65hbYiCu/08zI6lbmMgX2zF4TpNXVcP5/sUCMtIfQbss4fWM+bAGhB09VTsanhPn8Q5YynOuAkj2KeAMTaw+pqpbPShN86j9r0j1Mbs87UHICkJ/aASONt9GFPWjXDC/vUhfTJlv+8AjYZkXQp59z9BUbohlqrGUl9vB82XZOQwXAl1ozWtG1hvCjo9YrgV6RIwM0BlbT09y7ZSNDe+vcaelPxNjRwIm3AsNwx+2afQg0D/KxGRfdScOMnLH51HuqxEbQ2A5S4DEOLACS+Yvk+BbtDuK30aUu8cuj7Mna8brONyG06fhqz7xAnbSkxWvWwYTLnjuaqeU5NJOKKCs/YFtntl6AshKQLbd7fSezlEUPMp1kofe/4+Z9i70EcjRMtFmek6A2O5htx1jLyX3GiXr6doswHjNA2+0/vJ884j67ahssaNduNGzLH1dEoBjAsXRSMMAN242kOkLooNrM4PcPYZsKYkxZ2y0SAuzKI8JX6t1oGrU0Pm5nkjq4mtDzdtfpKqZaPNJtF0r6h7ASVrNlI4U2B6uI3S372FLMbJmzkLETdSQMEvHab00lKqC1KGbn6MOSkpuD7qADEPa9waytveQXDm4mgKLbdR4ngFpyGLndaVpM7QQHc9j/z+02hK3deEs0tD5qoFg3WGOnBeFMiaP9r6MIr/bBPOhHmUmpImbmtMVsvMBViG77SOp+cUZRKOqMFseZgq41EKjoLjobvRntlP4cUsau9bjFYjxG26XJ3pCXBF+fMYR2VqjtYjmb6Pe32sU8Pd1EndaFPWDd1R7evA5dNgvnvsmc7b3oFvtpmMyfZBOIAvpJC88BuDmnW6efmCQNZ90ZEkXwrhmzaP/DWrr3665YJEfZ+BwlGyhv71YYk4hoJd9ezyJlHyj9+jMDbogmeP0iAbKYofWBodYpJMS6ebHY2fkvdAHpnDNyZ8HTSE52AfMSkFkAIKc8RvDDqR0onjbIDU9KVkJIB0+ggOVuLcsjqW6io0nGpDui0tOjl29yApAta4c8BSkxsn83AMWR+aB9eHl1spPd6BuPwHFNw2CVtjskbLMMbVc4oyqc0arU7Ae07CZFlPvqEX5wew3ZpF5mwDppkT3WLXkZWiA+kEFZ3RnF0O+ahxNeENA+EAzRflwQjT1031a/vY1QWWhfOGzvCKTDAMPYEAQVlGHvEGWwjKCsgBpEty9P8TJUGHMUmD96NmvH0KQZ+bnQdP4tHMG1gfCgYdotxGtTc0WN+FVqrPDdsUCETXbtH17VBapE6CuuGRfhC5u5sW/mbAbv9Hx7DVNiEN/02CDpNOwfneWzQs3IB90SiOLffSE+7FdzEUba+BjR0BraBB6uqIbvYoAWreOIiDpZTGwpd0oZsrAxsqMp4TByhsDKBNEaOT4wwBfUIIT1d0sy7YfoTtRzsH0/jY+lA0JHH+QifO00ewOQ5QO3MdjvXRyD1hWwkhXVIG+j+ecfWcokxujdhVT/mFNEq36JAa91Mzew2uazglkLFmCyW+fZTufZZSjQY5rCFjeR51CQAG8kxGKt/7d0SvgICOvLuMiBphZGoxYzHblp2k8M3dGGvBet+THL5bN7SuZSvZdO4IOf98EmaYOfyT700gfQZI4hFrFjWvHsFcegwxZSn5s5PQJsUGFkDKaspXdWDb/2uMbyQhKDKyYMC2cSv58aLmp2MzHmZX5TOUhOP1DODsvPogEcSl5M7Yz/Z/eZayaSDMNbPJoMF92/DfJCHqBOQLCyi9L230V4OLZornHsD+r7+mJEHHjseejEXHJPLuWYnj1bcwP3uM6WEFvdHM81tzBt4KbF6Shth0hKz/fRItkHbX0mja1z85Ji1l2131PPLGboxODfqZi8iYAanzB9eH9TJ4XC+TdUpANMxj04qtOFekkJwwWVt1ZKcvpuq9VzD+E0P6dVw9pyi39LVs8qVuJFmDXqcjedrox+YYdGhv8UwmKyDQib3yRTyWJzmwYlj0lwN4AzIIOky6G9DdiozUHYAkw9iXg11upfhfD3B+zT9QtewaLwBQQkjdIZhhQBztMkM5gDegoJ9pGNFf/QQD3ZwPJ2GaeY3tMBFbx2MCek411PcjjkWglequRKwLjSQToObtfRT50qixrSNjKl3IIYeQAuepefsQlZp1OAvMN+mKGZXryVQaUlMK+aLEnjfdFF6KRjqLaSXVW7OmlhMCDc4XsXnBtGgdBzaqTviXihoRVVSmAFN4H0lF5a8H1RFVVKYAf52OqDRQkp5IYmIiiYl6Cl4K3sR6b2J914LioWytmeI/jHNdZksF1llWKj68OWoNIuMsMmP5hYepe+Xo5LlFjuilbK0e63PSyENDnCSRxFlG0tYWYH99lLLXiiaT0qZeej93UnTH9RM7aV63YYzZqU8RMd9vo+x16doG2Os2jOJ2aidxzcJo+F+ysyfRRtG9N+is25fWU8D6pA39XjtVn1xPxW4tUzQiCmT8+ADu027cdVUUmVqo+LsCys7car1uAEIm9j+4ce53ULQqiMNmxfaidGt0Ubw4nq/HvLVglJuXpxB3FJC/op7KF723WpPrxqQd0V9nJ2+ZEf0sEcvjlZQ9asT4o9q4EkEadm8nZ5kRvV6PmFmAvS52J5niwb4ikcREM/YTMg1PpcUinxHb60PrEWaJmFJNmJZbKfyVndyvt3C4LtbwH9ZQ8qgV8yIjer2RtO8UYD8oDWqwPzbrhuIEKg2ULNOTs1tiogRPVbL93jSMs/QYTRZsv3QO3v8H+OvKsN1vIS1Fj36WiPnBYhx/io9nQZy/LMAi6tGnmCn4pZORSame5DtMZKyyYnv6ZRz/U0/dsxU4+8WMY6u8rwB9YiKJD1UT9DvI+0Yswq4to3+Yjq9njLNVHDhnZtO9o5wECXmofNxK2qz/v71zD26ruvf9Z3I0sURdZIHBCjGw88IymDjKQGxDKZtXYocehFNurKQzqYacaewyxXU7zaNnhrsvM00czvR6XAZQzp3mqEwvsQ2Nq/CIzaGww8tSkqKIBryd507ixBI4WKIm2s5VPfcP2bH8lkgA0ezPTGZi7aW1fz+t9V3vhwVrUQUbXx/zO8YVPLWViEUCVosFa5GY+L3iqds5na8j5FGx1E7Xn5sS5xX9E5CeEE+4ca11o63w0LG/jfqidjyvjc5aytNOHM/2Uf6bdgIHAzSvs+BdW0XjR4ChGGl/jFgsgLTESMlTncRiMWKxEJ4Hp3ivwYzJAFp8IPF3tAcW1dDQIhM46MOzzoJ3rRNpqMY0L3VSaWil6fUk2/a24g2JVP1QSM0fOPl1AAAZlklEQVTXs15qV24iUCTRvj+A/Ntywo1OXElC7jsbQ1gp4WkPoPi8SDcF2Fi16YKIwi3rcP02hPi7DgJ73IiKh6YTU73USMkyEfPpDvyHSMlX48om+mIxYi9VYc5z0fr3GLFYjL49Gy4siJ7OzmHCPj9decXYx+lQQ/53J5uChUjtAXzPu4j+0YM/WQTxENEskbpnvPgOKsjPVKL93olru5qyndP5mkzeomKEY346wuOffRtJa3pa2dmEL9dF26/LsRnA9rMtuJpkGoYDxGW2PdNJ+eYgtQ8mVjsKj0rU7rLh3qVQe8uXmJfUwshPb6X1rJVVSwoSny2upn7xSBBhTS3O35ch+8KwMA+yRaocFpzNbURXVGFGQ/6Tl777JCpTnPGOvurBG3ey4zdVFGcDN0pIa7yUNzej/DSReWyrJaSk7zg2uPD8lxv5EIgLw+x+oR0cO5AesmEEqp+sxbtr09QvzrViJYT6Kan5mgJT2znyuaqGIL+cvLG5QpPx/CnEss31VC02AwL1v2yldV1oJIxRpPYpceTv2bXUPeTGsSeI9hMhtXWe6fg6W8BKO+ppYHYqkWc2adWIqqJAgX1kdYlBYNSc/+kgSjhM84+sI4MtJoGado1QKDRRlJOg4X/Sjum7JkwWgYrfhhCf8CANDyBEg3h+WUnpfCuW7w43dSEW7Rv6vhGxysGsPU20hgFNptkbo7zKMfFi6Il8PaLCPBvJhwjYigrgqIo63NzqamZjVaLJZzKZMOXX0KZF0fqBuIqiglBkG8mEs23YUl36MlzbTOvr9ExpZxKxAQ0MWZjGRnC6C3VAwFY08uuZbXaEUYKN4n+6hopFAlZLIu3Fp1UGBvoYSNXQdHw1GDGiMRAb/+jbyCUfrIkZbGx4LzbU5Bz5pzaKacRipLimlcD+AIGDKqHuAE2/KhkSkYb8hJM6n8Ambxc9f48Ri3VSf8eYKBa7cN7YQbNXJfoXL7sNFTiXXsKRwHiQ+jXVtGdX0/TXnoSfIQ/lSa8wAqZ/Gf21rOni7Q0RwoowC1L29SLtHMaaa4a+KBNLPGt0+2mMX9GWdTi2qpRslen6NJHmcp1tpECZljR9jUTpw4w1czfdp0VaQrTZbHC0c6SDHFdRjiQFyCvGfrWK36dOE5Nx6EDiyQfqLwzWzMvDPKrkVfHvD1HqrMVxizlR22gKytj5LIONKqeNQLMHd8tuTA+5LmzpGWWHEQYmOMtEmC/AUYWkrYYoB7vgRiFRE5wNEDwm4HjMRfHwWRJdnRdqSww2hPmgqkmdmKhK19lJXQY0/O0y0dlllNyUhq8AmCbO9NPZmezzQhtZJzrpGvtzzC6g8DsqqjryQOtWCSXFoewPMnCni43LhKH0iqIeVVO3My1fQTuioGTZsH2T00+XkLSEKKxwUtrtQfoPGeW0iv85Cc+hpFQziqxbV0pgs4uNLX7U0yrK3jY8T7jYuic5JitCfhbKnnaCZzXSO9NnFrb5Zjp9ciIzxaPIm+tpnSCDCyud2D9spP41C1WPlIzvpxgE7MVmOnZ68J8IEz4bvTCHZ37QhYMmpP/ZTPCEivKqhPR8D6XOqsTggllAyOvBv0dJfCcapHGzJymDm6lc6SC2qwHPCYAo/mc8yP1jjegjfFRB2SvjeXIVrv/Tx7L1tUOFRuq+IggIAz7a21U0TRvJ7NPaOYLxexWI+On4YOwDkaofWmj7z20oGqApbHuuddQIsjBfIOsjGXnow/AuiYY3J0jYyexMx1cguEeGuysmKFy/naTXNL2xGs8fXBibnZQtEqk9IOJaasaYlMVtdU14nygk+FQV9iI74hqJ5tMCtvzkiIwsW19PZZ+bZYIFi2X89MXkmHFsduP8ohFxfiH2UgdugwvXkgmCzq6k6m5groPKxRM8x4zjiUZWxTyUFwkI8100DSf81Q4aW7ZgPyCxbJGdsto2zI958NQIQy6ISM/UYW4qx2YrxL5comdFzaiMYV7ZiGctuJcJFBaJSNFSlt04xgTNj3SfnbKHXDS+b8b1exnPGiF9X29xUf8zAXmdHYvFguW+oWmBFOwcMdiBywHeP8ljFhUYEf9XE9LsViptAoWl1SgLy0ftRMlb00DjfSp1JQKFi+xUeQVcqycYnJvMznR81WRaX4PK1an3+TOdi9x9EcXzsIC7RMa3qfgrMO9iUdh6dxm7f9CB/Ct9J0lKdDVS4ejA9V4TVVd/08ZMTLTFSem2Mlrba1M+JynTSfe6GPwtzchdYTQtivrqFtz7C6h8MPNEqJ0NE9wu4ekSca7URZgyBeto2FwGJzJ1JaeGGi9D+t26fxoRQto1YhjvehdSSwA1OoB5nojz1w3UrxC+ekvTIe7Fle/EayzG+aSH59boQtTJbPSNwTo6GUCGLvrW0bm80IWoo5MB6ELU0ckAdCHq6GQAuhB1dDIAXYg6OhmALkQdnQxAF6KOTgagC1FHJwPQhaijkwHoQtTRyQB0IeroZAC6EHV0MgBdiDo6GYAuRB2dDEAXoo5OBqALUUcnA9CFqKOTAehC1NHJAC7+HKzBONqgYejk7jjaDAPGdM+G6z1Ox5kI0RnZ2G6YQ/GVKZqlHUba6UucPD7jOziWrsB17eggyt6dbFK+ACDrulI89y9I7UKUb4p4P0H1FEr/PzDnWCkTcr/Gszs11DORxNVxMwxYr8olb+bX9vLLmosUoob3pWfxCI/SuriPje7dGB/+CVJ+itH2H2frrpdp6AbbVUaikV7UGbfS+vN/RUxFzDOuoaK0lNKTPly+f+C6cnyQWTfYqb0qgrftZTryH/hGRRj+4EWqjgl4Hrl9gotA4ygHdlP9xt9Qr8hFmNGP0tuPfekv2L0ke3xkXwVn3qFyewfqTANZ5+NEMVKycDmeHxQhpFm4Tu2rzlguTohnOtjyyQLqH84h/MHLeHPLkFMVoXYc6Y878OY+gPzz27HNBNAIqhEKUk30mTmUzM0hqP43A9b5lE6gMrN1DqJ2EE9/NmWCNcWIvwo05EOHCWffNmHGVD94kco3YlSteBxpfkJ4WuQ4Qb4mEQKqegrVWMSOn6+gfIaG8uFrrHplF3XXCbTelo4dU/uqM54vIcQ46pkQ4cH/R+DtfXDDckyhAJLvU0pKcwj1auTlTlfvxPG/+TKNg7fT9vDtSQfFGim+IJZ+5Pc7aFZP0RnR0GZaKFt4F9KS/DFNtX46TkYouGEOk9541n0cP9dTf1363kIc9VAHW32dBM4ZsC++i/J+BSX/HjbcNJw5NYIfvIP74HEC52CW9VY2Li2j5Aog3k3jrg4CcQ1FjRO7yoerZT/MyMG59AHKrwQi+6h74xTFS396QYQAxpw5lCTZoRx8h8YDhwn0gyV3AbX330N5TpKpgyE8r7yPtvD72LrfplEJ0TPjGlbdX0ntDYap7UTDfzJE1nV2ygyJtLAtvAPH+wfxdPfAbQsSv4XSgfugSvCzv9M3aEQQliDdW5QoSFPxNeV0vbxIf7BGO0zjrp1UN+2gToWBk2/ieuFlms5DcO/LSB9Hpo+j/280fNjPstIySiYrCj47jPcMFN9chrS8AskGba+3sEUda4+KL2ScsrYLnjxFyJo/YY05Her+F6n4cyfG+XdRf++tsP9FXO8fJmQYEky8F0/Tszj2/x3b4nuov9eO9cxbuN44nLg/YtBIsa2QymsNhOJWKm+7lcqbC6m8uRD7UBR+XwfyFXY2LZys1tHwv7Ed8fVu8m6+i/p77Qihd3C9Ehh1EQy9nXg+VGl6cxfuc7NwLinDlf8vaIMp2Bk/ha87jl2YM1oQg2CaMZRIg720ffwplhvs1N5fQf33rmfg4E6q3+8dej69rymn62VG+jWisZCG6jl4X3oW93WPsntJ+n3DsHKQ9sE5uG1TNHeustPwSNLf+Rre908RPR8fbfaZ6Wq7FGrMyYjso+7NHkp+8BMabk7Yau3eR9PeaxCHLtUJvruTjZFbaX/0AYqHBjaETwI0fRwixAKEmbmIN+cSjuwlmruAdYuLGHVs82A3rYciCLZCiicpFrWTb1G9N06daxUbrkv4bg0FaPoghDoIeUPfC5/sJoiRdeJq6ucOlToL7Qk75Wns/ERF1nJw3JBUxZ7vRfkchGstib9nWKlesSLJslmED+yjfvg6r+l8hdTT9TLjy3ke6qAhtADpoS/RNyRO4GQPXDvcJJoY7bPDeHwHaD/TR8/5OAxqqOdzka4d/Z6geoqQ1T55bTdcY34//f6hcmAf8hW3IicVGNHzcbAKlM4Eznfi3h/CYr2etnffom3Iv9DJCGRnYxkxAvlkCGv+PeMzZu9xfJ8bKb1hMvviyPv/Ro/wANXXjfg+EI+D0Yh5xkg4n9qD+ablbJo75sdIwc5E/zCf0iQztJOH8A3mUjN3SJxaCO/efew41oN6Lp6IIwKlC5NvC53CV1JP18uNNLyPI7f9JzWKBuf7UeNGap49TOxcP1HDp4juEM/9WwXitDH20/WZRlZOLpNlPe3MO1S+EMC8+F5ql+dinWkgdGAnlcr1lF05Oq5pa7tpa8zJ7ZTVCNa585Nqql58J/spmH994n3dR5DP5yLmZydN2RgQ5pbRkL9gpIkXP4Wv20DJ8uvHvybyKSrZVFw1yQ83eIp2NU7Z95LiI0LHyQjW6/JHBkMGT9HRHaf03vnj+1rT2qnRNqp/CKAhHzxC1FqG41pAO85Gz4vIuWVsEm+n4AoD9Haw6s+fIt6QJPwpfE09XS8/0hCiAXvpSpqsb+N8GzyP3IH5w51Uf1ZG2/0LMBuMKd/OkzUDBuL/mOSphvftDlTb/yBw75zEdMNgL+1qL+b8e0aPqJ4/hS9kwH7H5Pc3KydPEbrWTnG6/cPBCKH+OHlzvztiWXeAHZ8YKbs/UYRon/cTmnk9Vd+/a+rplk9UOs7nUj1Rq2EGQJzYZFdcaxHUcwasOUkOfPI3ms4YcXx/zsh0TK+K75wV5w3jHZ3WzvjhRP/wjpH+odb9DvWKAecjt2MD1ANv4eF25BV3YRuy2f/BcdQrC0eLaFJf00jXy5C03DfnGFEOqdhK76UqN4Z8BGrEMkquzcV2VarD2zmU5eeAupfG7kTfQusP4fUdRBkEBiN0fqaNlNzne2l+pYUtZ6B07vWj5wHjGtFB6ItEiGoa2gSZOarFE5n5cy3x/1SZkYM124ByrBPlfJxoKMCmXfsIGq6/0D805uYgaMdpTrrfO/rJYZoP9Y6OKxJBHRxq1o7FOodSQwSv72DiptxBDfXYPjzHhvtdRswzNQInQ4lBlc8PI+3qIDx/KXVzRzJ7WO0meOXENcu0dn6i0qFlI1wZRzlzHO+7OylvCmAqXUn9TYlfXP2kl4HhQRs0gntbqd4fwZwvjBbRZL6mk66XIendBnXmvyndGae+ugJh/3YqTi7Bt7Io/WFnrZutLS3Uq/1gMKANGiheXEn78gWYiRN8czvL3g1BthEjOVQuzKVjbwTXTx+lOnm4nn7aXnuB6g9ChAdBvP9xdt+RM/pVoQ5cLW/hjcThCju7f/6vKTSfE0TVt3C+9A7yOQNC/q1UXXkc97kygmtuH2oK9yO//gKuvSE0YzbGuIZmzMW1dDX1NycVTP2dbGzajSfUT3QCO9UPd+J87SDBuAEjcbKyFyCtXkX1tQBxgu8+j0PuRjMaGdCguOgB3MvtQ3OviTDel/43tYZKlIcnWjk0tZ3q+9uxv9GNBhiN2RRft4DK0rtYNz/nQlzRIy8jtgRQDdmYgcKFt2L+eB/c/wuaFia9cVJf00nXy49v9Fo27fNeVM2AJSdn3FKq4WezcnOSBiS+GbQ4GOlGcj9PsPTx8ZPbWgQlooExB1vOlyzb4xrqZ/0wMxthojjORVA+j2PJySXvy1YfF2unFkGJxLFcxNK3TErXTEK/H3EyIodpPmNCnGsljwjeN1qoDRXidd0z6u54HZ1LgZ6lJkH7TOW51wNUf56oQUptt9O8ukwXoc5Xgl4j6uhkAHorXUcnA9CFqKOTAehC/DZx1E1FkZPm8NTBos9XYlkk4U9j2vSSEA8i3Wmn7i/a1/zibz/fkBAVtt5tQXxanTSE2r4V132FWK+xYBXsiGvdBPsnDX7J8a8vxGQyYfru0Pt/LNH80ZfJYNP7mhpR2p5qpG/FJqrSXr2eGv71hViqmhM79L8MhmJqHiugdfM2lEtp2GVARtaI0V01VDg9RO+uxyt30P4HicrsEOrA12uH8ZZaWn0dtP9hIxV4qV1WSeNHX68NFzi9g0ZvHqt+VPwNGZAaeQ+5qDjhZtsevVZMh7SFGG6XqFxkxXKNQOlaN1t/ZMX6WFtSiCj+Z2uoWGTFYrEglDiR2ofaUvEg0m0mTCY70l5tpNYxWXG9yoUwDU82weoGdjzhoOQWG8V3O6htlHBcPfwODeWFOioWCUPvqETapY6xVKWx3IL4pJfm9RXY8y1YrALiFv/0dg6TZUG4xUbx3VVs+P0ONhX42PKU90KNEW7fiusHpRTmW7BcI2B/uA7PcK2Ziq9DNlTeWYhwjQWLYKdinRv/BFVS+FUvvhsrEOeNf6Z1NVNXnmg9FN5Xx44jo0UwpZ2AXCtgMpkQn1bRdrmwmkyYTCYK1/tTjuMC2SLld/bRttOHLsXUSU+IJ9y41rrRVnjo2N9GfVE7ntdG5xrlaSeOZ/so/007gYMBmtdZ8K6tStQkhmKk/TFisQDSEiMlT3USi8WIxUJ4HhyK4Ggb8lEz4kPipOsPtT2bWFUrk/d4M4EDHXic4FnrZOuH48Mqz2+hddYGWpUeev7qpW6JeXo7J8JgQ7y/gIH3ZAJDfa++szGElRKe9gCKz4t0U4CNVZuQtRR9RSP0RR7LNnho8ykEXt2CeLqeqsfHNg81fO8FyCoqpmDsPGY8SP2aatqursXrC9Bam0XTdnmUCKa0ExAbVWKxGPLPBIwPeQjFYsRiMTqfKkk5jhGMFN9mI+TzJ9bO6qREWtPTys4mfLku2n5djs0Atp9twdUk0zAcIC6z7ZlOyjcHqX0wkeGFRyVqd9lw71KovSWFecnuECpWKvInlSHyC62od0vIj5ZgBoS6BupeseP+o58NSZkHYKComsY6MbE2NLsYx+wvb6c1bxZEewhrQDbYVktISc8dG1x4/suNfAjEhdO7Cnk4fpUcQzm1PxFp+IWPQLwqaU1sCLV7gFl3zhpfOO3dQfOxYqpfqKZkHjBPQvqLl8o9I0Eu3s704rDOtsJpFRUm3JOoM560akRVUaDAPrK6xCAwas7/dBAlHKb5R9ahZpgJk0mgpl0jFApdIpNDdJ2IItxcmLTYXKDAlkXoWOe4gYaCxfbxexUvkZ1aVzMbqxLNNZPJhCm/hjYtipbGoFL4wqBUwg5LVTPR/r4xzToNTYMs0/jvR1WV0HcKKbhx+BMjhbcIl9zOdOIwGowwEGNArxFT5pIP1sQMNja8Fxtqho38UxvF1CLItyIQQu2+ND0MoynrktkZCveAeVZi0fVQk7A9u5qmv/Ykvh/yUJ7OWuqjblw/fo7ow8/hOz5kw59dmIHR41IWzBaI9vVN5uXomtKQvFH3EtiZZhzRSBSutmDWlwOmTFpCtNlscLQzcaAvQFxFOZIUIK8Y+9Uqfp86TUzGoQOJJxDbvHLEeVHk1ybr7FspuDEL9ePk2k+lSxnAOrcwtS1ZKduZRFxBbusi604RuwE4GyB4TMDxmIvi4e0QXZ0T9Ium8PUjHwFjBetqRIShDR3qoU7GDw7nYb/ZSuiQytgpRLMgYP1CRT078pl6JMmvlO0kIeB/xMZ/nk4cgKIoYCumUBdiyqQlRGGFk9JuD9J/yCinVfzPSXgOJWUwo8i6daUENrvY2OJHPa2i7G3D84SLrXuSY7Ii5Geh7GkneDbR7LqAoZiaJxzwfA2rtnjxf6QQ3OPFvX4r3rMARsSVq7DuaaR2e+IdckMdDR8WUOUc3T+clFTtHOhD/UghuKeZrWtXIXWVsumXyxJiNwsIeT349yiJAiMapHGzZ4LMOYWv8woRvggg700UKVqXB2lbcMICqHhZOdYDMr6xTcElq6i6qQPPM/5EwXSimed2KiNxpGwnCIIVDsi0Ho0m7IynHwcoyO/1UbpUTP+wrsuY9JqmN1bj+YMLY7OTskUitQdEXEvNoxpGtromvE8UEnyqCnuRHXGNRPNpAVt+ckRGlq2vp7LPzTLBgsWSPKQPeQ+52f1HF+a2jTjEMsQfSzSdNSMMtTKN922h9bci4d85sBfZcf1fcG5rYuPi1F1JxU7to0YqS8sQf1zP7vgy3K83UTu8CdYoIj1Th7mpHJutEPtyiZ4VNYjjmmtT+HpLLdt+Y8P3aDFCkR3xl0HEtY4JM7DxbidVuTKtr4/pBRuK2bi9EfteF8XzC7Gv2Y2wrGQkRVK2E/JWS0glClKpFYvFROGv/WnHwUdeWo+KVP1QmPzH1xnHRe6+iOJ5WMBdIuPblNkTzf8MhJ93IraI7H6lOkNP0NaQa8uo+46bjs0ll/3xF+mQ7nUx+FuakbvCaFoU9dUtuPcXUPmgLsKvg7zV9TQsNxI+O33Yb4S4SnR+Le4NugjTJc0aMYx3vQupJYAaHcA8T8T56wbqVwhfvaU6Ov/E6BuDdXQygIxc9K2jc7mhC1FHJwPQhaijkwHoQtTRyQB0IeroZACTCtFgMKBp+tZOHZ2vg0mnL86ePUtPTw/xuL6XRUfnq2ZSIero6Hx96H1EHZ0MQBeijk4GoAtRRycD0IWoo5MB/H9iN7o+cpg+6gAAAABJRU5ErkJggg==;fillColor=#FFE45E;strokeColor=#FF6392;fontColor=#5AA9E6;rounded=1;labelBorderColor=default;imageBorder=default;" vertex="1" parent="1">
          <mxGeometry x="288" y="321" width="226" height="206" as="geometry" />
        </mxCell>
        <mxCell id="7bl6Vf3JTjFMhsMhAHnB-12" style="edgeStyle=orthogonalEdgeStyle;rounded=1;orthogonalLoop=1;jettySize=auto;html=1;exitX=1;exitY=0.75;exitDx=0;exitDy=0;entryX=1;entryY=0.25;entryDx=0;entryDy=0;labelBackgroundColor=none;strokeColor=#FF6392;fontColor=default;" edge="1" parent="1" source="7bl6Vf3JTjFMhsMhAHnB-5" target="7bl6Vf3JTjFMhsMhAHnB-6">
          <mxGeometry relative="1" as="geometry">
            <Array as="points">
              <mxPoint x="720" y="831" />
              <mxPoint x="720" y="980" />
            </Array>
          </mxGeometry>
        </mxCell>
        <mxCell id="7bl6Vf3JTjFMhsMhAHnB-5" value="" style="shape=image;verticalLabelPosition=bottom;labelBackgroundColor=none;verticalAlign=top;aspect=fixed;imageAspect=0;image=data:image/png,iVBORw0KGgoAAAANSUhEUgAAAgkAAAFiCAYAAAB8uUv8AAAABHNCSVQICAgIfAhkiAAAABl0RVh0U29mdHdhcmUAZ25vbWUtc2NyZWVuc2hvdO8Dvz4AAAAtdEVYdENyZWF0aW9uIFRpbWUARnJpIDI0IE1hciAyMDIzIDAzOjA4OjIyIFBNIEVTVBg3MgUAACAASURBVHic7L1/XJRluvj/PjCHGUjAUZBxoZwgYwY1mGobzCNOX1fBlWSRTdA625j7Ddz9rBx2V6UfdmbLyh91WPKU0PdlTrulWBEHxQ3S1lEOyVQuTCUMueCYkIxiOEAwwwfZ7x/DjwEH5ada+7xfL18vee77ue/rfuZ5nvt6rvu6r+tf/vGPf/wDAQEBAQEBAYFBiIYquHjxIufOnaOrq+t6yiMgICAgICBwkzCkknDu3DlCQkKQSCTXUx4BAQEBAQGBmwSPoQq6uroEBUFAQEBAQOCfmCGVBAEBAQEBAYF/bgQlQUBAQEBAQMAtgpIgICAgICAg4BZBSRAQEBAQEBBwi6AkCAgICAgICLhFUBIEBAQEBAQE3DIiJcH6RiJSb2+8vb3xjtJhvFnjLHUZyFBI0b5vH9dmi1NlyH5dfGXBR2uRh6yl+Ga9HiPA9pGORLUcmVTKktet49fwqVxOzImgNCKC0jmrOPv1Veq2FnFStZha00g7cXA+Q8Xx/zSOQdDrg/3NVZQtz6XtRgsyVs5vJXq7N95bvfHeriG7+Sp1HftIeVlFZv0Ey9RlYusCFRkfXeP5r8lGE6ghu3aC5XGHVU+i1PkulS7YinlUjThoe3cDJ2JUzufqkT3YAS4bOfVAz7MWEcEXBa1XaaOesytVVLxeN+Le7W+vpiwhm7bLoxL+5uHyMWrmqThZcqMFwXlP9t4X8Tm4ewNb30lBGZ+D5TqJNCIlIeixApo7OmjMjUOIoOCCTE1Ksprpoz3/oBaZ/GZQMqzszcrGPDsb07lmPng86Ioane+mUbZiN+2DCwa9mPr+zVnF2QZgZir3fFHF/KJ0Jg0ZwqsHrxD8ly3iFuk4DcsNl55fTNmv87nikrfm88WcCEoXbeaSo+fY5WpOx6s4sXPkL9KbgsuV1C5SU31kAtqetpHy9R10/HIL6mu9TTzlaJQJzL1llH19pyfxZRW6b65ezbpHx05vLekLJ+gtNV7PqygS3WcdNB/diMJdeV0uFfem8c1Qc3z7Mc6+dBSvX+WjNhqZu2uV873sqWbmkSrmf7GHHwWLryGEP7fExCOd6TeWkVyV7sMbKFNvoun7rkyMF1f7XcPTMTR3UPFM5JCnBy1/guQL2Ww9aJs4GV241utaYDjM0rLl5RstxDjQ1UhjI8iXRRM0yverJCWb8BUh/dqnpy8S2QgbEUcR8oeo0QkwHoiAxgOcM6QzOdb3xsnxQ0OkJu2n6onto8uMPvc4qtQc5BPb042nqR57ZwjS+0LxGvVt6suUtc8xZTzlEphYRJGkpASh2bkX3dI0rvyUG1/G3SfBWrIVbXw0yhAp0kA5qp9loD/Zb/azvr4EqXorpj4t3MzWeVKWvGZx/tmzVJDyop6MOBVymQz5vLXoawZ11GZCvyGR6DtkSANlKBdqyT46ULOyN5Sg+5kKWaDUfRvXGstBHYlRMqSBcqLXZGMabBs+moHSt2f5ZajlhqvIaX8nxbl88/N92Kx6En3Han4cK3boAskYVEePwDD8FEom9f6bGYLIc5gnXz7ESVWvFcL9ckP310WceiSGMpUK48pN1P9xNWVx22lx/UrpqqXx2VUY71VRFrOKU4eb+oq+fUrtNMG+XU/3kU0c77F4GJ+vdGnAF7+YMC69ewC3BmtzNidUq6l3sQVeejaGsnVFdANtO+IpW5HGyXg1ZXHpnH17MyfmqTi+fDvfun49XK6n+aXVfHqvirKYJE6+UTnQstFezTfPrubTeSpKVWo+/eVmGuscrjVoeWkxZb/cTVPeJioeUFGqUmH85e4RL2PYbVasVpv78Y6VrkK0vUsSW4dYbvjOwNb8aJRZUqQvy1HuTiH76x5pmnNYst0b7/9eS3GXma1/7l3eSET/3aB2qvIo+EpF7EI3r842EzlrNCgDpchmLyHzQ8sgOc3o0xPRzHYut8lma9BuN2Dt+VGG9bzWFpL5sAbVHTKkUhnKeSno9g/qZ6yYs51Ld3HbaXNUczY+YuByw7Boon51v8XP3XLDsJ61y6205PUsedy7GNMOY9893L0/jdKICOdz0ZpPde9y4/LcKy2RVxurahW1b2/HFB9D2b1qPl23m5a+BtwsMTbtwaSK5/SXveNUcSI1nRPzVBh/mUv9H1dzXKXi08yiAder+6s9VC/vGe/qzZwftCTaWZpL9YoYyuZEUPZAEtVvGOkcUMO5dHPij4dofH41n6pVlN4bw4kdlYw3isVLkBsLKWgY96avYNyVhOaLHchX6NCXVGAuL0R3ZwWZyU9gGNHbx07J/5iI3VWBxVKOLuQDMp/dR78KYEGvTSDzqIy0XQYqKsvR/1pJc0PzgDYMu/bivVZP+Ud7SZEUDGrjGtTmoF2jx56cx/HPitmiMLDzL4POXpBFdWsHHUXaIbS5q8spWZFHc0cHHe8l4x+kpaC1g46Oq5gf3XBuvYQDs9z/+/C54c7O/di7ANHQZgQPv0AkMr+J8Xj1XMSsiirmG7cxxZ2V9HI1Z/5jE023rEaZf4BZj/txca+R7kHVukr20ByWzqx39hA2v4XGZ7P5tmdunfK8kflVVcx5OASPB55jblUV86uqUD810HIhiV3F5K/yaTw1uqF0twQS9Mor/MjnEJZ8X8L+nE1A5x7OHenXErpPFdHYFE/4+weYszEC+451nDrcW97EN+tTOXM6ihmvHeDHhXpuva2C2nWv9C+D9LbzxW7OnlAS9m45844dIDwlYpCJUIxnSAhePkPLW/JbBXKFlryLoxvvVREloF/fQcd/6Elwq4DaKT6iJastjqxHzJh/WYxercGfnoFK0/hgfQcd/2cncSIFG/+9g46NHXSsL0A7aOnCWm6kJigS1RUPpB3DUyk8YVKiK6mg/E9abG/pB/pVdTViE2vIeLWQ8i/NGF5NxL4rBe0bFmCYz6vtHEStJesdAxVflqNPlVK4JgXd56O4bmJfvIIDrzT3KtKdS3fF65kkVnJrkfMenv/WqhEsAwcQsruK+VUfIo9087AN81nrbjiA9Ss1Yfp85vxeif315zj7pbPMY1kO86uqmPdKPB6+SSi/6JHz/VSuciteSVclTZ+FMjP/GPOKN+NX/Qqn3x2ZY0unTwzhueuQVGZzrnkVkXotosN7uNA3yTq4lHcI7ww99+TnEOT1Iad+n9vnb9Ft2s4Xvz8Ay7cTWfwhkc/H0/XnddS82zSoJwf2d7O5OD2NOUfKmXswl1ujBi3lDPW7joSwSFS3VFBunBC1fgDjvtygWKVD5/J3wkYt+t05GL4CzV3DbUVC5CPpxAUDyElMiCbjhQrMXcmoRcDf9GR/JCPto51o73aeIV++EfWgNuQP69gYqwAieeLRueRuc2njGpjfz6NclkLxeg0KESgydGjfM5Az3CEwXDnHho/6MsFDjOdfI0eSBdyO9WgBBqucuNn+Q9YSxT7HPbFDt9K+I57SHS4HYrcxLyt+fJQKUxHnT4cS8sfVTLkNCF3HrUsPcPLjQfXmrCLsYTVewKQ1D3LuLx/S0gBTQkfQl3QB02NfoWavkdueGvl6rcedaqaEqvFQ+tIoimZyaBSdM+Fs4wWgxzbso+bWjUn4SYHbNnDr4Q85tf8oXT+JR2R+m3Mfh3FrcTrTeiY82e/TaH7gOS5Urmey600kiib4mVX4+QKEMPknIQOF8VQi350/4jFcPxw0ttqQBmrQBAYhIYggf8WonhOLpRFC4gga/EzYDejzG4l9YQvJd/sDcrb8roCC1Mb+OhIN6ds0/X8Hp5OxLIeEoybsj8uHNwHfncaWu/v/lP8inZRdczGUW+GuERqGg1cxq3Bkp4wbw33WvKIJ3pjEZB9gxmoCdq2mrboVZo/nMl0IAWuS8BED4kVMvc+Lmi+r6SZk2O8Vn3sXMEl5AT+ZmPb7YvCZ7cck34N0WoGe5VDJQxuQzw8FQpH/PomLKw5w4VQqkxStnN/1Hl1LXyE8Re3sM3g1t68owvSXD7E/NEg5U65i5mPO9w8+yr7nt4/x+F1F0wkKcmA4Y4Fhf1KOsqvxbtBesw/dM1kUltVgudij5YjkhI/Q/ikL7l/I9p8kAbuDjp6/bV+asPirrql0yGfI+9uY7D+gjWth+bsZwtei6L1ConBUI/wthivnWPD/+f/l7p+PsZGuQrQhKeyzSVA8vpeMu699ylBc4ZPgO/wH+Vp0namlyycC7+DeI2Im3RmGx6AXl+i2MOcDCuDniwcO/jHQLjgMfJm8IgnRmj00/SptxLJ6iHu+zsRiPDzFgBgPkRc4+s0AHjIlPn36hy8+d4bAoQbsgKS6mnaHkdMPRHB6QMtipjQ5gP6vP4/blT0KwuhJ2NVMx66xtTF6/FlyVwJbi1NQXdAQF6wiMjSZlNBhTswudDjsIBLjPbigoQaLQ47GRQH2V6iQiz5wqWTDuCMT3a4PqDhjxdbz+pIsbcYBw5PFZkL/rI6cwuPUWG1OyxwS1PHNMOGrx+PHcJ81j8BQJL23oqcfnr7Q3W6jTxEeD0QBiANd/hSLodUxdH03eHiJwVPMv3h59TybYjxEdrr6PsTF+IS6fEXcFoEEPe1nHDCznu++aqXz8GrK8gY1HHqBzssg8exvx2u2qv/9M1GIxHiLwD7xhoRxVhK6TGz5RRols7PIO5FCZJAEbPtIvEN3lXPcH772AzmMGmMdncj1Vcwor9bE7gNpzvtXak/8i5uSf/Cv918mMnGwgdANogT0jc1sLdGR8MgTZD0ah26UioLTJ2Ekn+zXidF4os9MYvqdb3DuYDyTrlF1qKt8hYI0Ag9vD2kSymPPMeVaq0aSCVr+uY4EzdJTcZsJQ52BcksBuvws9PMMGO4fmWYuC/CHchvup2TxwGd40HW1vZNKwlYbabsM5C2U4y8C45Mq4qqG27sdwzMpZHwWh75QT+wsfyRYyF6oomBEo/ge4Xk9gu1ca4fGICZkF4WYSRsPoHo05Jo1+z4QJpIuG802kE6dwC1gPYzq9xWLxGC3X/lVfrECU52chF9rnQoCQE01FpcXtEQiAUezi8NII40j3I7vPzsSue04hmE/vCNHrlCAxeKyF7URi2XI6m4Zvpzeo5vEAPsJT879xcPNP0+sX7pTHoZCQtDCRDRBFkxfTuDWGrEX4ODyyD4EABDNCEPUXkuHyzpi21e1Q07QV2+MYVzzAKalLKD9/XzaXev6+OFBC//oG0MrnU2tI5aju7Ga9pb+Ntq/qoeQYCSASKnEq70C2yh9IkaK/aIVa8MYHBc9wBs79v87ehkkvpHERaajSzCwTzUdU61h4F7wnreV/Sq/m/wuBeIz1dQMHkhwOMpbLFgs/QX2eguNLm2ZPzPhmKclM9apIIANS62FKxnqebVg/KyR6JR0Emb5Oz8P7GbMNyIOAwBi8IRux8gftnF91jyd508MYjzETgtdn2zNFxix4RAH7XUuzptfV2EnGJ8ZYvAM4ZY7wX6ichTtThC2amqsMiJnD2WdsmOzWrHaxm5qGJWSIIlUEX6xhH3vm7Fabdh6lxL85ciDzmE8ana+bGwmsl/QD1AS/KMiCW8wUPCJHbBj/lMOBSN1lrpbS/rCRnLWrkX/sRlrgwXTwRy2vm8ZzXDcoliWQvSZPHIPOjUYa0k2+k9GeMGHK6dcjtxRTkmJBbvdPiKFYfp2Ow+edP9v8aaRq9QSEbjY4MYfWQSTJtdx8f1jtFub6GwewcsjMp5pt1fzzdbdXPq6ifbSHM6WXC1QzNBIZgRD9THO17XS7WDIrw/R/FVMaz/Gpa9d5AxyjqGpuI5uoOvLPViNo3gJOow0vFRES0M9LQe3cdYgJmDZAufHriKJ4Psv8M3GTdQb67A31NFSms/pzO2cv1rAolFSskGBfPYYHBd9I4kU11DweTGWViu2jpHcQ1YKS3Xo/27C0mrFer6Qgq8tyKYqkLlWE8uRiy2U/92ItdPuVlmQ/NsSNBg5/rfBBRqSk6QUv56L2Q7YzeTuLBgQrEZ+hxzxSQOGnoPW/Tqy/upmHEM+r9NR3OFPdbnB+c7rsmF4YcvI32/jhWcIvkov2kryufR108gU2XF81jxCgpF0VnLxSD1dDgfd4/ylP2lOGN0nivi2Cbhcz3n9wasqkkNhf3cblo/rsNcZOftSPvaZDxKkAPBlmnYVotJtVO84RMvX9bSbjZx/czM1b1aP72CGK2uZgYqpccQNZfG9mIdWIUfx27FHiBqdpWhWGtlPhlP+27nI5TKin+3ZfiLRoHs1A/+8OBQKJaqf6ji3fC0aV4v7XRls+e10ClfIkUfFoavXkBgxUgHkaPWFbJnXSM4vNCiioknZVo5kPE0vYWnocxOw/KcauUJJwv/nT+xCV4c+C9lxUuf2x3g91ou9W6KkaLIsI5NzlpYtv5FjSFUhlUqRLrxRWyAlILr6l9qY8VQz49lViA6nc+KBGIxr9H3boVpeWuzcIqXewLeOer5Z2bNlKrUn6JGnkhl/fI4ptt2cXLoI044mpj4UhccoloEkS9O5LaqWM0lqylQRGLcMsU1JHMX0h5SDjqm59akkeCuJ4zGL+eJNL6bEBIz4YfIIjWeaXz7VCYv54oUqJP/xCmE/6V3LDeFH2/Xcft8FrOuT+DQuiZPP59PuG4rPiFzDrxMiDRlx6Ui/0qJ8TY58b3bfPWz6q8q5ZfGPWgq7zGS/7dzCKN2n79ltJMG/24z+cALROQoUb+swBb5I3kLNwMU6Dw3pD2jxNiegyJIizXKzBdI/AW0CFOYbBllFJGj+kIcuuIBEhRxldBrmu+KIdLl3gn6RRfZCCxlqOcooFcmFcrSr3Cx3DPm8+pPwQg4p32WjuUOJKjqBHJEW7X1juK5jwpdpv9/EtO/e5mRcDMYH1tHYq2CW9m7/XYzF5KDtj/HOZ+3eDc6gR+P4rDHzYW5/NJiWpx7kuEpF2UMj2AI5DCSJm7hNWcWpODXG5ZtonbMIvxHLKWZySgwdW1dyIimNbzoXMzOrfxeGx93rmfPKw3h9vJ2TCYupeHQ9Z0tbEIcGXrXVicFGSaEB6fKUgXOrK23OJTd5sGyICsPnX/7xj3+4dYGvrKxEoZhYr0mBmw0rOfEKsoP0GF5NGHVApetJ284kTGVJ3DOi7V8CP2hqslmScBxtWR7JU2+0MENg1ZM4O4doQzkbZ91oYYaH8KxdP8wvRjO3TIu5yE2wpDM5LIk1kPxRHtpgd2eD7Z0Uwtc52HKiYMg6w+X77u8kMK4EsTIjHcWX6UROH+fcDeOEvTSf83+ro7PdQdepfM6+X8+kJTHCS0ugn/BUsl6YC2eug+v3mDCx5d+kyBZm3yDL4dURnrUbQG02S2RS5m4bOnGNrUFC3MtbrjL52zl+tJzpv8gkZYwKAgiWBIHvGe0FG6h+7Sj2xlaQhjL5oQ2E/SrGZQuSgIDAeCA8awLwz6gkdJnZ94yeiqt5SP9MR9r9gr4sICAgMDG0cuntHC5Yhnb49YhIIixROWS5wPXhn09JEBAQEBAQEBgWgk+CgICAgICAgFsEJWG0dBvJ/O/ezHZSUkxXCUDk2EfKy0NkvxtX7Bh+pyL62aGdXgCoyUYTqCH7RgR5sepJlI5ftsvOd9OuzEx3M9BlJHN2T4bQwBQK3fnQ1eawZLaWfTeff6iAgIAAMFol4XIltYvUVB8ZdLw5ny9604Gq1BgTVlPzhhH7KF7g3Yc3UKbe5NyzOwaa1qv5dOv4p+rEQ82W/9NBx3oD6dcKU+4pR6NMYO4t16g3JGa2viFFU265erWaXHT54WSkRo62o6tzUU9ioArd4EA1I0UUie6zq2S7rMul4t40vhld7JZhcen5xZT9On+0gS6dDPUcAIjUbPmyg47iNORDnR+mJX2BkS3ZxolJ0SwgICAwRibAkiBm8lP5qPbmErYyDPuu1ZieOnTzhLO8EYjUpP1UR8KEhtm2Y3g9B8tCLQnfnzwy/+RIiHs0AfbspGQCI2ELCAgIjJYJWW7wCFAySRFFQMrTzPpDPN0Hs2nojUH/dRG161bxaYyK0jkqjiekUVtS3xcutHt/GqUREZStK6K7NZ/qXsvE8oFRujpLc6leEUPZnAjKHkii+g3jqBQRu82K1TqGmPVXo6sQ7fbeJYkhlhu+M7A1PxpllhTpy3KUu1PI/rpHmm4Tuted5+ou2DEeVfa0JUM72E5vL6fwYDOapXOv3MfcZiJnjQZloBTZ7CVkfmgZJKcZfXoimtlyZFIpstkatNsNWHs/s8/ksETqjXfIWorbzGyd12NGlyaivzjMNsaJ7roiTj0SQ5lKhXHFJqxnBnpHd5ZmU/1IPEa1ilKVmk9/uZlvzP11vn1KTWlEBF+8XU/3kd6ocxEYn3e1NrVy6c0NVCxSU9Zzj54+Mjhv/DhxdxwaSTF7BS1BQEDgJmSUSoIYz5AQvIYRHlZ0fwx+ojpaPul5yba0gDKJsNfy+fHhfJSP+PFtZhpneiY9j2U5zK+qYt4r8Xj4JqH8oor5VVXMf78/RGa3aTtf/P4ALN9OZPGHRD4fT9ef11Hz7pUvco+AELykQ2flKvmtArliDDHrr4YoAf36Djr+Q0+C2zChdoqPaMlqiyPrETPmXxajV2vw702G4hGJ7vEOOjZWoAuUoF5QTcfGDjo2NqIfbKevNXL8ogLVLP8r+jA8lcITJiW6kgrK/6TF9pYeo+vk3dWITawh49VCyr80Y3g1EfuuFLRvWJzlM9L4oLmDjvqdxE1SsLGsg46ODjqaC9BOHWYbI0Hsi1dw4JVJNy9XcyZjE9/6r2ZW4QFmPe5H07vGAfHou5o6kSRsQPnWAX5cqGfG7RWcXruZb3su6ZTnjcyvqmLOwyF4PPAcc6uc95f6qai+NtreSKX6rRYCntRzT7HzHm3KTMVyRbKl4T8HQyJSER3pwGSsGEMjAgICAhPD6JIpeyqR784fXl1xIF6Tof3cBSAAZq8ibHZ/seShNAL3JmE70QSKgGE02Mr5Xe/RtfQVwlPUTi0neDW3ryjC9JcPsT80MGTolI35TBn2wK43DhpbbUgDNWgCg5AQRJC/AvVomrJYsCBDNjjClt2APr+R2Be2kHy3PyBny+8KKEht7K8j0ZC+TdP/d3A6GctySDhqwv64fHgR1sajjb5zVzGr0M1xUz7nvw7lRztWM/k24LZ1zCg9wEljfxWfxPXc7ipW6iqs7+3GdhqmDGdH72Uj5/S1+G08zK0POJ1NJA9tILhkEeeKq5HPdNm3PZLnYEj8CZL503jGgg0YrOIJCAgI3EhGpySMhdZqvnlpGw1HKrE39ZuBfb5rAYahJFyu57uvWuk8vJqyvEFloRfovMyIIoIl7GqmY9fw648v/iy5K4GtxSmoLmiIC1YRGZpMSugIJ1XAfrkDBxJnFkdXGmqwOORoZvdPP/4KFXLRBy6VbBh3ZKLb9QEVZ6z0ZheVLG3GAcOUZTzauDpdZ+rp9IrAu08REuNzZxgeLkpCd10Rp7fupqmyms4+x8cQfIabUaahirbmVtrWqyldP7BIFNzi/pwx4i32BrsdO4KSICAgcHMx8UqC4wKdl8BreiDg4NuXUjlduZiZu14hYKYvHtRzdsWDnB/RLgYxkzYeQPVoyAQJff0ImqWn4jYThjoD5ZYCdPlZ6OcZMNw/skBWEn8pMiw023AzI4sH/tKDlCjbO6kkbLWRtstA3kI5/iIwPqkirmr4/Y9HG8PBQzRwjczDdSyXqzmzbhPfKp9GuT8evyAxtObzRUz28FPkAohCCdlbxO2zr1117NhpvtiMeOp0QUEQEBC46ZjwOAldHx+jpSsUv3sCgAZavmjFZ7mWaTN9nZ076mhvcBOa0xPA3fEQbrkT7Ccqx2XHhP2iFWvDWBwXnV/vjq4xtOAbSVxkOroEA/tU0zHVGrAM7uNfgO6r9KGIRIEZ8+DYB8HhKG+xYLH0n2uvt9Do4pNg/syEY56WzFjn5A42LLUWrqBH0XCXSnrYbYwB0YwwRO312Jv7j9nPNPQrAM0VtDQEMuXRJKeCAFBX5z71tQjc7n8MisDHt4GWExMe1KIHCzV/d6CYHT6ktcV+0elcKyAgIHC9mRAlobupmjZzJU15mzn5n0V4LE0nWAEQiM8ML+yf9MROuNzEtztyaHJjxfUICUbSWcnFI/V0ORx091kafJmmXYWodBvVOw7R8nU97WYj59/cTM2b1SOWtWSDAvnsMTgueshRBfpzvEqPsdmK9buRKBxWCkt16P9uwtJqxXq+kIKvLcimKhiYBVyG3E+M+XQJpg67+0kvSEPsPc2Ulw3a9iDRkJwkpfj1XMx2wG4md2cBrvF75HfIEZ80YOg5aN2vI+uvbkZxixz5VAvlRUasbQPlGHYbYyEynmm3VXJOX0kX0N2Qz9mDLpO5bxg+ky/Q9nGdU3ForebsjvfcxumQzAiG6mOcr2ul2wH01hGrCdYqaXttA7X7K2lvqKftb4eof2kDlo/HdzgAWMsx1MjRLBzKcmQme7kC+cIXBzqbCggICFwHJkBJcHDp+SQqVq6mdm8tkjU5RD6/CC8AfJmWuZlpjlwqYmIwLk3lnCge2Ww3uw9mPsztjwbT8tSDHFepKHuofwukx93rmfPKw3h9vJ2TCYupeHQ9Z0tbEIcGjv9wrok/CZpsVnbpiXtdjvw1LXnfOUtMf1U5tyz+UUthl5nst53bIaX79Di/CyX4d5vRH04gOkeB4m0dpsAXyVuoGfRVKSF2/hYSHTnE/rcU6ctutkAiJ/EXGiz/UzgoiqEEzR/y0AUXkKiQo4xOw3xXHJEuyw9Bv8gie6GFDLUcZZSK5EI52lVuJi2RhvQXtHi/n4BiuhRpYP8WyGG3MRY8lczIeg6/yg18Oi+GE785hs8DUf03sVjNjC1piPZrMcYs5tNHttEZu4rJbm4vydJ0bouq5UySmjJVBMYt/VsgJz2Wy6x1YbS9lkpF3IOY/iObiw2B+EzA6pb1A8EzIQAAIABJREFUYCHHZ2lJuXuICl0OOr6zIwmaTtD19yASEBD4J0dI8PRDwm4kc0EajheOk7XwJs1iadWTODuHaEM5G2fdaGGuA0czUP78HFvO5pEw+CfpMqFbkIL1yXJ2Lh3CI+FMNkuisgh604R+meC1ICAgcH0Rcjf8kJCoeWJHOvLvLDdakmtgYsu/SZEtzB5z7oabli4junulSH+mxzKUt4H1HLJHd6IbSkEAbGXHqbhrLZk/FRQEAQGB649gSRAQEBAQEBBwi2BJEBAQEBAQEHCLoCQICAgICAgIuEVQEgQEBAQEBATcIigJPyBaXlpMWWq+2xhBAv/MWMiOk6LJstxoQQQEBL5njE5JuFxJ7SI11UcGH6/mdHxPaueIiP5U0PvrRhYWd5zoPryBMvUmmkYU8nl4tL+xitKYTX3ZBXtp+WM8pYs2c2kC+rwWXnMWEXB/2IRqfp3vplG2YjfDTYXQR2+6aW/nP6lMjio+A/3fbkwkQeMGJdLkfYx/7zb2JcuQPTy4bQs5cVLka4onJi35VZESuVDLkgjv696zgIDA95sJmU8kD2WjKirinvd3E/YTB+efWseZLyeipxuHz/wF+LQaaR6QPrgem7EBr/sX4TeCJFPjhSR2PeGPRt3E5qEgknMrqKis4PhfckidWkzGqkyK2260XOOJP5rYuTjKDBx31QZsRgyVYjSxc8cl2dWIZVqfxcbYoOves4CAwPebiZlPpCFMCg3FZ2YU0x5Pwk9UR1t1U0+hg7aCzZji1JTNUXE8Po3akkFx8puMWDKSMN4bQem9MVRk7qal1bWCg7aCTX1tlMXEY/rPor6v2+79aZRGRFC2roju1nyq5/RYNpbnunwBt3LpzQ1ULOqRIyGN00eaGEBrESdVMZzaf4jTqfEcV0VQNi+eU0daITSGKcEXaPnERfZmI5dOeTFZ0z9Rd5bmUr0ihrI5EZQ9kET1G8ZBOSfqObtSxYk/HqLx+dV8qlZRem8MJ3b0RgC8+lgB2nbE91tv3C03XK7n/EtpfDpPRalKzaerN/HNKRcTiDmbE6pV1L69HVN8DGX3qvl03W5aRmwuAOw2rNb+LJCDkQYrUIQrUNwdR9pjccis1Zga+k7GvCeDJVFypFIpcnUiuv2WgQ1YDWx9VINSJkUaokSTmoPR9ZO9y0LhM4lE3yFFGihDHqVB+7qpr9iQLsfb2xvNDgv2/VpkPZYN5QaXVJLYML62liVRsh45UtCVuAayBj5ai1ymRf9RNtoFSmRSKbIoLfsaIGihhujvyjF87nJZyg2Uo0GzsD/egfWjrf3nKjRos4xXWB+y46Roni1k34YlqEKkSGVyNC8ahzVWsJITL+2x3gyx3NBlofCZlL42VPEZ7DvZ/+NZX1+CVJ1B9ospRCtkyEKUJL5omAALjICAwM3IKJUEMZ4hIXj5XKueg/a/HKKtK5RJSmca6G7jdk4+ewwvbS6q4nzCl8H5zDRO91ka6qlfn0ZDYzRhez/kx/oNTKp+hZPPFPVPrl/v4dSzRrzW5HLPkUOoXt9AYGh/7F2PZTnMr6pi3ivxePgmofyiivlVVcx/P5VekdveSKX6rRYCntRzT3E+ykf8aMpMxTLAMgDQStNreyDlFX5cXsGPd21AOt0LPJVI5wbSbuyf9LsrjbR5RiO91ylLt2k7X/z+ACzfTmTxh0Q+H0/Xn9dR8+4gZQQH9nezuTg9jTlHypl7MJdbo/yGNVaASb8pYn5VFZGPhbj9QdteS+fUfpBtz+fHhblMn2yk9leb+dZVCeiqpOmzUGbmH2Ne8Wb8ql/h9LtXJjny8AtEIvMb8sax7tGikEeS/tEQFXqxWynef5zGIBWRPamf7UefYGW6gaB1+6ioPI4+BfRrUtjaN9layElNIcuqIeujCir261B9+QTJ6/b15aKwvZNJ6h5Y+acKzF+WU5y9FtWk/m412RY6Ojow/EaOZJmexo4OOjo6qN6m7qtj3pFCwmvNxD1fQsWXFexLlVK4Jpnsk4PG4DCwNcvCktfKsZyzYHg5BbkEmBGLJsIyII+G6Wg5tug4lkztGesnOhIeLcD74Z0YKisw5CZiz01G+6dByghg/tOLFEzfSIH5HOdOFJJxn/+wxgpBpBU109FRzZYF7n8G0/YUtHscrMw9TkV5IelBBtKSn8Dgat35qgDDpCcoMTdS804C5/4rk6zP3bcnICDww2J00eA9lch35w9ZbN+VROmu3h5CmPJUDjNmAzj4tuAAXfdtICwlCi/A5/ENhByO55vCSm6fHQV1B7lQGYhs13oCZgKEEPabYzStz6epKZ4fBQBNDXQSQGBMFJIAICAGn5HEfbps5Jy+Fr+Nh7n1AV8AJA9tILhkEeeKq5HPVLpUduCVsInbHwh1/qmIIaCnxO8BNaIMI5fak5jmAy2fVNJ97zqm+AK0cn7Xe3QtfYXwFLVzUg1eze0rijD95UPsD60aaHZWrmLmY2pnjgsfJdN6LcNjHmsl1v11+DyynVvvd44h5KlUmhdtw1r6NFNiexWOEALWJOEjBsSLmHqfFzVfVtPNQMVDFPsc98SOoP8BWMn5uRQ9QJcdguPQ/elF4iYB2DHsKcCyQIfhMTX+gDwji4wiFTlvGdm4TQ21heSVTUd7UEfcLAA5Lz5poECbxwfWZLRBcK6hEcdUDZr75ASJIChIzohCgnUZyH21mrgXTKT3REKUP6Yjfb+CnP1m0me5tNblTcKTL5I8y/lLKhbG9RQoiFsYTtbRcqwZCoIwU15mITpZg/NntVHyag625DyyHu/J0zEjHd2aAua+U4D1F2m4Lgw4ZqeRndFz7qRIEnqUqrGP1cjefTVE/jqP9IVyALTb0ilUZKL/64tolvXcof5LSP1/I52prO9bSdyMXEyVNrhLiAIpIPBDZ0JSxkiWZ6N8NAyPyy20f7yb01nrOH1nPmF3X6DjTCde94T1JHwCCMU71JfOr2vpIgpRQz12Qpk+s789jzuVSKikowEIAGbFE6Q4wOnl8TTfH82k2VFMXRqPX8AVorinoYq25lba1qspXT+wSBQ8OCWlL5Nmh7ptxuOeRfiJnsb2BUxT13HJeAG/ldHOi3q5nu++aqXz8GrK8gadGHqBzssg6fNbEOM1W+VyTVwY61jb67E3eeEz02UM0jB8gjppOdMA9BwXBSB2yY8lEouh1U2q7msQ9FgBzY8NWUpydjGZauC7RsrfzCTz8QzCP9pJ3NRGas7YkN+npH/qkROuENNYV40NNf5/N2MhnLXh/S1KFArklGM+AwSBYlkKmtwniI02ErdAjeqeJaQsVxM0XEeABhNmqxXDwzL2DZZ+RiO4TsOSSFR3uW84Mk7D9NcNlLdpSfiuHENNJJqeiZguCxUnbVhOLkH62qAT79LQ2MWAZE7hd6tw500w5rHaLVgaxCgj5P3H/FVEznBgqG0Eeo4HBTG9Vx6RGG8x2NvsgKAkCAj80JmYvHI9PgkAPjM303Uihto/H2LG3VHj0744Cvlbh5n22VG+/VslzXs3Ua8/hvL9bQRIh9mGKJSQvUXcPvuaneFxy1BFKqbe5+DsJ9UQVoHtayVT7w8YcO6kjQdQPXrt9IEeYjepCmFcxjq8nSVD9D/OOH0SABQoIrZgmp1Idr6OuMfHqYPwNAoq4zD+1UD5/xaz98lssgqzMO7Tup1o3dEhUrCxrALdUJkZe/GUIBlqQr47Ds3ktRhOQKzNQMUMDbow1woSNC9X8MGv5NeUR+I9xG8zDmMdHu52RXSMaw8CAgI3J9fBEd4LD0/obnXQTSDeM7zoPFXr4rxXR0ddK163hTg1luAQJNTxXV1/C91fVWMnGHGwS7Oevvio4wlZ+zRz9j7N5EtHuTh4B4UngJuv4aAIfHwbaDlx5Zr7yPBlcowKu7GcNqOR9pmLmNIro2cIt9wJ9hOVgxwVR8FwxjoUPiH4BHTSfsrlgjbX0m4FyYzgoc8bLW02rA1DOy4OQOT812FrBmSEzxBjqap2cYqzUGN2IAvtsS7coUBODRU1/U3YzWYsyFHMcGl3khz1Mi3p2/IwvJoCfy0euMYOIJLAZTcTXVAkqqkWjOWWYQ54qLFFE7sAjh81Un7UiHThkv703CI5ynAxFWWDHRVHwXDGOhQSOfJgB9VVlv5jtgpMZ8TIw2QjFsV+0YrVKrg0Cgj8kJgYJaG5nra6OtpPVfPtu5s5WwqT7lPhhZgpyx5E9EkutXmVtDfU8e0b26g/Fcq0+B7HsdClBEZdoHHLdppO1WP/sojaHYdgfhLTej/STXuofb2IS3VNdDbVc2n/Ido8w7hlxkAxPEKCkXRWcvFIPV0OB929sQvEaoK1Stpe20Dt/kraG+pp+9sh6l/agOXjkQ3Va34Mk04d4+zhCrxiFtDvy+nLNO0qRKXbqN5xiJav62k3Gzn/5mZq3qwefgfDHOuQeEYRuCyY9re2cfbjOuxfV/LN1lwuTY4n8P7xtx5Y39GiuGNox8XmBjPmGjPmzw3se2YrBVY50QsUgATNipXIjmaT/oYRS4MFQ1YGWZ+Hk5zSc2+EJZCiPof+GR3FJy1YPt/HEy/kweIUlvR8Opv36Ni6x4D5jBXrGRN5+8uxhSpQDPril8tlUGmgoNaG3Q59W0IkGlJTo6l4QUvmO045zJ8Uo39Gy9ajI7kSEjSxahqP6tH/L8TGql3K/En4tRb5hxvRvliIqdaK5XMjha9lsvY105AtDma4Yx0SkZqVyeGYXs0g+6gZa60R/YZsDEErSfl/RrpR00z2cgXyhS9iFKJ5CQj8YJiQ5Qb7u+lUvAt4ihEFK5m8Jpvb1ziXHzzuX8+sJx3Uvp7Kiec7Ec2IYtrmHGZE9p4dQsj2bLqezebUyt10EcCkB9ahfDK+f83eR0zX8Rxq3txEZwuIQtVM27KNkNsGCTLzYW5/tJLapx7keKsDFOnc07PDYdJjucwSb+PMa6lUNHSCNJhJ9yxg+rVXBgYSEMOUmduxHA4mZM1A3wWPu9cz5xU/Tr+2nZNv1NPtFYBkTjRTHw0cojE3XGusrUWcjNngEtRpE8cjNgEh/Gjvh4RFgt+vcpjZvpkz65OwtHjhFbmYsJ1PE+A7wrGOGSv7UlXOtf5J/sgjNGh37STzPmepZOGLFLz8BBn/lYDqdw78wzSk5OaR2Wf2l5O2Kw/bbzPJWJhNIzIil+rYty25z7wumWSn/OUMdv7WgvWyP4p5ieS8kdn/Fd9D0CoduqPp6KJlrG0D+W8MfTscFBl5FN6SiW5bMqpaG+KgcFTz4kgb4b0hWbCE6F9pKZRoKVAPKrt/C4V5Uja+oCP2vyw4xDLC79Ww8jfD/4K/5lg/Wov8Z3qsvZP2USXeTwJTtRRYdhIngsj1eehbM9A9OhedTYxcvZKsPb3OpCOgy0HHd3YkQdMH+FMICAh8vxFSRQsICIydM9ksicoi6E0T+mWCQ6OAwA8FQecXEBAYM7ay41TctRbDTwUFQUDgh4RgSRAQEBAQEBBwy80b5l9AQEBAQEDghiIoCQICAgICAgJuEZQEAQEBAQEBAbd8L5WE8xmqvqyHxzOPDTOi4NhpWq+6rv39oDi5lWipM+Oit1RDdu116rcmG03gdexPQEBA4AfE6JSEy5XULlJTfeTKItcJvHSOiuOLVlH9+uD0yGNjWlYF86uqUC69PqGE3dGZt9qppDzlojR8uZ1P5zhTUg836N140rRezadbK69dcTCuE7i3N1KZkuifZw5IGTxmZm2kvLmDjsotqG/UnpouI5mzvfGWLiHnTO9BG/uSZXh7S9Huv0FyCQgICNykTIwlITKdOUVF3PP+bmY+5EfLjjSq3x5rCOSbDw9pAB6fHOoLZHTp4FG6A4abeelmQ472zQoqKisw7NvI3At6tINTBv8gkCAPtlC43+L801pAwUkp8pEGDxIQEBD4J2BilIRbAvAJDcVnZhQBj2/mVrWDliPHnNaEr4uoXbeKT2NUTktDQhq1JfV9X+NdB9M5Pm8DTe0u7V2upDZOhenNESgaTUYsGUkY742g9N4YKjJ309LaX9xZmk31I/EY1SpKVWo+/eVmvjEPzPNgP7ydL+LUlKnUnMjYfWVSRN8FBCiNXCx1wOVKLpYGEvCTwP6Leo2x9sm5rldONcYVaVj+5tqRg7aCTZji1JTNUVEWE4/pP4twvTzDxW5zxtYfyj7gH6JAEa4gcoGWrBe1yBuKKf7cWWYt2Yo2PhpliBRpoBzVzzLQ91oaukxsVUvRZJkHtGf7UwoyRQaGYRsk7Jj3ZLAkSo5UKkWuTkTXO5k7W8T42loS5ymRB0qRylUsSc3B6JouoM1EzhoNykApstlLyPzQwmAilyXQ/D+FWABrSSE1CxJQuyTxuupY3cgpU6hYkr6PAT1ZDWx9OBqlTIpUJke5IIXsj8fRMiMgICBwHRilkiDGMyQEL59r1wSxM8Ph5Z5shC0toEwi7LV8fnw4H+UjfnybmcaZnvlF9EASkzmK9Uj/jN5tKqKpKYrAuOHGxa2nfn0aDY3RhO39kB/rNzCp+hVOPlPUt+zR1dSJJGEDyrcO8ONCPTNur+D02s394Y2/3k1N5nt0L92Oqmgvt995jMYjg7QEkR/SnyhpKTlG52dFfCtbxNTpLksg1xgrOGjKWk/DhRjC3jmGunAv4WvUeLkuzny9h1PPGvFak8s9Rw6hen0DgaHul1k8AkLwkg69BFPyWwVyhZa8i8O4hBIJEjpw/F/nn80XO5Cv0KEvqcBcXojuzgoyk59wKgCiSJJTIjG9V4i5L26/lYL3DUxfloJmmGkA7EefYGW6gaB1+6ioPI4+BfRrUtj6eV8NGr8LInajnuJyMxUHX0TTsIXkdft6EiXZMTyVwhMmJbqSCsr/pMX2lv7KXAKzE0nsKmDfSQsfvG8hdvncAXkOrzpWgNpcMtKLCfptIRVmM+XvZJEcLnFRvuwUP6sl62IcWUfNmI3F6H+nwd9dsjEBAQGBm5jRrQ57KpHvzh9GRQfth7Np+NiB5FEVEoDZqwhzSc8seSiNwL1J2E40gSIAfNQE/URM9V8+pHNpEl44uFT4IV33b2DacPPf1h3kQmUgsl3rCZgJEELYb47RtD6fpqZ4fhQAPonrud3lFEnqKqzv7cZ2GqYooL24iJaAnxP5qxh8PMHn8Q3IDibROKAjL0Tz45n0Wj6nqUMSm4ZXa1F/8bXGSiud1lZEd0YzJTQADwLwCg5lsmsXTQ10EkBgTBSSACAgBp8hYlxN2ZjPlGFeoqty0UTOy/sw3xJNZo/8ilU6dC5VEjZq0e/OwfAVaO4C+YoUorfmkvf5RmeK5TMF7CuTk/CM2k0H7rBj2FOAZYEOw2Nq/AF5RhYZRSpy3jKycZsaCCJhvasUcaQ/riHrt+VUdCWj6TKgz28k9oUtJN/tD8jZ8rsCClIH/mqIFCTEg/a1bKT1sejUYvQuxdcaK9ZzWJCTsDASeRAQFIT2LtcOHDQ22JCGa9CEByEhiKAZCoZ7JQQEBARuFibGhezjTRgjNjn/7+mLT9zThD+udP7dWs03L22j4Ugl9qb+Lyuf71qAAEDMlOUP4rWmiKamJH7ka+TCEQdTnlowfGEb6rETyvSZ/Yc87lQioZKOBmc33XVFnN66m6bKajr7jBYh+PTY8dvr6iEsFB/PniLPUG5x9wXvF0Ng1NNUl6gI2xiAh6vz2zXHGsCUxEWcfTqNT7+KYXJUBL73L0U2P6TfxDMrniDFAU4vj6f5/mgmzY5i6tJ4/Ebh+pCwq5mOXUOVWsiO9SYboAskMzRs3JVN8lRnqb1mH7pnsigsq8FyseebWSQnvNdnITiR5H/TkZ1nRHe3Gsv+PMojEsm6201Xbmmk5owN+X09aaEBkBOuENNYV40Np+JgLdnKxm16ij+3YOvt2z/Z+RXfUIPFIUczu78Ff4UKueiDQX2JUSxLRBKdSeNaA2pJ8wAl4ZpjvTsR7V16npgXTclCDZH3zCUxOYHIqX29smRVAlt/nYKqRkPc3SoiFyaTslDOSHMrCggICNxIJshxMZU5hUXcU/QhaqORe7avws8HwMG3L6VyujKMGbuOMa+qivlVHyKf7VyO6GN2PAHBlVwoqaertIhvWUygZhxTFl6u5sy6TXzrtwrlfudOifnG55gstg/wF/DwFA+8QJ64QcyUNZu5fXN6fyprhj9WydJt/Lh4D2ErohA1fciZXz2I6fU6l+ajkL91mHv+Kw1pKLTt3YTpoQ00NY/DdRiAnOTccio+q6D6742cM3+ALrbHdNNlYssv0iiZlEbeiXN0dHTQ0agnbsCMF0Tiqjia/5KHoc1M4Xtmon+ezLgG9q7NQfvoTmw/20n56Q6nHP+jxR9cDPnigaqv298MCE9h66s7yUod9H0/nLFK1GwsqeH4m08Qq3BgeiMVzYK1FLss4wSt0FNRWULWqrn4Wz9A9/No4gb5bAgICAjc7EyQ42IIPjND8Qkd7LfQQMsXrfgs1zJtpq+zc0cd7Q2D1mo9lQQlhNJWlE/9/qN4xMYzxd1Su5cX3Q4367zBIUio4zuXubb7q2rsBCMOBporaGkIZMqjSfgF9TRcV4fdZe3aJzQE6htcHAQv4BgsZw8eMxcRslQ5yNIxzLECHkFKAhJXE7Y9H+UjgbQfOzrQudDTFx91PCFrn2bO3qeZfOkoF790K8pVsV+0Ym0Y2nFRJo9EEa5AHuw/8Iv3YgWmOjkJv9YSGdRTUlONZdBav//iFJbYC9i3U8/emrkkL5df2YkEvLFjv0IIGeEzxFiqqun3Q7RQY3YgC+2xLpwsp0KyhNS1mr7dCJavqvsVhOBwlLdYsFhcvAPqLTQO9kkAIAj1Ki2aGYMOD3OsiPxRLEggbX0WBSVb0Fg/oGTQ7lNJcCRxv0hHt8vAvrXTMZUYBjo3AthtWK1WbIJPo4CAwE3IdQ6mFIjPDC/snxixXwYuN/HtjhyaWq6s6RObxCRzLmdL/QmIV7sVdNKcCDhRxDdf1tPZ1EpX7xd66FICoy7QuGU7TafqsX9ZRO2OQzA/yfm17xuGz+QLtH1c57QctFZzdsd7Tpl6+49LYlJDPg1HmgDoPJJLY/V4j7WJ8zuzqT9Sjb2pCbv5EBeMFxCFheHVW8W0h9rXi7hU10RnUz2X9h+izTOMWwZPbsOgZIMC+exhOi664i9HHnQO41GzU8Gwmch+QX/lxDlJQ3KCN3kv5GJZkEJisJu2giOJDKqh4O1iLFYrtr7ZUYJmxUpkR7NJf8OIpcGCISuDrM/DSU7p+doPUyL/rgLDJz1uijV6dLmmfqVHoiE5SUrx67mY7YDdTO7OAqzjPda/5ZCZVYixxorVasG4rxizp5LwO3orWCncrkNfYsJitWI9WUjBUQuycAWywf19lE6kXIF2z4ikFBAQELguXGclwZdpmZuZ5silIiYG49JUzonikc12YyYIXkzgfWIIXkrg7CuLASSJm7hdXcvZf1+MMSaGU33BnUII2Z5NcGA5p1Yu5lPtNtruXIfyD/HOyVesZsaWNET7tRhjFvPpI9vojF3FZFcxbltF+JZFdG5dzvEHFvNFnh+T1SMJ3jScsYoRddVxYWsqJxbF8Omj22m7cz3K38f0/zA+YrqO51Dz74swPvAg1e/DtC3bCLltBKKMFYkG3asZ+OfFoVAoUf1Ux7nla93sWpCgSU5A3iVGkxSH26TBIg0Z2elI92tRyuXIl2XTa4SXLHyRgpc1WF9JQDVbhfZtSMnNI7PXr2FWOrnPKyh/LBL5bBWa35nQrEmg359VguYPeeiCC0hUyFFGp2G+K47IkXjeDGest0iwHX0RbawChSKa5Lch+fWdpPUpbhL8u8zon0ogerYCRawOU9SL5D2rucInwWaz4xD5IwsWUiwLCAjcfNzEqaLrsCxP4uKifO5ZG3oD5RAYCbb9WiLXQfaXehKEAEXXwI7h1woSv1zL8Y82orhRkSgFBAQEhuCmfC11NzfRVpKN9esogpcJCsL3ArsNW0MFWS8X452UR6ygIFybrhoMRm8SnkkTFAQBAYGbkpvv1XT5EDWL0mkSKwl4ajs/creuLXDTYd6RwNxnzcgWZrDzySvN6gJuEEWi+2xEji4CAgIC15WbeLlBQEBAQEBA4EbyvUwVLSAgICAgIDDxCEqCgICAgICAgFtuPiXh8jFq5qk4WTKMuq1FnFQtptY04VJNDF0GMu6Qot1/7aq07SMlUEXmJxMulYCAgICAADBaJeFyJbWL1FQfcVdWT9NLaZyY15OCefVmGk9NUPY7rxD8ly3iFqn74u7DGyhTb6LpsvtygM530yhbsXtUqZfpslD8TArRd/SkFI7PYF/NBIXOE8nRrEpg7tQhyg9qkcnXUuw2uqCAgICAgMDIGffdDW2vp1PzrhjZs7sJn9FCc9bTnPoVeBU+zZRhpZYeAeIoQv4QNc6NDh9zlpaVb3iT/ooB/R3nKHk+g7RkMUH/uwXNeG8BlKhJyxbyCAoICAgIXD/Gd7nhciXn3q/G66ENhMVGMUkRw63PrGZS4wGspS7WhNJNHL83nW9Kczm5PIayOSqOx22g0SUybfdXe6heHkOZSoVx9WbOf+3azyFOqiIojYigNOLK5Ybu/WmURkRQtq6I7tZ8quf01F2eO3KLQZcdm9WKtW3wcSP6N03IH9OhWx6J4q440relE31Gj/6vLtaEtn2kBCrJeKcQXXI08kApUnk0GSUu+QVO5rB2gRxpoAxVfCaFZ1z7KUQb6I23tzfevlcuN9jfSUHq7Y33z/dhs+pJ9HXWlS7YipBOSEBAQEBgLIxSSRDjGTI4eRPQWEV7oxifOcr+YzIVkwJaaauuG1jXUc7Z3AtMfeEgcz87RuQzi/DpS1jg4FLeIbwz9NyTn0OQ14ec+n0ubb3LBp6LmFVRxXzjNreJnzyW5TC/qop5r8Tj4ZuE8osqZ6bH91MZLLKVgVu6AAAgAElEQVSHXyASmd/QF6Imm1iFHM2zxoHHrRWYGiAyKrL/WLCKyGAH5sqaQY00U/CCHn6Rh+n/Z+/+46Iq84f/v77AhxmQH06CjEF5gowZ1GCy3aG8w+njKrhafJRStO4ac+/E7VEs7aK0pc3aD3+1y1KPFPrc5tRnU6wlbww3sFpH/RBMZTBbOsO66FigjKI4QDDDjd7fPwD54ZAM4a+6no/HPB7Lua5zneucfOx5n+tc53p/ewL7LgPJ43rKXBQXlCGtKqXqvwvRywvRP5KHree1gV8qxlPttJ8ykuph8QH5/EKa2ttp/+sCQiP07Gjpyo7YtHfFyGZgFARBEH5yhhck+KqRthQRM3D0u+UUHQTjF9znzu0bwr8poLNpYBanUG54OhulKhgfWTCBd88gpM/cAvmDy5HuiUYerUX6XRrywx9w6vCwevu9/JJfYMqrad4v/nO6gSZCUYT22dMvFEUoNJwemMfZjfTQGgyzJULlckInppBye89+clSPGVgxXYUUqyPzD8uIPbSNwkPDPydBEARBGAlX7+sGPzXBqsESJskIjO6zHPPNccipp+3YZZoA+X0mrqCyqR3r+kHmAwxpVkcomjsGf66PVcX2/hGjQkVNv3THgiAIgnA1jGyQEByOPy10tvS5mZ9r5v82gZ8ipH9dXxk+3iRVvNaMUaLASdPpPjfzTidNTlCOGfi5RQCygCvaO0EQBEH4wUY2SFDGEah00/ZVn/XoG6pobQwmSO1NoiY3bUf6zGH45hAuIgkc72VU4dvV1g/S6cJR78DhHLA9QkN8JFiq+8yarK/CUi9DlRCLN2psfeYw1NqwEYta8vYFSABc6vPHVgcOhxOX+ExSEARBGIKRDRJ8Exg3T03He+upLbPSatvHty9voVV5HxH3eHeDd723HvunR3AdMfPtK0W4JtxHhJcz8XyiIpF3VHN6Tx2dbjfnv2e9hEHV5JE6SUL30oCJi35aFj4aj/1NA4adFmz/MJG3PI/K8Xr0/+7NDd6F/W0D6z6x4ag1kff8JmpuX0jq7V72U5KQ3JWUldlxuVweAwbzah2SKpm8gfMqBUEQBMGDEV8nIejxPGK/e5GjqxdxvM0fecJ9TNiY7eUaCTJGpyfRvm4hB77pwC8hjQm5vV8mNL8yE8ubdb3VF8ZxHOCeF7irIK33pCY8xC2PVlP77H1UtLhBlckUD184DFd8lpFtLVkYntKR950MSbuQ/O0GL9dIkJO8JBnrqhRU/3QhafUY38y88GWCZZWGxA19PmacFkAeIJ+9Cftf9YT2bJ+oZ+2TlWQt1aA47UL+cwMV/b5wcNH0XTvI4pHCftBpC4IgCD8RIgvkT0WnBUOijuJ/L6VivVakchYEQRAu6drL3SBcHvUmzI06MjNFgCAIgiAMjRhJEARBEATBIzGSIAiCIAiCRyJIEARBEATBIxEkCIIgCILg0U80SHBzMktDxfPmS1cdiv0rqdAup3E46zAIFzjemIVCuw7LSCz29MkypKhllIqFowRBEIZteEHCuWpqZ2ix7rm4qPmVmeyfk0fzj+CG6dqTx8H5SZRr4iifOpMDv1pJncXDCo7KBMJmD/bVwBHs8zRU9V3XYTiOFFB1ZwbHW7zf1bJKg+JOw8jcfK8yV812ch5IRK1UoFBKaKank7XVQ1JspZb0BVrGXVwCgHm5GsWC7QxcSFMQBEHoNeKLKf1YnLds4KunP0D+2EomvhSDX0sdreaP+K6hBeIHrB45IY0Jq65OP39SWkt5Ji0D0xQDuX9LRvJzYq/+kOL6BhiYGHuinrV/vCq9FARB+NG48q8bvimh9qlFfJ6kYf9kDRWpGdSW1XG+p/ycmcNJGg7u6n1iP1+WSfnUlZzpHp1wvbOY8jkr+fa1DA7cq6X8zplYXjNftBKxa38B1oUzqdBoKE+ag+X5Etr6VuispWH1Isx3aihPWsThjxsvFLXt20vHhIeIeXIGoydEE3RHEsplLxCT3Ge5QvOLmOPi2B8Xx/47B7xuOGfl6Jw49sfN4Vubm9ZXZnbVi9Ng/bhPvTYrx1cv5vOpGvZrtHz+qxdpODK8fBNOhwPH6WFkj+y0Ycyci26ShFKhQDlJh36DCceFC+qi+FEF0m9Nvfs4jMwNT8Twj+6/D64jMXwWOW/kMFerRqlUonkoH0tr/0M5PlmHfroGZbgC5a2JzP3tdvqPAzRR9eYydCoFCqWauWtMvU/7B8oodejI/FMmKXeoUN2uJeURA5uydb27781CHRxAQEAAAR5eN5gyJQICAtC9Zse1U48yoKuuennfV09OzBuXMStBiUKhQNKmYyhzeH9dBUEQrnPDDBJk+EZF4T+c9Y2bm0GdRszGIn72cRHqh0M4k5PBMQ8jxt/n/LHdnB2VSfweM9rXZ9D55gt8+3WfcvMGvnrqHTruzmZi8UdM2bycMb71uPrcyDvLttIUk8nEd7cSc08zDavzONN9f/YLCYH6Ks583w1b+xzaQ4e4pyANP98BZb5qbik5xD2HSrhJJSPod7u559Ah7jlUhfoXPZUaOZ69lGNHExi/8QN+VmzkppurqH3qVc4OPKwsGP/I8MGHfjrNrJkuoZqXh5eXEjobcMp0ZL1eTOXXNkyvz8W1OR39m3Yv26mkuFzFmr1WGiwFJFqeIeft3jZcn+aQkr4J5y8MlFXaqCxeSzINNPS9kR8pxHhQx7riCkpXa7GtzyG3JxBRhBLaacO893tu2NNysba0016iJ8JDsS7PTnt7O6YnJeT3G2lob6e9vX8qcNtr6aRubCLlpTKqvq5i+1IFxUsWkHfQu8shCIJwvRve6wZfNdKWouEdcdIiYib1/il/MIPwbWk4DzSCyoukAiEzGfeQuusE7pzD6IittFpbYFIw0MLJt7fScc8LxD85A38AkohaldS/jcmLiHlIiz8QtOQ+TvxtN831cEM0yOct5+b9T3E0NYn6SRpGT9GimPMAY1XBwztvT2zvcOLTGG4qzWRs9x1N+bsMmu59gVPV2YzW9qkbuYiJxSN36H7kOjLX6/ocK5Os+/NJ3WvB9bjkxQqNEgsy9ajkgDyV1Gmh6A/YAAlwUpxn5MTMPEzPpHbnnIgg44+6/k3IdGS9tABtEBCzjNSNKViqnXB7KNyexdonzeiXqJBeTiRxqpaUX6aTnqwauVUkO00UvG4l5WULmbO7eik9ZiBzp4r8nTYyJ4oFxgRB+Om48nMSWqwcf2U99XuqcTX2Pi4HftcMDD1I8FGEIe/pva8M30A43+YEguFcLd/9EwIfTugOEDzzuzmmtzwkGB/c/L+O7r+DE7jpf+8j4rCZM59V0vJpEbUPbsHxrJHJ6d6kvR5cp9VKm9vM0XvjONqvRMYNjW7Ai8yZflrWft3O2mH1xIn5tRwMmz+k6pgDZ/cbC/nsJtww9BuwnxJln8d3+agA3GeduAB5p42qGjeax7W9Sak8iZS4kCXbLxTFKHC1uoBQIBTd6g+xPWHB9ImJynITeY/msS7ViKkg1ePIgdfqLdgcDkwPKdk+oChivIe5D4IgCD9iV3hOgpszryzlaHUM4zfvY+qhQ9xzaDfSJBl4+zXEwOH9kTLgHbb/BC3KhzKZ8HoJk38dztmCrZwdwS83fBRpTPzqUPeriEMXXklMnO1dau0fwvnuUlLX2dGuM1Fzqmv43ZSl8phuupeLYcx+GIIAD9va+/0lj4gnZVEmhtd3ULF9KfL312AcwfTX7X4qVpR3XYe+P3uebuQOIgiCcB24wkFCPc1ftRA4T8/YCcFdB3cfoa2+7wt4GT6BcL6j48KWjsZTvRMbh8I3hlG3QduBajouXXvI5JHh+LQ1f/+98yL++PoBnRf3xE+txr+tCufhkemfs96Bw+H9rdv2hQX3VD05yRKhfgBO7LX2PjXkyOSy7if6bo4Gmrw5iJ8KTayMqnLziH52KJfGocRNk7eN+snhXPvF2yPi0YyxY660D6ERV9dkUeflCZcEQRCutssTJLgbabNaabX1+X3TAoQTON4f12fmrgmE5xo581o+jc199vWNYdRt/rR+vLurTpOZ+iKrlx0IZuwji/Dfv56aTR/RXN+I60g1DX8e+ihAx3vLsTxbQMOealqPHKH54y3UbDTjo00ixKtRjFBkkf60VeylucnN+b7xkCqNyLtPcXzFSurMR3DVH6F5fxFHczZw0qs7MF0TF5MlVPMHmbjocmA7ZMHyj96frbbrzirdKiE7aMLUPR/QsdNA7t/73/hUUzS4y4spPQ10OiguKKbGq3tjKKm/1jNutwH9hlIsxxw4asxsX52PeahR18E80h/IIf99E+aDNmyfFrPut/lUjtGREudNX0CSlFBtYketE5eL3lETuY6lSxOpellPzrtm7PV2bJ+VYlylZ93eAY2cLkSvklA9XebdwQVBEK4Tl2dOQn0Rh+cPmNgYn83Pti1mbM6LtDy7gaqkPHyCwwlKSUM5ycrZCxWDUf5mOU2/W8+Bu/PwnzCNcTO0+PzFuy74aLOZ/GoIRzdu4Ks36iAwmqBfZDBhiDd4v8lagvYX8e3zb9LR1AIh0QTpspn4uznd8xjq+HbhTOyW3n2sk0sACPpNCZrHe+YtBBP26+WcXpHHV0kbOH9ORtirPV84RHHjBiPk5nEiO42jTeAXqSbknjTCh/PlyPdw1RrRa439tsmnraWqNBPpkVzyDmaRpZXIGq0gYooe/SIVzxzrrSstWsuavXr0EyUUMRpSH00lUV7qVR/k09ZSWqhgxctZJK9vgFCJu2bnsGao/wqjEtGNz6VwtR5DvRO3r5LY/5FKfpEBXRCAnbwUDTl7e6OXucFGQI725SpMWdKF7RGLDBj2ZmJIVLKsFaQnTRe+cFBlFVI8KgfD+gVoap3IImLRTE0hI2pAf1qdNAFSpNKr6yAIgnC9EKmiBWGYnO+mE/uUm7UHdqCPvNq9EQRBGHlixUVBGBYXFXsrGffIdtJFgCAIwo+UGEkQBEEQBMGjn2gWSEEQBEEQLkUECYIgCIIgeCSCBEEQBEEQPBJBgiAIgiAIHg0vSDhXTe0MLdY9nsrqaHwlgwM9qY8Xv0jDYe9TH5//eDnl2pX90y9fozrey6B8/pb+aaiH6rSJdY/qUCsVKKLU6JbmYxnOkoS79Cili1MjC4IgCMJwjfhIQusbmdS818zoVVvQbNuA0n83h3+9gTPDuoP+2NkxLkln7b80GN6voOKdFUjmZ0h9unhEly4WBEEQhOEY2SDhXDUn3rfi/+ByYpITCFIlcdOqxQQ1fIBjf9doguudxZSn5tF6YYTgCPZ5Gixv1QFwfmcG++PiKH+qhPMtRVgnx7E/Lo798wr6P6m3WTn+UgYHkrpGLMzzM7GbW3rLG83Ys9Iw3xnH/juTqMrZQnNPsflFzEmLOLh4JuXaOdS8tQXrHC3lSYuwW3pHPc5/8xG1T8yh4s449mtnUvXsVpqHE+y4nDgcvdkVL6jZjnGvnPRVa1hwtwrVND15v0/GtdPIjp4lkt+YhUK7DsuFEQIb66YqmLXR3tX0u+koAgIIeGA7ToeRucEBBAQEoJi2rt/yzK7aYgwP6VBHdY1YJC4wUFrfW+78Mp9l09UowxUoVYnoN5hw9BTuzUKtmkX6f6hRSolkbcxjmVaJ4tZZrPuy96Qcn6xDP02NUqFAqdKhzx3ZPA2CIAjClTXMIEGGb1QU/gOXDm44RFuDjMDJ6t5tSg1BYS20Wo8MrUP353PPoUNMfXUOPsFpqHsyJL6/lN7D1XE8S8/Rz0KI2FDEz0qLUD8azbnjpy6U12VnUN+QSMy23fzMuJwg66scXFXSm/CpxU1gRj6xKR2cfG0fQWu3EaOt48S75q5kUk37OLzkOZojFqN+dzc/eyub0cfysK7+6KIETz4h4ciVIYNeTMdWPSopnsxP+m93WaqwoCY+oTcZc2i8BlVnFZavh3S5kM8vpKm9nfa/LiA0Qs+Olq6MhU17V/QmNT5dTNZsPduZS25ZFbbyQgz/w4Xd0VueOf8ZqiYZKPuiCtMfU3DkpaPvDkS66rSjWr4DY6qb/NWlqP7TRP40O5vequw6l88MpD66g4CHNmGqrsJUMBdXwQL0bzsQBEEQrk/DW3HRV420peji7S2n6CAYeXCfNMe+IfybAjqbmi+uP1xfb6P+03Bu3LaeqEldm+SzMwnpKT+yi1PV4Sg3ZxM2ASCKmCf30ZhdRGPjHG4EGB1H6J3RjHZE43NAjUIdjV9CDOf3nKITOP+3fBoDFxH/bBpBvl1t3PK0mZPLSjjTNoOxfQIkv+QXmJLs/Wk4zzrBL5RxoX02jo5AgZMTp12AfLBdvWLfmk8henYUZHbnOICUJ+N7+7HLSHFnOtteWkB8EDDegOGRYlK2b8f26+5gY4wG3c9VJNbFIq9UoYtTodRKuHbbceLE9Ho+zgWF5D6u6+r1+EwMS3Zw17s7cDySQcSInIkgCIJwJV2XyzJ3WmvpCNEQqh6kQn0dLqIZN6F3k89tauRU094zxO7X/eQvk4G/HB9f8PGXgcvNeaD1UC3nD1dTNbmgf9u+CXQ0AV4kYIp4bAdNj3k6kaG38UPYvq6CKXoSgzyX2/9lhxgdqj7lqkmx8LYdeyddQYJcRgAgl8uRyQOQ+XX9b1wuXJ12qg46sR+chWLjgMZv19HQCRHX5b80QRCEn7aR/b/u4HD8aaGzxQ10jyaca+b/NoGfIsTzPue6f1fTIFfB5971aF+fc9kiqdCwUOh0csJJ76DBWQdNhKIZM8gowjX79YIc3R+r+PDX0tXuiCAIgjBCRnbiojKOQKWbtq+svdsaqmhtDCZI3ZU62S9QBu6Orvf+AJzC3eShLV8Az59O+qlj8G+uwnl4kH5ERiHnCN/1mQZx/p9WXEQiG2IynqC4GDhkHt5ExYFanTjqL564KI/XEI8VS3VvgdNShc1PQ3zPaxS5HNxN9NZooMHja/6AQQMI1SQNHKikstVzuXSrBLU2bH3KbV/XwHgJaSgRkp+EOlZGVfnQJiq6TjtwOMSURkEQhGvdyAYJvgmMm6em47311JZZabXt49uXt9CqvI+Ie7pGFvzUauSOvZyytABu2t7bwpmmi4MBn6hI5B3VnN5TR6fbzfm+ow2TFhJ59ymOr1jJcfMRXI46mvdswb6r6wsJomcTnnCKhrUbaDxch+vrEmpf+wjuSWNs2NBORf7LxYRRwuGcLTTa6nAdsXJmZwE1LxV5vR6C4109qlsvnrhI7AL001wUrn6G7Z/ZsO01kvlyGfL79cztfokfmhBPbL2JHZ+5ABe2t/PZcdrDQSQJyV1JWZkdl8vVL2CQFmWQjpGsJ/IxHbTjOGbD9OY6jP/oPsZsPakUYnh+O5Zjdmy7DBjePkFi+gKGluIrlNQn9Ei7V6BfU4yl1oH9H2aKN+awbKNlQF0befNUSNPXYL5mR0UEQRAEuAzrJAQ9nkfsgyGcWb2IqoXZNLTNZMLGbG7oeYeveoxbHguncVkSFSmLONqgJSxadnFDEx7ilkcjaX72Pio0Gsof7PsJZBQ35hq5ZUod9dlpfJ6ShnVTNYSFXiiP2pBHZHglhxfO5HP9elpvewr1H+bgP9QTUcxgwlvrGUsJtQ/P5PP5eg4bq0CKGXoblyShLygk59YKDPffxV0L1mHXrqH4T6lcmMt4exZrnx5H8XwJKSEFQ52OuXEempqoZ+2TEqalGhQKBYrpfT6BHJNK7i4jqZ1Glk3XoJo6l5yydpRjesvz3l2DptpAcoKGuzJLCX3CiHGZNOQzkd+9luLCZYR+bCA5UYXml3rW7HaiilX2r9jppv07F/KIcWKegiAIwjVOpIoWrqxjecxKyCXiLQvG+0MvXV8QBEG4asSznHBFOcsrqLp9GaZfigBBEAThWidGEgRBEARB8EhkgRQEQRAEwSMRJAiCIAiC4JEIEgRBEARB8OiKBwknszRdWR3j4qjI2ddnUaWLNb8yk/KlRd4vMnjOzOEkDQd3eV6M6XpSvERBQEBXZkflE6XfW9eySoPiAaP3mRcPriMxfBb59ZeuKgiCIPx0DC9IOFdN7Qwt1j0XF3UULr4QBPT9VTy7D4CxuVXcc+gQ6tke1kYYwH/yDMLujrl8kUxTEV9pZlI7xIyLg+l4L4Py+Vu8XmQJ+gcBvT8F6e92rbGYurmJ9vZ2djxy6a8BQhNS0U9Tc+krO0ynjcwN12D48nIdQBAEQbiWXJ5PIGVJSP+ViaJv64por5uRJ2cTO3K9umbJ7zawIzcFxYUtMkLHe58BUppnIHckOyYIgiD8pF2eh3TfEGRqNUGqPr+IoT/ftr42p3cUwuPrhhbOvpHJgakayrVzOLipgJoZGr7a0dK/mmMfR381k3KNhop5yznek8uhfgtVk+PYP3UlZ911HJ/ffazJizneJ49Ep2UL1oVJlE+Oo1ybxIFfbaCxcRjXw+XE4bg4d8MFwRFobo8n/sJPheTFMgK2NYkXRiE8vm5otWBcqkMdrkCZMJec13LQhevIq+1fzVm+jnSthCJcieahfCw9uRyO5TNLEUBA1DJKW22sm9o94qGYi/HCEtEubFuzmJUgoVAoUKo0zMrcjn3opyEIgiBcY4YZJMjwjYrC34t0yd4IerKEew4dIv6xKI8d7Nj1HNY36gj5/VamvPciin8WcbJhYC03Z7cV8f89lIdm23rG+n3E0T+XdAUckYvRfHWIe8pfYLQsihvfPcQ9hw5xz1dbuLHncf6clWMrXqVNvZL40n1M2fYq438R6TFjpU9IOHJlyKAX07FVj0rykLthhKieqaS9vZ3KbE/rWrgwPa8nyyyxYlcVlW+n4y40YhkYeXVWYXy7iYWbSqkozEIqf4act+1dZeMz+LCpnfa6TaQEqVhR3k57ezvtTTvQ9yztXFtAVmYpEU8XU2WzUfluLgti5QwWFwmCIAjXvuG9bvBVI20pGry8rYSaySXUXKgfTdR7JdwyImszNdK4cx/8Io+Y2Wp8gBtz9Jz6eMNFNeXzliPdGw2oGf+gloY3qmk9N4fRvkM4TGcdHY0gn5JIUGQwEIY8OsFjVb/kF5iSPPwzcpUtQxmwrHfD+Aw+/DoX3Ui8DHKZ2L79BMkvm9D/PBSQMPz2Q7YtsQ+oqCA1ey2pdwBILE3ORX/ABkhDO47jBHYkUqfHI0UAERHobx+B/guCIAhXzRWakyDD/5YRavtcHe3HQH53dO+Te1gMgQoGPLXKkN/cmxfaJ0QGbe7v/Zqi/+6JRMyNxPrcbA7sTGT0pARCU+4jbEKw112OeGwHTY8NXj5wToJMphxaiuahqK/B6h6HblLv+4vQWDWSn71/PT8J6dYLPUIeqsBd78QFDGl2xB1z0d9u5JmpiZRN1xE/5S7mLkglfsyldxUEQRCuTZcnSOiZkzCUJ/ZrVjA3PFvCz9L2ccZchdOUT82bW3FuLiLmjhH+fqB7TsJ1nc1ArmVFWQ2p5SZMn5koe3MpeRtL2bZ3EykiUBAEQbguXb3FlPz9Oe8exjoGvlEEjAeX9UjvqEBjLW1N37fTJXQMXuSvSkL5aCaxW4xETqjnzL4jg1ceTKsTR/33TFwcCj85uNzev+OPjEU96gQ2W+90RmeNFbvXi09wIaR0DbavXyiqaalkZOeyo2wtOseHlFVfXM112oHD4fVqDoIgCMIVdtWChKDJcXCghONf19HR2EKnhwmBnoURdn8SfJxHbdkRXPVWjr+yldZL73ixkCjko09x9u9mOtrcnO/bhzYz367bwklLHR2NjbTt/wDnMX8Co6O8PozjXT2qW3/YxEXNFA3s3Ybxy64b7KA36oHkOhakjaPsTzkYv7TjOFiMIa+UYS0zNUpCGmOnssSMo9XVvw9f5pOTW4y5xoHDYce8vRSbr5rYWwc2YiNvngpp+hrMwwlUBEEQhCvmqgUJ8rkruUVby7f/cybmpCQO9yzM1FLCQU3XJ4mWN+s4v38lFXFx7I+bSa2lq4r/7BdRPx7F2dVpfD4vk9PRaYSFgY+vv3ed8NVy0+/S8CnLwHynhvKEPp9A+sqg4SOO/SaNz+9NomrVPvz0rzLhfu/nJIyEiEVrWDvNztpkCUmKJaOsu6B1O+nhXZ8kJm6w4dq1DGVAAAHBGnI+A5Cj+4ORNVOsGJI1xC/IR7ZAT7xfADJvXzb56ch8WU/A+6moxilQhPf5BHKUHOfeNeiTVahUiSx4Bxa8sYmM8QPa6HTT/p0LecQ4IkSickEQhGvajyNVtPsjrEkv4Je7jwl3X+3OXAc+zUE9r4G1/zKSGnSFj30sj1kJuUS8ZcF4/3U9C0MQBOFH7/pM8OS2cvK9fbQ6WjjfVseZN7ZwNmQmY6Zc7Y5do2pKMe6yYD/twuUwk59XTPvsueiudIAAOMsrqLp9GTm/FAGCIAjCte76HPA918x3f1tP7bp6Ot3++MfPZPxr2dxw2ZIWXOfcNZS+nEXOPxtw+yqJn53B9j+lXpWvKUIXFdKw6CocWBAEQfDaj+N1gyAIgiAII+76fN0gCIIgCMJlJ4IEQRAEQRA8uqaDhOZXZlLuMQvkAOeqqfWUBXIo9q+kQrucxiGv03Ad+2QZUtQySoewPkHpUiXKJ0qHcRA7eSkKdLn2YewrCIIgXEuGFyScq6Z2hhbrHs/Frj0FWBfOpEKjoTxpDpbVRTQP4/7tP3kGYXfHDKuTJ7M0vemmL/w0HNw5YBkhZQJhs7VDy08wXEcKqLozg+PDuAYArppiDA8loo5SoIhSk7ggh+01w1i+UaklfYGWccPog+PNuSi601H3/UmZpgE1FcRP1zMrLmAYRxEEQRCuJSP+dUPHx8uxZFcS+Ohy1M/H4dNWS/PfzbQ2QIiX6xDJk7OJ/SGdiV/KxOdn0rvEkgy/yAGfQExIY8KqH3KQy+yYEf3sLGqmGsh9PxnJr4GaylKqDjoh1svQZqKetX/8AX0JSmFtmaFPdlw5Q6EAACAASURBVEoZsjHSgEqh6LJz0f2AwwiCIAjXhpF93XDOSv2fS+CXL6L+zRxGq6IJuWMGUb97jhsn9Km3fyUVd2ZyfH8BB+clUT5ZQ0XKchocXcWtr83pffr3+LqhhTObMjkwVUO5diZfbTR7Tr8wKooglbrPLxp5T6BifhFzzzHu9PC6wZbHAc0iat/ZgGVOEuV3avn8qS00t/U93zpOvpLB51M17NdoqEhZhLXQOqxL53Q4cJweODrgwvSndZSNycS4OZOUn6tQ3aEj9ddrMcyL6FOve4h/dTHbl89CE6VAoZTQrTF3Fe/NQh3c/fQ/yOsGxy4DcxOUKMIlEpfkYfG0zrVvKNLt8cRf+KlQRfYEKg7y5yi6Rxg8vG7oNJGlUpC+xkhWigZJqUSaugxjTd9KLmxbs5iVIKFQKFCqNMzK3M6AlgRBEIQrZJhBggzfqCj8AwdsPraPM8eCGZ2ivfQQhbuSbwtOMeblXdz1xT7iV80gsPuRP+jJEu45dIj4x6I8drBj53PUbK4jZNVWpry3HsXhIhrrvTwF7XNoDx3inoI0/AbLVtlZTeMX0Uwo2sfU0hcJsb7K0ffq+vTjRQ7vAOWfPkBb+gGT/7CIoIHXBEAWjH9k+ODXpNPMmukSqnl52Pptt1D6SQNS8lzihzDmY3t7DTvGrWCH7QQnDhST9fPulRCm5WJtaae9RE+Epx1r89EvMeJaUEjFF6WsVZnY9DdvEzBFkFHSRHu7lbXTBqvjouz/WEjeXIXdXokh6kNyVm/nwpFqC8jKLCXi6WKqbDYq381lQazc+6RWgiAIwogYXpDgq0baUkSMdsD2hjo6CEem7B7SN7+IeXLX0/rnrwxMBxjKDU9no1QF4yMLJvDuGYQohnLwRhp37oNfZBKTrEZ+cwJRKxYS4ushZdGnK3tHC+Li2J/0Ime8mqAYRdiSNAJlQNgMxvzcn9avrReyT3Y2nIIwNYo7o/CPiCJIO4eb7ldf3EzkIiYWv8BYb9M+dDZgd4AkKbv/LkYfHkBAcACKlLyLnrDdkzLIy9IhBcmRR8aTOn1o61zY3i+kUpmOIVuHarwKXZYB/W0eXmU4t5Me3GdOQnAi6w56c0Jy4h/OJCUSkEvMTU3EbanC1jOy4TiBHYnE6fFIERFIt+vQ/zoVsVqHIAjC1XEZVlzs884/IYPJ78/A8WzGxcP5fmqCVcNYIvFcHe11IL87ujfCUcYRqJBd/MQ5cE6CfziBg40aeOIXhiy8z58yGbT0BiOByWmE/OVFLLPNjNZqCEmYQfgvE5B7e1p+WtZ+3c7agds7B5yRXzLr/ruKuRsXov/64mZi79B4Him4BPu/bBC7DFXPvwa/WDSe7swD5yT4hqKM8e5Yykjlhf8dGtSV/rq9Z8Mdc9HfbuSZqYmUTdcRP+Uu5i5IJX6Md8cQBEEQRsbIBgnKKPzZjbsBmADIwgicAP/mKTmjrwyfH7CMss/Am72nm3/3nAQvc0P2cYkORi9i8kdJnN1v5uwX+zi5dhF1H7+A5vW0kflaQi4hRUBZXQMQAciJiFUhjfHcL3nAD7igfgPO1tO/jJ45CT/gX833Xhe5lhVlNaSWmzB9ZqLszaXkbSxl295NpIhAQRAE4Yob2YmL45MYHdnC2T3mC0PyI843ioDx4Kpr7N3WXIfr7OU64CUERjE6OQ3p2Tw0L82BT/dxtu3Suw3krHfgcAwcOYhHNy0Ue1lp75D8ZSCpVGC393l90YDdPmj1y8svFNW0VDKyc9lRthad40PKBr6pAlynHTgc3s6bEARBELwxskGCr5qbsubAjmwObvqIs4eP0PrpBzjrPcwXGLYwwmYncb5sC8e/AWjh7FtbaXaP5DGGpm1HHvYdZlrrG+mot9LwcTWdkdFdcxi80WlmTbKEav6AiYvISXnagK5+LQuX5lP6pQ3bP0op/axh5E4CUN2fTuKxQgp2dX1e4ijLw/jZVZgu+GU+ObnFmGscOBx2zNtLsfmqib11YEUbefNUSNPXYL6MwZMgCMJP3YjPSfBPfoHJvvkcfeMFDm5shJAognTZTFiSMLQGWko4mLScMxfu+SupiFsJRHHjtt3ExIP//S+ibniO2oe1HPMNJ/DeaYyOOOLF6EUd3y6cid3Su8U6uQSAoN+UoHk8ekit+AS20FKwkhMv1dF5Lhh5wn1MyM0gxJt5D5cSo2fbrgAMz+eS9ctnaDgXSuy0ueSu1iMNqQE7eSkacvb23vTnBhsBOdqXqzBlSRCTgbGggYzntUi/DUA5aQHJ00MxetPPT5Yh/YcRR89Ne6+agN8DY/TssG8iZShtjJLj3LsGfV4NDU4ZoXE69G9sImP8gHqdbtq/cyGPGEfE9ZnHVBAE4bogskAK159jecxKyCXiLQvG+69GwmtBEISfBvEcJlx3nOUVVN2+DNMvRYAgCIJwOYmRBEEQBEEQPLqms0AKgiAIgnD1iCBBEARBEASPRJAgCIIgCIJHIkjocaSAKs0ivv3manfk2lC6VInyidKr3Q1BEAThKhpekHCumtoZWqx7Bmx3l3BQ0yeh0p1JHFj6IsdtV36hoxEz2LkOgWV1Yp9kSAqkBB36DabetQQEQRAE4Rp2WUYSQn5XxJSSEjRvrGSM325qH19JY8vlONK1Tx6bQWF1FVWVJoxPa7D/cS4LXrNdekdBEARBuMouQ5Agwy8smsDoaILumIG0LA15UyVNh3prdOwvwDo/ifLJcZTfm4b1TTMdPYXnzBxO0nBwV+/ow/myTMqnruyT5tlN646VWFK0lE/WUJ40B8vzJfRLmdBm5fjqxXw+VcN+jZbPf/UiDUfc/crrstOo0Ggon7GYWtOpYeebcDm78gh4XMjYLxQpRoVqYjy6R9awbDpYPjHh6ClvtWH87Vw0kgJFuITmP3LYXtPbkuONWSi067BcGH2wsW6qglkb7b3HcJhY91AiaqUChVJCPS2dvE/79saJeeMyZiUoUSgUSNp0DGUO+nLsMjA3QYkiXCJxSR6W1mFeDEEQBOFHY5hBggzfqCj8Ay9RzV3HmdJ9dCDHpzv933nLBr763QcwbwPxpbuJf2kOnf/1FDXvNX5/W319s5XDq834Lylgyp6P0LyxnPDovgkTGjmevZRjRxMYv/EDflZs5Kabq6h96lXOugHcnFm3lKNfxTD+vz5gSu4cOouLaPP4GuDS51r2tApJpafw9Pd323mwkA8PuGCUvDsbooPtS1Iw1MRjeL8K2xfF5MRUkvmQAfOQUye4KF2tJ/d0Crl7bdjMpRh/qyOU3oDI9lo6qRubSHmpjKqvq9i+VEHxkgXkHeyuUJuPfokR14JCKr4oZa3KxKa/ieRJgiAIP3XDW3HRV420pWiQQjdncjTsz+nd4v+LFxgXD9DCyc1/pXP2q8Sma7silMjF3DK/BMvfduN6cNHQUiw31tNBGOFJCcjDgLAkAvuu+2R7hxOfxnBTaSZjI7o2KX+XQdO9L3CqOpvRCftwlLYwOmclN04KBqKIWbKPxmdPeXmul+Y6uI5ExbquPzqBMVpWZM4lFOAfm8j9u5qcagOpkV1VFvwhiw9VORSa16KdNpQjuGmod6KI1aGLjUBOBBHjVWh7ijtNFLxuJeVlC5mzu1YolB4zkLlTRf5OG5kTVdjeL6RSmU5ptg6VH6iyDOj/aiJ/2GctCIIg/BhclmWZQ36zlZh7ZXR8toVjH0dyy0tpBAKcq+O7f7bQ8fFiygsH7BR9io5zDC1ImDiHCNUHHJ03h6a7EwmalMCY2XMICesq7rRaaXObOXpvHEf77SjjhkY3OOpwdYQTEh18ocTvtmjkfh6ChCFI3dxE+2bPZfLYDIzvLEVy1rDjT7k45hsx3N11s3Z+baOm1UTWrQFk9d+LVIeLoV2NUGYtSmXdE+loanSk3KEhfvoC0qdLXXvXW7A5HJgeUrJ9wJ4R4xsAFfZ/2SB2Gaqefw1+sWjEYpuCIAg/eZchSJDhp1QTNEEGE16A2vuoeUXDlD8kdR9MRtCKD9A8GuV593OeN/c/RALSXz5m7Bd7OfNlNU3bVlJn3If6/fWEKbqq+CjSUO97gRs8ZWT8BsAfn75lvkMKT7znF4oUqyLeT0X8+CbmTltG/pQPyYjpLo/I4MN/5aIb6n8JD69EIuYbqZpqwfSJicq9OzA8kItxlQlTVtedvt1PxYryKgx3fF8/QTbgb0EQBOGn7TKvkyDjBv1C5LvyqLMBvlGMug1cB6p7Jyp62McnEM539NboaPQwqdA3mEDtHKKWPcfkbc8x+uxeTn/dVeSnVuPfVoXz8CCHiIhC7n8KV32fyZF1tXQM89NE12kHjvpBJi72FZlO5mw7a18uxgmETlIR+10FpkOD7yKXy8Hd1KftBhocHupFxpPySCaGzSa2LxuHpcyEHSAiHs0YO+ZK+6DHkFQqsNvprdGAfbDqrd2TNMVnnIIgCD96l38xpZsfIOLuOk4UlNBJMGP1i/Dbvx7rax/R/E0dbTYzJ996kZq3rF31fWMYdZs/rR/vxnUOaDJTX2Tt36ZlK7VvlHD2SCMdjXWc3fkRrb4xjBrfXa5KI/LuUxxfsZI68xFc9Udo3l/E0ZwNnGwCZElEpIRytnArrW7AfYT6d/Z6ekgfkrLlKqRJl564CHJ0Sxag3LmG/IPA7Xoy/r2B/P+1DONeG/ZjNiyfGFm31EBx97zB0IR4YutN7PjMBbiwvZ3Pjn7HcVC8wYCxzILd4cBxsJgde+0oY1UoAeQ6li5NpOplPTnvmrHX27F9VopxlZ51e7sv1/3pJB4rpGBXV/ThKMvD+JnnkMe8WoekSiavZpgXSxAEQbhuXIEVF4MZm34fPqYtfGsDnzuymfzqQ/h/uoGDqTOpejSbb/c3I4sOv1Bf+ZvljD6xngN3J/H5kyXIZmj7dzRQRmdFPjX/cwbme+/D+j6MXbueqJt7KkRx4wYjt/z8FI7sND5PSePgS0W0BUcTGAgg44YVedwUVsLBf0/CnPocrappBF6JIfbb9ei1NWxaX4wTCf3mUvKmNZC/RIcmQUfqb41UhaqJ7Rn7vz2LtU+Po3i+hJSQgqFOx9y4vg3KCe20YXw2lcRJKlTJBiwJayhcrbswo0GVVUjxKjWW9QvQTNKge8TA9noJVc8bn5gMjAWp2J/XIqnUpP5nKMnTPaVhdtH0XTvIJKSwy3R9BEEQhGuGSBUtDF2nBUOijuJ/L6VivXZok0wFQRCE65bI3SAMXb0Jc6OOzEwRIAiCIPwUiJEEQRAEQRA8EiMJgiAIgiB4JIIEQRAEQRA8EkGCIAiCIAgeiSBBEARBEASPhhcknKumdoYW656Li5pfmcn+OXk0D2V55SugMVvL5+uqvd+xdTvp4QrS3x1yOkZBEARB+FERIwmCIAiCIHh0VYKEjv0FWOcnUT45jvJ707C+ae6Xy+H8NyUcfjiJco0G88KV1P15MeUpG/qMTrhp3bESS4qW8skaypPmYHm+hLZh9MXl7M5FMKwzcWLeuIxZCUoUCgWSNh1DmaN/eW46iZICRZSG9A15LJukIH2rs7eKw8S6hxJRKxUolBLqaenkfSpGLwRBEISrb5hBggzfqCj8A73f87xlA1/97gOYt4H40t3EvzSHzv96ipr3GrsqnLNy7DcraRy1GHXRB0x8PITT28z9Ezx9s5XDq834Lylgyp6P0LyxnPBomafD4RMWhb/CcxlA2dMqJNVQ8i5czPZaOqkbm0h5qYyqr6vYvlRB8ZIF5B3sKne+n8mCdXbu+pOJqr35pNiMFB7r24KL0tV6ck+nkLvXhs1civG3OkJxezqcIAiCIFxRw8tW4KtG2lI0jB1bOLn5r3TOfpXY9O58DJGLuWV+CZa/7cb14CLklhJOHo0m6s+LueFmIPopbpr9AQc/7dNMYz0dhBGelIA8DAhLInCQdZ9uWFHEDcPo6SV1mih43UrKyxYyZ3flOZAeM5C5U0X+ThuZE8exY2sxpG5jzbx45IB+9VK2v/9Mn0bcNNQ7UcTq0MVGICeCiPEqtJejv4IgCILgpSuR0qjXuTq++2cLHR8vprxwQFn0KTrOgd+xWjoD4wiI7CmQEXRbDD59g4SJc4hQfcDReXNoujuRoEkJjJk9h5BhJB1K3dxE++ZhnEu9BZvDgekhJdsHFEWMb4BOJ/Z/gXqaqncJ4wgVqgg4caFmKLMWpbLuiXQ0NTpS7tAQP30B6dMlseyxIAiCcNVd2SABABlBKz5A82iUx9IhpWuWJSD95WPGfrGXM19W07RtJXXGfajfX0+YYkQ7+73a/VSsKK/CcIeHwk7zkNqImG+kaqoF0ycmKvfuwPBALsZVJkxZYklsQRAE4eq6shMXfaMYdRu4DlT3m6jYl9/4GPzaammv79nipvWftf3nJAD4BhOonUPUsueYvO05Rp/dy+mvve+S67QDR/0wJi5GxKMZY8dcafdc7qdCuhWsNltv2w4bNsfFVeWR8aQ8kolhs4nty8ZhKTNxUasuJw6HA6eY0ygIgiBcIZcnSHA30ma10mrr8/umBQhmrH4RfvvXY33tI5q/qaPNZubkWy9S85a1a9/4OYy9xcrxdVs4+00jbfvz+baspX/7lq3UvlHC2SONdDTWcXbnR7T6xjBqvPddLVuuQpo0+MRF5zELln/0+R204WgF5DqWLk2k6mU9Oe+asdfbsX1WinGVnnV7AUKZuygVitZi2GnDUW/BuLqAyn6tOyjeYMBYZsHucOA4WMyOvXaUsSqUAzvySSbxkgr9Vg9RhiAIgiBcBpfndUN9EYfnD5jYGJ/Nz7YtRn5HNpNfDeHoxg0cfLOO8/5hyCcnMubR8K56vmrG//kFOn+/noOzX8VHPYebHkyg9eM+bQXK6KzIp+atlXQ0g1+0lrFr1xN180ifiAvTKh2Jq/ps8otA/3/sbJoOqqxCikflYFi/AE2tE1lELJqpKWR0v0kJnZfH9tqlZD51FwWdEsmZetIjDTT59XxtISe000bus6nkHHPilkkkpq6hcLXuojkJTqcLt18oysjQkT5JQRAEQfDoukgV3bopDUt5GlP+suj6ntDnKkZ/aw6Kd6zkTvNqR0xPqJj79TIqPlmB6irMJBEEQRB+eq7JFRdd+4s4+eUROtrcdB4u4tv36wialXT9BQguC8Vvl2Kpd+JqdWDKzac0LIVUb79x7KzBZA4g9bcZIkAQBEEQrphr8pZzvtHMt6vXc7ihBRTRjH5wA7Hpnr+GuKZ1NmF79xlyfm+n4TsZ0tSFrH17DTpvox2/eAxfWC9LFwVBEARhMNfF6wZBEARBEK68a/J1gyAIgiAIV58IEgRBEARB8OjHESScq6Z2hoavdrRcVNT8ykzKlxYNbSXHa0DHexkDMl5ev0qXKlE+UXrRdssqDYoHjDg97HNNqslDF64jr/Zqd0QQBOHKGl6QcK6a2hlarHsuLmp+ZSb75+RdMzc5/8kzCLs75rJEQyezNOyPi+v6TdZQMWMR1jfMg64m+YMcKaDqzgyOXxwHXZJllQbFnQYs10ikFJqQin6amsFzcw5f8RIFAQEBXb9gBVLCLPS5JsQSVIIgCN67Jr9uGEny5GxiL+cB4jOZ/NIM/M8107Ynn9rXMrCO+oD4h67DrzGuEGmegdzL2L58moHSvFRCO53Yd+eStTod/ahKPnxcuoxHFQRB+PG58q8bvimh9qlFfJ6k6Xr6Ts2gtqyuNzfDOTOHkzR89dpWah6eScWdGirmLef4kb6NtHBmUyYHpmoo187kq40XP723vjan9yn/otcNbk5maajILuDb7DTMUzWUJy3i8MeN/Wq59mzgqxQt+zVaDmRvwf6Uhoqcff3zSIwKIzA6msAJCYQ9/iI3ad0079nX1Z9LnStw/kgJhx9OolyjwTx/JY5j7mFfWqfDgeP0MJI7dNowZs5FN0lCqVCgnKRDv8GE48JFc1H8qAJpSR55S3SoJSVK1SxydvZ/PnfsMjA3QYkiXCJxSR6W1v6Hsa1JvPCU7+l1g+ONWSi0WeStSSdRpUQZpWbuGlP/erXbyUpRowxXop6eRf7quSgSDJj7/geWR6CKVaGaqCUlq4AV09xU/q17NOGS5wq0WshfokMdrkA5aRY5u+3eX1NBEIQfgWEGCTJ8o6LwDxzGrs3NoE4jZmMRP/u4CPXDIZzJyeCYrW8lN2fLrIz5427uKv+A8eP2cvTPJRdu9B07n6Nmcx0hq7Yy5b31KA4X0Vjf/zBBT5Zwz6FDxD8WNehJdu7ZTecDRrTllcQ/DCdX53Gm5x79zVZqsv9KZ8oGNCXbuGWCGceeS93AZfjIZHCOrkDgUud6zsqxrJWcCV3MxOIPmPh4CI3vmS9OZgUgC8Y/MnzwoZ9OM2umS6jm5WEbrM6g+zbglOnIer2Yyq9tmF6fi2tzOvo37f2qOXbtoOmRYqx2O2VLwbh8LaaemKQ2H/0SI64FhVR8UcpalYlNf+sfBqieqaS9vZ3K7O/5tPafOzAFPUOZrYGad1M58acccv/R008L6x7JoDQ0g8L/rmTH8lCK3zRdMjlXgAzodA3xXF2Ynk3nGYsaQ1kVlW/rcf7F2D8IEQRB+IkYXpDgq0baUkSMtysHAkxaRMyyNG6YFI08IprRD2YQfks9zQf6P8UHzVtKWAQgi2Jssgas1bSeA2ikcec++EUmMclq5DcnELViISG+3j+B+2gXcZM2GJARlDKDwJZDNHcHG22lRTSHPUDMk0kERUZzw5JMxkZ/X2tu2j7Oo/5TN/J4TdfqkJc6V0sRJ7+J5sYVixl9cxRBv3iK8SlhnpuPXMTE4hcYG+z1aV6aXEfm+kxSp8UjRUagmpZJ1v0KqvZa+t2A5dOWkTUtFJATPy8FzekqLMe6ymzvF1KpTMeQrUM1XoUuy4D+tmGskRk6i6X/K55QIPTnC0kZX4OlujvY+HIbhf+MJ+PlTHSxEqrkHFakKb9nJU4X9l1r2PR3iP35XUQM5VxdJoxFDSQ/tZYFd0hIdyxg7W+TERkzBEH4KbrycxJarBx/ZT31e6pxNfbe2AO/awZ6bpAy/CPCL5T5yGTQ5u56wj5XR3sdyO+O7o1wlHEEKmRep3v2CYvqvQCBMnxw8/+631u0HanDJ0ZNoG93uW80o6I9TLX7dCXmuJXddYIJTHmO2MfVQzrXzmN1dPjHERDZUyIj8LYYfMxengiAn5a1X7ezdhi7ghPzazkYNn9I1bHedNTy2U244cJNOFQZ0XuzlIcix0VT92nZ/2WD2GW9y0b7xaIZzlpcERGMu9CGjAAZuFpdQCjOf9mxj1ITeyHbpxx1rASf9G/CVbYMZfCynl4TP38NBU/HD+1c62uwuyV0k3rDglCVBsnvw2GcjCAIwvXtCgcJbs68spSj1TOZsPlVwiYE40Md386/j5Nefg3h4ztgw8C/h8vbYeX4pUxefR/+vv74Kfu+ghnaufr49R/Ouei8rgDnu0tJXeckY7OJwukSoX5g/r2GlEMDKl7qX4sf/b9YGNa/rgAP29q9akE+zUDpH1MJ9ZOjiJSICOotG9q5yvr3/Sr8NxEEQbgWXOGJi/U0f9VC4Dw9YycEdx3cfYS2ei9eFfhGETAeXHV9Xk801+E6O7I9DYyO4nytlbaeG/q5I3x3xEM/R0UROCGawOiBczQufa5+42Pwa6vD1dS7l+tYvec5CUPgrHfgcHg/cdH2hQX3VD05yV03TXBir7V71YakUoHdTu9eDdi9a+KSQm+VkL6zUnOsZ4sLa42Hg8gjUE1UoYrtHyDAEM41Mhb1KDt2e+91dNXZafAYPLq6Jos6hzFZVBAE4TpweYIEdyNtViuttj6/b1qAcALH++P6zIzrHHCukTOv5dPY7E3jYYTNTuJ82RaOfwPQwtm3ttLsHv5XAZ4EpqQR0vhXjm7cR5ujjrNv5XHyG29aGMK5xs9h7M3VnDBW0wmcry/i2111w+twp5k1yRKq+YNMXHQ5sB2yYPlH789W2/WuX7pVQnbQhKn7YwXHTgO5f/fuxqe6P53EY4UU7OpqxFGWh/GzEb553rGQ9Nss5P8+H3OtA/sna1lX3ODVa6ZLnqtcx4I0BaVvFGBzAS4bBZt2eF5n4XQhepWE6umy4Z+TIAjCNezyBAn1RRyen0bVvD6/FX/FRTBjc15krLuAqqQkzLOXcsJvDspJ3i2r43//i6gfhhMPa6m4dyHHmhMZHdGnjZYSDmq6Pn+0vFnH+f0rqYiLY3/cTGotQzzIzYuI3fAA7MzmQEoatdYkIu6Rge9QL9oQztVXzfjcFwipXs7nU5M48OQ+Au9NuCz/UVy1RvTaRBL7/O56wogdiHgkl7zpdrK0EuoEDQuKJfSLvJxQEJOBsSAV+/NaJJWa1P8MJXl6n+l+rdtJD+/6/DFxgw3XrmUoAwIICNaQ89kQj+EXz4q380lx5pF6p4pZLztJfUSH3I8hpxG/9LnK0f2hEEPkDuaqJNSJGdhuTyHe06uTVidNgBSpHOLRBUEQri8iC+SQNXL8VzM4Eb+VKU+qr3ZnhG62DTru2puOrSSj6+uFK8j5bjqxT7lZe2AH+shL1xcEQbje/DhyN1wWLZzdWcKZw410ulto+zifE9XR3DBDBAhXk/0TI8Wf2nG2unAe3E7eOzYS70+54gECuKjYW8m4R3JIFwGCIAg/Uj/6ZZmHz03HV1s5tm4lrmbwG5/A2D/kMV4Mrlxd9WZy1xvQ1zthTCzJS4wYH5OuQkfkpLxuJ+UqHFkQBOFKEa8bBEEQBEHwSLxuEARBEATBIxEkCIIgCILg0RUPEk5maS5kZ7woo+IIaszWUJ710WVrfygcb85F0Z31MGBgpsIRVLr0/2fv7uOirvLG/7++Ol8YCIUxlDFH/YiaM96E041grTrdqLi5sWir5F5XTXVdCdu1seyuSu3WNWu1otay1G8Le3yzqd1VqNTFNKGbddQ1GM2GSZQhWg/j8wAAIABJREFUAyYFnVEU0Ak+cI1cvz+4G2CQG0WzzvPx4PGQz835nPMZnPP+nHM+56hRPZ4zMIkLgiAIP1j9CxIuFlI6N5ri3Z23F1O+cHL7Es2tyyNvL2urrEek25h19Ci6+/s2N8JAaXwvkf1L3qKuryd67ZhuD2pb+jhIpUZ3Vzyp7zraJveJeGwb1fX1uDbE9vo9fkEQBEH4rhiQlgTlzzLQ79jBbVvfYvx9DZz+3VN8UzQQV7rWlGh/kYWt0IbtXzmkLYSs5Q+R9sW1zpcgCIIgXL6B6W5QaQiJjCR44nRGPLGYoYoyPMVVPZ/XqsqKM2Ux1tsns+/22dhS3+L8hU7H1BVz8sVEDs3Ws08fjXVJMk5r54NaXaDmz4vJn7sSV2Ufy+JtmZ/f4393YKiEdpIW7ZRo4lKMGBRO7EW1vU/fbWHtIwZ0ahUqjQ7D8kysnU/32DGvjCdmghrVcDW6e41k7OnuGrVYVxuQphvJ/qabQwRBEAShF/oZJAQyWNN5QSN/Gqj78GM83khCdOE9HdyigooViVS6Yhi/+SPuMK8kpPgVjjy3g0afY06mGCk/MJSI9Vu4I3cLukciuXjyjJ/0LlDz5+UU545nnHkd6k4T3wwaOhylemj3N6Ikg/laCcPqntZvlnFu3YbVKxHls8zwpTnJXJ5AuttA+qc2bNtN6IueZulT2T5rBTgxG+NI3aMm8U0LtsICzE/qqK6s9pNeLdbVcSzdKrE2x8zSsX4OEQRBEIRe6t9kSoN1SG9t6Xa3/OZi9r3ZegUNw36XydipvUy7bCdnCoejfnMF4RMBNIz/5V6qVmyhqmohN4UDRZup/Gw4N21eh6YlXeX9yQztkth5av68nJJcDePe7BogACjmP89t83uZty5k7OsNqNIBr4ys1LL05c2k3trL00tzyNo/EuNOE7FTACTWPGNhmzGLXe6lGCOAL8xkfKom8dPXMbakKy1aRXTntLzVWFbHYRQBgiAIgnCFDMyYhEUZ6HN2cNvWTeh+paMu/SnKv+jlKo2VFchEcsNEn0zerENJJfUtXQXe4lIah+oJ7WGG5KZ9L1D8ZiFNQ8cT3NuGjM6mrKKgup7idV2qZUCJ9gkz+QX55BdY2PZcFPbnjKR91st1Cb924GQS+kk+KWq1SDhxtHQV1BbZcYbqMdxy6aTkvFQS0q3U3qhDe/XnKBYEQRC+hwZ8TEL4Iy8wOroS118/ZoDeALxEPuYycfM6hp3J5NjrhQPyOqTvmITYX2aQOsdJ5oa8Pi1f3LNevBuhjmfDp1kkVKaxfJ39Cl9fEARB+CG6CvMkBDBoMDRdaOhYSQcE0NTgp3VhlAYlZXxb1r6p6atiZEYR2NJdoNCNJ+C8jdpjl77yoKlzCZ+6kInPLcT79u9735rhyyvjrnTj7tVYxECUCmiorcb3SoGKQJBl6jsfPkGLRAm2kvZNssOBEwltS3dB6NQopNp8LEcvfWXlbbHE3RpH2ssJ1L66HJO/1gyPG7e7FvmqR2uCIAjC9WhggoTqCjxlZdQdK+bcey9wYh+EzNAT4HNIyLTJcGgHJ4sqaKy6gPdiy47I+xk+/QyutPVUHatALtpB6asfw6zFjGjtMpj6EKPuPMPJVc9y0lqG7K7g/O63cO6s8Jsdxd0rGf9AIyefWc+57l6A6E5JBnFTJQwv+h+42FDrxFHiwHHEjuWdp1mT10DUnBh8hy4qo/RMOptH9lYHbnctta1vSoyPIyH6FObnTOQeceL8Mpun/5gF8xJY0NplcKuR5HtdZCYlYf7MgbvSiX1nJmu3Ov3mJ/T+NNKXNbDhqaexdApsrKsNSNr5ZJT4PVUQBEEQOhiQIEF+LxnbwoUcWrSMkjdLCX48A93jkR2OUcY/y7joUk78+zyss2dzrG1iJg2a9RmMGl7AsYfmcdC4Ds/NT6H7w0KfIEPDTelmxt1WQeWKxRyMXUzx64UQ3t1bBUMI/+3zqNnCsbS9V7DbQ8bxWgL66Xr0MQaMf3Kg/c1msn/ZaWGsKYlkPDOJgl/PRJLUxLS9KSGR+GYWKTfmknKvHv08EzatiexXlvosfSxhNOeQdpeLzIcNaKfHkLCuAOWNqm7yFErs6nSMXjNJz+TSHifIVH9bD4ESUn/HZwiCIAg/KGIVyB8Krx1TjIGce3LJXxctZoAUBEEQeiQWePqhqLRgrTKQnCwCBEEQBKF3REuCIAiCIAh+iZYEQRAEQRD8EkGCIAiCIAh+iSBBEARBEAS/RJDQqmwDNv0yThy/1hkR+qL2nXhU001YxQRRgiAIV1z/goSLhZTOjaZ4d6ftDTs4op/MvsktP7fP5tDyFzjp6MdMh98JVdRsXIk9Npr90/Tk372YI69bfVajvFrKcC7SY9vof7KoVlUrojm4trDPqdtXxxAUFNT8M0SFNN2Acb0F93Va8col2ZiWxqDTqFCpJfQLk8i+FhNI7TSilpLIvU7voyAIQv9WgezB0N9uYaIhkKaaUqrefJ7SJ84TsHMd4UMG4moDpYGatUaObB3KiN++wrjpQ2n6xsZZawVeojvMHvl9oJyUiDl7OZO8DbgOmTGtjGepIh9LynX2hss3ZozzUyiZYyJ963wkhQv7p9k4K4BJPZ4tCIIg+BiA7oZAFOGRBEdGEnLrXKSkxSirC6j2WXugcd8GipfMZv+0yey/ezHFG32ezi9aOTZbz5Gd7a0PTXnJ7L/rWc61Tt1MA55tz7Y94e+fvRD7f++gzjcbdcWcXP0oB+/Ss08fzcH/eAFXWUOH/RUrFpOv17N/7qOUWs50XFvi+CbKs84QlvoKE38WzdCJOsLuW8b43y0muC2vFZx+KbH9Go8+y8lj7deQ//4o++My8LTlu7lFwP52RYeyHn51EyX/No/82/XkL1rJydZ1Ky4WU75wMvsmL+SEowHPS/NaWmn0FH/Sx48FkGtb1m7wt1MRijRei3ZKFIaH15B0L9g/teBuO6AW62tJLJiuRqVSIUUnYMpr3+t+YwGq6LXY256aHay9S8WC15zt13BbWPvzGHTq5id83ZwEMjqtMeH+dC3GOTrUKhVqrQFjuhXf2aXlkmxSYnWoh6vQ3ZvC5q99z5fJXbeWvIhkzG8mEztDi/ZWA0tXvM6qe9uPqv0ik6R7m9NQa2OaW0180sh5RIX0G4tPpszED4/B9KVvWVPIWJNAjFaNWqMjfo2lLZ/yuwmogoIIejCbWreZ+CHNrTSqOWtx+P1kBEEQvpv6GSQEMlijISC4h8MaKjiXu5dGlAxqmcGnyb6ew7/9ABatJyr3I6JeXIj3r09R8l5V7y9/fBPHVlsJeHwDt+3+GP0bKxkeGehzQBUnVyznm/LpjH3tA+7IMTN6jI3Sp16hpgGggXNrl1N+eDxj//oBt6UvxJuzhTqfZuFG61486Lnxvu7nMPa8lsyx7aBev4U7cjYwMsxK6S9e4Fxdt6f4u0nU5BVz48sfMXP/B4wduYfyP+9onjp6sI5xO44y6+gORmsDCfntR8w6epRZR23o7uua0qBwDQGqwK47WuT9WoukNZJ19tI5qj2Sxa5DMtygbJt4yfFqAnGvVRP7Yh62IhvZy1XkPL6UjCO9LadM7moj6WdjSd/jwGHNxfwbA6E+S2HJB0zEPbKNoJ+/jqXQhmVDPPKGpRjfaanCvXbSHk4k98ZkcgpsbEsOJGujpT3o8dqx7HEhzY8nqrs2srM5JC95GttUE3mf27C8HIs7IwGjbzDTG19twxLyNHkOFyXvxnHqT6mktwQRyiVZVNfXU//+UkIjjGy7UE99fT3Ve1ZxnbXLCILwA9e/7obBOqS3tnSzs4FzqXr2pbZvCbjveUZGAVzg9Jvv473/FSYlRDdHKKMeZdySHdg//Aj5Z8t6NxtgVSWNhDN89nSU4UD4bIJ9v30df+fUZ+MZnZvMiJZFENS/TaT67uc5U7iCsOl7cedeICz1WW6aOgTQMP7xvVT97kxbEnLlGQiL6T4QuliIe3sZwf+2ntF3Nq9LofndcqrnrsO97/cMm999Zd1ZyKLlhEcAaBgxX0/5q4V4Li4kbHCvkwBg2KotDOvbKW3kI2uJUa1t/sUL3BjNquT45oWqvBY2/KWY2D/aSb6/eX0M6TETydu1ZG53kDylN1VfA67KWlSTDBgmRaAkgoixWqLb9teS95dMapdmkf6EofnvYGwypse3MfPdbbgfTiTiwGayy6JI3JRI9HhgvAnTpznE72lJwuvC6QZJUnebi9qdZnK8CWx+cSlRIcBYE6aHc4jNzsbxiz5U4qELWP6fUc33Z8ZDxI7dgL2wFm7pbv0QQRCE68/AjEn41SbG3x1I44G3+OaTUYx7saWJ/mIF3351gcZPHmV/VqeTIs/QeJHeBQlTFhKh/YDyRQupvjOGkKnTufH+hQxteej3FhdT12Cl/O7JlHc4MZBhVQ3grkBuHM7QyPZBEoqbI1EqztBZt00tdRXIVQEET/RZuEo1nuCIRs5/UwlEdndmJ4EERAxvv15gINR1Wlb7Col7s5r6N/3vU05KxPz35Ui1JWz7UzruJWZMd7ZUeJV2HG43lp+rye50XsRYF/Sqag1lwbI41j6ZgL7EQOyteqLuXUrCvVLzZ+51YjtSi/PIAlSvdTr1FgMuLyidTlw36Jg0ti3X6KZI0BYk+O1I6cD5tRPGG9CGtG/TTp0E7zhxekHb2/8RERGMbD1WEUhQIMgeGRBBgiAI3x8DECQEolDrCJkYCBOfh9KfUPKSntv+MLvlYoGErPoA/SMa/6df9L+54yWmI/3tE0Z8vodzXxRSvflZKsx70W1dR3jL4oiDVIvR7X2eYf6exo8DBDDId9/gjuGJctRwqKlArgO6GXDZ54r8Ir0r37WgCEWapCVKoSVqbDXxc5LIvG0XieObd9crtKzab8N0ay/T8zOiP2KJGdtddiyfWijYsw3Tg+mYn7P4DI5UYnjZxq5fSH6TrG05psMnpfD5TSkhRUCe0wU+62hePtnPOI4gP8fVX8FrCoIgXHsDPE9CIMOMD6HcmUGFAxis4YabQT5UeInXCAMZFAxNje1HNFad6VohDx5CcPRCNEm/Z9rm3xNWs4ezRc27FDodAXU2ao91c4kIDcqAM8iVPoMjK0pp9KnYAqJnE4KNs7u7GSsRrCE4vJG6Y2Xt26pLqXODcuyo5nwEB0JDo0/ez9BQ3W3BLyGAwQrAe3kvX8pn3bgruxm46GtUAsn3O0n7Y05zxRwRhf5GJ9YCZ7enKJVKaKj2SduFy+3nuFFRxD6cjOlNC9lJI7HnWXACKCR0kwKx7e84UNFXqCSh/taJ02dMhfNrnzwpojDMCcWZt81nAGVH0gQJSh04PO3bHEUlMFZCUgAoCVQGtrQKtHC76NfHRpDfYKkDuRa3201tz40ggiAIV93AT6Y05kEi7qzg1IYdeBnCCOMyFPvWUfzqx5w/XkGdw8rpt1+g5O3i5uMHj+eGmwPwfPIR8kWg2krlluKOado3UfrGDmrKqmisqqBm+8d4Bo/nhtZmaO1iRt15hpOrnqXCWoZcWcb5fVsoT13P6WogcDYRsaHUZG3C0wA0lFH59z0dv8/HPMjYB4dTs/YpSrdZ8RwrpuaTTZS/tKX5LYrB0xn+wCjq/raOE5+VIR8v5OTaDdSELWT4nc3jERQ6HUr3Hs7YLwAN1L33Fueq+zNnRCiBowKoy9/D+eoGmvo57UTeSi3S1J4HLoISw+NLUW9fQ+YRQGlg+fIYbH80kvquFWelE8eBXMzPGVnb0tQfOj2KSZUWth2QARnHO5ls63AdNznrTZjz7DjdbtxHcti2x4l6khZ1SxnjnjQifbQK45oc7KVunF9ayXktlaTX7M1JzHiIpTfnY/5LSyDxTTavb3X4BCZKYn9twuDOwPh4BrkHHDi+sJCdnkJGaz7vNxJHFqb/zsb+jRPHThOmd04Rk7C0rdNEe5uehv055J4FvG5yNuRQ0p9KXJKQGgrIy3Miy7L/gOHTZKIkLcZNfiIqQRCEa+wqzLg4hBEJP2GQ5S1OOGDQrSuY9srPCfhsPUfi5mF7ZAUn9p0nMHJ42/HqX60k7NQ6Dt05m4O/3EHg3OiOGQ0OxJufScm/z8V6908o3goj0tahGdN6gIab1psZN+MM7hWLORi7mCMvbqFuSCTBwQCBDFuVwejwHRy5ZzbWuN/j0c4huEPnyxCGpZrRPa7h/IansC9aRvGLW6i7QdPWRzP0F5lMvB9cKxZz8P7lnDgVzfjXf98+H4T2McY9NpyqpNnkxy6j3BVNeGTvBzT65iX8FysZVvsWh2fr2a/v3yuQfXKLEWN0Ca+va25N0KZkkfOcDvu6pein6jE8bCK7UkLb2mt0Swppvx5JzhIJaXospgoD8ZN9E1QS6nVg/l0cMVO1aOebsE9fQ9ZqQ1v3gfLONHKykgj9xMT8GC36HxtZ81Et2kktAxEVUaRuzEB/wEjUBB36h3chze+09PV4I5t3ZjJf3kzKAzOZ+WMjaZ/KqFvHMt4YR8a7a9AXmpg/Xc/M5FxCnzRjTpLakpCWpbEmqgDjFAndnETyo+KI6c/62lOMpP1SwrJcj0qlQnVv11cga2tlGhShqEeJsQyCIHz3iKWiBeGakbE8qSW+KIn8T1f1ftCkIAjCVSLWbhCEa8VbgsUaRNxvEkWAIAjCd5JoSRAEQRAEwS/RkiAIgiAIgl8iSBAEQRAEwS8RJAiCIAiC4Nf1HSRc2MER/TxK7X0876KVY3dPbllRcTKHt10YkOxdbfbn9KgeNHc7GVF33Bvjm1ctDAoiaLoJa08TAAmCIAg/CP0LEi4WUjo3muLdfvZdKKbiv1uXaNaTv3AZR176uOdZ/vojQEPoA3O5QdXH8wZHM3H3UWYd3sRNo3qYt+BSZe0F586WpY+Hq1BLOmIeTCLzwMBMrxc6PQ7jHB19nYkh4rFtVNfX49oQ27u1MwRBEIQfhCv84lUVrt8Z+eabeYxNW8kwNchlNqr3VjQv3tTHVQ17FDgdzR+mX+FEr6AvTCQYsxn56zRyXpuE8lsnjj15FLsa6OVSVn0iLTKRfsVTFQRBEH6ormx3Q0MBZ/fBsF/+Hs0sHcETdQybv4zxLz7KUJ8AoXHfBoqXzGb/tMnsv3sxxRutndZyqODEQ3oO/fljXC8+ysFoPftun82hVwubd1/8mCP61u4Cf90NF6h5eyX2uNnk6yezP3oettS3qOnfBPw9kmvduN1d10Sw5+VSMjmRNU/HET1FS9SMWJauSMf0gM/seh4H5t/Eo5dUqIZL6H+aSnbnOYA/TUJSGzF/mtHcKqFSoZ5uJLuyebdjTUxzV0FQkN/uBnfeWowLY9BpWq+RgvmIWCxAEARBuLR+BgmBDNZoCAjutFkxFMWQC9QdKqSxm9UOm+zrOfzbD2DReqJyPyLqxYV4//oUJe91XkipAfm9DM6OTGTa7gJm7tzA6OlDm3cNnssU21FmWdcxzG/begONdcO58ZevMC3nI257+/eEuTMpXr3jEgtL9bGsPvJ+rUXSdl0TITRUBd/kU9DtxP9ush+PxVQShWmrDcfnOaSOLyD55yasnU9psLA23cmC1wpwnnJieTkBqaUxQvt0AfX19RSs8D+vRfXZeqQlJsx5NhwFOZhutpG69GksIk4QBEEQLqF/3Q2DdUhvbfGzfTZjVy3myOpHObgzkpDbYgi9cy7qB6JRBgJc4PSb7+O9/xUmJbSsxzDqUcYt2YH9w4+Qf7asYyO8bhkTH4smACBYx4her/4bzoikFT6/axj78zmcXG3Fc3Gh/+Wj+1rWXpAeNmH6p5GUGImMWw3E3GUg9sGHiLulpSXhy9dJ/6eO1EITcc0LR7L0Dyns0qaSZU0jeo5PYt4g4p5Zw9IpzXdIe29sr/OhXWbC5PN73Coj5rcysXwFhlv6VTRBEAThB+CKTwarvP95brt7OTWfWak5ZKX2tUQq/7YY3d9+z7DgCr796gKNnzzK/qxOJ0ae6TRuIZCAqfrmAKEf5N0ZlL6+k/PHKvC2rpoYvLDrktNXQNyb1dS/6WdHSDTJ7xdjPGIhd4+Vgj1mkuekYX45l22PaaktclDisZAyIYiUDicqiXPLdBi3oIxCf0v/xjHIJdmYnksnZ38JzrMtzQcKiUmeS58nCIIg/LANzIzxwRrC7tMQdt9ieOJjiheu5MTORIb9DCCQkFUfoH9E01MqDArsz4qJwPG3KFmxhUG/WI/eHI0yGJp2ryR/BQMSJPQkdIqBpVMMLP3FKpavNzDzT2asD6c1L00ckciur9Mx9PRJDFai7E+M4LWT9nAieVPTyTqUQFSEEmqziZ9g6kdigiAIwg/JwM+TMFRDwBBoqpNhsIYbbgb5UGE/xgb0XtNXhXgC5zDykeYAAUAur/ATIATCYGhqaOiypy/ks27clV0HLvozcpQaamqpBkKnapn0bT6Wo5d1+Us7a8NeJhH3pLE5QAAoKcbpZy6EQEUgyDL1l0rP0zJIU8ylIAiC8L13ZYOEi1bK/yOZ0qyPOVdURp3Diuul5zldOYqwGRpgCCOMy1DsW0fxqx9z/ngFdQ4rp99+gZK3i69YNgZpIlHW2ai1N0+S1FS2hfK/FnY9cLCGIboAPHlbqDleRWPVhX61NOSt1CJN7Tpw0f1OEvFPZpCdZ8Ve4sC+M4PkdXmEzjGgVwC3GEm8x0XmfyZh3uPA+Y0D+6dm1i43kdPXGZG6EyohRZzCusfRHMTU2sn4o9lvkKCM0jPpbB7ZWx243bXU+umOsK42IGnnk1FyhfInCIIgfGdd2e6GweMJnTGUynfXc/qlCrwXhxAwMQb1S+sYO7X5kEG3rmDaK0Mpf209RzZW0BQQjnJaDDc+MrzXlzn/0jzsGyvaNzw0mZMAs55n5obFKLSJTPxtJcd+dR/5g0NRjIpm5L/P5fxrnVMawojfPkttyjqOxGbQNDia8Xvf4qa+Ts7UjdDpBiZ9aiYteQ1OdwOBN0ro568h+49LaR6DKWF8M5eg1U+T/riBlLMQOlZLzLwk4nrb0+LJJmGckZy2Cj0JdVASKLQkf2ojbYYB019SWL4yFu2GIFQ3apm/PAnDfnPXtKYkkvGMjcRfz0Q6KyP90kLxumifA2Sqv62HwCik8H7fFkEQBOE6IZaKFnrPa8cUYyDnnlzy10WL2RkFQRC+567vtRuEq6vSgrXKQHKyCBAEQRB+CERLgiAIgiAIfomWBEEQBEEQ/BJBgiAIgiAIfokgQRAEQRAEv773QcL5l+axf/kWrsrcP2UbsOmXceL41bjY9cv+nN7vapUDoiQDw3ADGaVX42KCIAjfL/0LEi4WUjo3muLdXXedf2ke+xZmcL6bVSCvtoBpcwm/c7z/glZv4bB+HqVFVztXXVWtiObgWj8TPl0B9uf0qG43Yf+OzJIYOj0O4xwd/qeCcLB2jgrDq86rmylBEAShi4FZu+E7RDl/BZOudSaEDqRFJtKvdSYEQRCEHl2D7oYGPNtewB4bzf5pevIXJlKa5zN74kUrx2brOfzqJkr+bR75t+vJX7SSk2W+aVyg5o1kDt2lZ3/0Qo68voGSuXoOb7vQdoTn1YXsmzy5+adzd0PlW9imTWbfXc9S01DBySUtx017lJPVLcc4Mjikf5QKd/tpNatns/+pHe1TN9cVU7FiMfl6PfvnPkqp5UyXaZ0b922geMls9k+bzP67F1O80dq/dSvkWtxuN7W9WSCiH2q/yCTpXh3q4SrU2hiM6y20F10m5xEV0uMZZDxuQCepUWsXkLrd7ZsC1vQEYiQVKo2ehPUZJE1VkbCpvVPBsSaGoKAggoKCunY3eO2Ybg8iKEiP6YCMdaWu5Vg1xp2tx1hI0aowbvW5CduNqCakYGn9gD12Mh83oBuuQj11AakfObuUVS7NwbQ0BkmtQqXRseBJM3axIqYgCEIX/QwSAhms0RAQ3Pczm6zrObJ6LwHGDehztzDpATidmkh5hyb/Bmryirnx5Y+Yuf8Dxo7cQ/mfd7RV9I07f0/xGxUMfWYTt733AqqvtnDa1fE6Ib/cwayjR4l6TNO1kKMeRX/4KLP2P09YoIab3j3KrKNHmXW4L1MyN3Bu7XLKD49n7F8/4Lb0hXhztlDnE4002ddz+LcfwKL1ROV+RNSLC/H+9SlK3qvqktqgcA0Bqu7nYnZvMqKVokj+tLf564OzOSQveRrbVBN5n9uwvByLOyMB42vOjnnYuY3qh3ModjrJWw7mlWlYWurr2q3JLF3rZOafLNj2ZBLrMJP1TcfLaJ8uoL6+noIVfubfUERh+rye+nobphlKotcVU19fT329C/P9vS2IjOV3CTxt12HKs1HwjpHav5mx+kaItbmkxCVjGZtC9h4btg/Tif7GRMJvcq/OGAlBEITrSP+ChME6pLe2MD6650M7auDctg/wzljO+ITpBI+KZNgTK9FMLON0Tsf++JBFywmPAAI1jJivh+JCPBcBqqjavhfuS2b8/TqUY6ZzU6qRof0qyGVo2Is79wJhy5/lpqkalFMXM/7x2T439AKn33wf7/3PMikhmpBRGkLufJRxSzSc//CjLitGDlu1hagndFe3DC1qd5rJ8SZgenEpUWMltPebMD08koLsbBw+xynnJJEyJxRQErUoFv1ZG/ZvAGrZtikH4kysWRSFND4a4+rlxFztzizZgnmLi/lPpbH0Vgnp1qWk/WY+oT6HuLMz2BaaROYflxI9SUK6JRbTMwmwMwuLaE0QBEHo4Cp/jZ+h/ptGAm4bT0DbtkiCIofQeLwUL9NbMhRIQET7gk+DAgOhrqG5Kf9iBfXfgPLOyPYKOXw8wSp6tVTzFeOuQG4cztDIIW2bFDdHolScaf7lYgXffnWBxk8eZX9Wp3Mjz9B4EZSDe3+5iMe2Uf3Y5WfbH+fXThhvQBvSvk07dRK848TpBW3LX0moOqK9wlWGokSmugHwOnBDfEU5AAAgAElEQVR+Dbo52vbpmiO0aCPg1MBk2b/KEpwNEoap7WFBqFaPpNjV9rvNXkztFxb0Q0wdz1UaOFULhCAIgiC0+N4PXLySui4jHcAg34p+cOcVDQIJWfUB+kc0A5qvq+Y7+NfSNTAM7JhPP4GYcpGZU39fKtafEARB6MFVHrg4nKCxATQeK/UZvFdGfdkFAsZoelcHDdYQNBbk4rL2SruqlLrqS53UA38jCYOHMojz/G9D64YLNFZdaL9mhAZlwBnkyrYDaKoopbG1/3uwhhtuBvlQYf8GKnbmqcVdOTADF6UJEpQ6cPg0tzuKSmCshNSbD0WhRZoAxQ5He6XtduBwX+qk7ihRKgCvv4IGEaiEWk/7Pa/1HVk6ahK6G5w4ne3nyhVOXD5jErRTdHCogILedC143LjdtcjfkVdHBUEQrraBCRIaqqgrLsbj8Pk5fgEIZNgDP0FxYAOlWYXUVZZxbuM6Ko5FMmJhbwc4hBP+wGz4JIPSvDLkymJOvrSJfnUnD9WgDDtDzT+tNNY10OQ7t0PEZELCyqjKbQ5GvEWbcFvbKycCZxMRG0pN1iY8DUBDGZV/3+PzFsUQRhiXodi3juJXP+b88QrqHFZOv/0CJW8X9zmr7neNaCdcxsBF2Y3jqB37l+0/jtLmoXqh9xuJIwvTf2dj/8aJY6cJ0zuniElYSu+W+AolflkcbEnDtN2Bu9KOefUGCvqVUTWSJhDHnjzsZ2Vk31hBoWVmVCC2ndtweoGzFtL/XtAemCgNLF2sIveNDThkQHaw4fVt+MYq0tJkEhRmUp7MIPeIE2epHcu7GaSsNOPslBPragOSdj4ZJf0qiCAIwnVvYIKEyi0cW7IY2yKfn1XvIwOD7lzBlGeiaXxzOYdiF1OytYERL2QyNqr3yQfc/wK6JzTUrF7MwUXJnI1cTHg4DBrcMtLhwg6O6Jtfa7RvrKBp37PkT57MvsnzKLX7JDQ4mtG/XcygvESst+vZP93nFcjAaEb/bjH8bTH5s+dx+O0Ahs0O97lhgQxblcHo8B0cuWc21rjf49HOIdjnyXvQrSuY9srPCfhsPUfi5mF7ZAUn9p0nMHI4V5tcasYYHUOMz8/MJ1sqxhvjyHh3DfpCE/On65mZnEvok2bMSVKv0w9dlEH2b9RYnpqJNtpI7gQjCaMARcsbG55sEoY3v/4Ys96BvDMJdVAQQUP0pB7wTUnJ/JVpxFdnMl9SoVL5vAJJKHHPZLCgwkTMBB0xj+Sg/el8n24DJYY/ZGEatY14rYQuJhHHLbFE+baG3BhLeo6ZOO82Uubr0d8VR9JfLDBBR8cXW2Sqv62HQAkpvNe3QRAE4Xvl+7FUdMPHFM9+HkX6Xibeea0zIwAg52CckIrq78Wkz7nWmekHrx1TjIGce3LJXxctxi8IgvCDdH2u3dBQzOn39uJxX6CproJzb7xFzdB53Hjbtc7YD5hsJ+edXOyVtcgeN5b0THLDY4nr82uy3xGVFqxVBpKTRYAgCMIP13dwvHovXDzPtx+uo3RtJd6GAAKi5jH21RUM634uImGgeatxvPs0qc84cX0biHTXQ6S9swbD9VrDjk1mlzP5WudCEAThmvp+dDcIgiAIgnDFXZ/dDYIgCIIgDDgRJAiCIAiC4Nf1HSRc2MERfafXGgdQ1Qo9+al7/cy8+APyaRKSJoncqzHBkNdKaqeVJHviWG9ANVyN7i4jGV9c1Ym6BUEQvnf6FyRcLKR0bjTFu7vuOv/SPPYtzOD8xa77+qLpk5Xsj36WqkulE6Ah9IG53NDNyo29SuNqKNuA7fZETl7o+dC+c5IRq0JKtlx2StaVOlRLsy+9GqI6moSl0Yz0u9PB2jkqDK86Lzsv/aVdYaG6vIBVmlzWZORd3fU8BEEQvmeuz7cbWgVOR/OH6dc6Fz8sU4ykvXytM9GDEImY27U0fHoKFyBd6/wIgiBcp65+d8PxHZQ+tYyDs/Xsm6YnPy6R0ryKtib8pu2J7Js8mf1P7aDpwhaKpzXPnLhv0QbqWtO4+HHbjIpdZlHsVRoNnE7Rk//f1vaTqjZh1y+kvKh9k/zJeg7HRrNfH82hlLe40EAnF6h5eyW2udHsbylL+e6qft2WWrcb99mBee51563FuDAGnUaFariE/qcpmI+0X8uSLBEUFIThVSfydmPzTIhBQehW+tyfPSnohjRvD+rc3eC1Y7o9iKAgPaYDMtaVuubjgnxmS/RaSNGqMG71KeN2I6oJKVja0qrFsj6BGEmFSqMnYb2la6uGx4H5N/HopdaypJJd0vW+KRUAXT4wQRAEoQ/6GSQEMlijISC4H6eePw+6xYx/bQt3fLIF3b8N5VxqIt84WjL0QCazjh7lrlcWMmjIYnSHjzLr6FFmbV1O2+UGz2WK7SizrOv8zo3QqzR6cvwtSlLfp+n+9eh3bGbczXtx7e5Y6Xg2Lqf4b+cJf8bMbbnNZalKXY7zWKe0AocQMGp49802Xitr7pXQLsrA0dv89UH12XqkJSbMeTYcBTmYbraRuvRpLC11qyHDSX19PZZfSigfMOOqr6e+vp7idT4zIc1Jp/hCPfU7jER0voAiCtPn9dTX2zDNUBK9rpj6+nrq612Y7+99Pt3vLsf4sgvDK/nY9mRicJjJ+qbDEWQ/HoupJArTVhuOz3NIHV9A8s9NWDvHCYFB8D+9v7YgCILQVf+ChME6pLe2ML4/s+lNXcb4pMUMmxqJMiKSsJ8lMnxcJecP9e8JfKDU5e7gfPiDjPvFbIJHRTLsiZWox/occNHKKXMpQ3+1ntF361COiiTsZysZNa2Ms7mdFnAatYwpOc8zYshVLUIb7TITpodjiZ4iETE+irhVRma687F8dW3y45+bXZvyIC4V0wNapPHRJK5OJsY3svryddL/qSN1g4m4WyUixkax9A8pxLpyyLJ2TE09SYv6SC7ZB3o/6FEQBEHo6OqPSbhQzMmX1lG5uxC5qv3JPPjb88B3ZyWdurIKGB9J8OCWDYMjuSHSp9mi8iie6gt4VkSzb0XHcxWjzvftYopo0orqSbusHHdPLsnG9Fw6OftLcLZ2aSgkJvVr6cwB4nXicIJ0r7Z9GuRRWrQRcKrl19oiByUeCykTgkjpcLKSOLcMvks93ZuK6X4DiXPUmMYmsqsoHcP1PQJHEAThqrvKX5sNnHtpOeWF85j45iuETxzCICo4seQnnL7WbyD4uf6gwYEdm1oGdzpAEYlm8w7GTR3AfF0ur520hxPJm5pO1qEEoiKUUJtN/ATTtc5ZlzcPlEBQp3vcpTcpIpFdX/dc4cufpmHaKZG6p4DkGaFi/QVBEIR+uMoDFys5f/gCwYuMjJg4pPniDWXUVfoZYDYYLnvgWbdpBDIoMAAaGtrnPKg+Q6PPEcGRGqiobB8syRkafPMZMZngIZWcP1RxeXlsUVvpxu0egIGLZ23YyyTinjQ2BwgAJcU4/c1zoFDCxfrLuJiyecCg1185gghUQq2n/R7WVrh9rq1FmgBOp8+2WiclZ9t/DZ2qZdK3+ViO9pwTV4kD15RYlooAQRAEod8GJkhoqKKuuBiPw+fn+AVgOMFjA5APWJEvAherOPdqJlV+WucHaUahbCzk7O4KvA0NNPWjpeFSaYRMG0/ToR2cqwIuVnDavBPZp+IMjl1MSOUWKlveVmjcvQGX71CDwGhGGXV4XltJ6fZC6ior8HzxMRUvrcT5WR8z6rWyZr6Edkn/By7KVQ7sX9p9fhw43DKESkgRp7DucTQ/udfayfij2W+QIElqKLSwrbQWWQb6PGGSGkkTiGNPHvazcnMarRRaZkYFYtu5rfnaZy2k/73ApzUhlPglcdRvT8f8DUAt1r+Ysfh2idxiJPEeF5n/mYR5jwPnNw7sn5pZu9xETuehBw318H/7mn9BEATB18AECZVbOLZkMbZFPj+r3kdmCCNSX2BEwwZss2djvX85pxQLUU/184rCxJ8z7pFRnP/dT8jX69n/s/ZXIM+/NK/5lcbolZxrqODkQy2vOC7f0rFeu0QayvhnGaM7yrHYaKyLnuXCtLkM9W3CHrOMSWlzaVy7iPy753E4ayhh0R3zGfLYBqY8NR7Pa8uxxf4E+68yOFs5nGDNlbuVvVW7NYWY6BifHz0P/aUElAZMf0khNCsWrVaH/scmTi1K8rs6Y8QyE6ZoB6YYNSpVELpnWkcDNk/YFBQURNBCM+6zZuKHBBEUpMKQ7vRJQcn8lWnEV2cyX1KhUvm8Akkocc9ksKDCRMwEHTGP5KD96fwOT/mhSzIwPw6Z8yV0Uw2YamOY7ztYFAnjm7lkzHGR+bgB/XQDcb8xYwvVManTn1BzwCeWBRUEQbgcYhVI4fvH48T8eAypyg04344T3Q2CIAj9dH2v3SAInTjWG1CNjmFtRSxPJ88XAYIgCMJlEC0JgiAIgiD4JVoSBEEQBEHwSwQJgiAIgiD4JYIEQRAEQRD8EkGCIAiCIAh+iSBBEARBEAS/RJAgCIIgCIJfIkgQBEEQBMEvESQIgiAIguCXCBIEQRAEQfBLBAmCIAiCIPglggRBEARBEPwSQYIgCIIgCH6JIEEQBEEQBL9EkCAIgiAIgl8iSBAEQRAEwS8RJAiCIAiC4JcIEgRBEARB8EsECYIgCIIg+CWCBEEQBEEQ/BJBgiAIgiAIfl1+kNDkRfa2/NvrRW7qexK1VeXkfmkju+gY9vPenk8Qmp08SMqOgzj6cc+visYqcj/7mJStW0nauhuLfK0z5MtDzod/Jf6d5p/UIs+1zlC35Ip8Uj604biSiTaWk/GPj8k513mHF+tnW0n9suZKXk0QhOvUZQYJMjnvv8JDX9SAt5zUzDdIO9mHSt5TztpNrzBp4wekHThIWu57GP7fLixXvdKTyd3xBvH/cl3tC18W+9GDmKtA1adP8WqVtQZz1kZSvvYiaUYTLUnolAN8yT5RMGnyj0i+XU318TM0BIdc6wx1y150kM3nYOSVTPR4EZlf1UDnYje52PXF17gG9fPD8pZj2rgRU5kI9gXh+0BxWWefzGfN6Ymk/TQM9xcfkBM+E4uml0nK5Zj+tpmc8LlYfnUH2gAAGbuzhklXuxPEe4K8r2oInRd+lS98OWrIP17DpMjRRPTltKtV1uP5ZJwcjem/FrD0O1n/KtFK49B+XYRbMRrDTdc6P92pouC4B+3k0YRewVTtzhO4RtxBTECnHYM0mP5rZf8TPv01uS5IDL+8rxZBEL4b+vE/2YvzpAt30/9g23sQxvyYIJcNU8EZomPCcFXJRIT39BTixfrPD8houoPcn96Bti0XSqIkdfthTS7MOz5DvmU22oq9ZDhcnBo0nIfuiyd5TPNJbudB0g8cpuCcDCGjMd63AKO6NUEPls/yyXaeoLhGRg5QMfOWWZhmaJq/cF0HSfmXk+rGM1jqvKgLt2E8CgRPIHWhHm1LKvK5Y2z47HNyT1ZTrVARO2MBpqlhvb5jsquIjM+LKXCd4VSjAtWIiSTfdzexvU8C8GAt2E360RM4GU58jAbbaSUzDeq2/ZddVk8F5gIbuRWncNZ5UYaoif/RPJIje1/LO774gLSvZeSachwoyfrwPXYNGox+xgNtn1nPn6sXR9E+MgqPYfOAKtz3fnmxF2xnc+NwGo4X41BOI3myh6yCctzqWZh/rOtT0GQ/fgKXWk9Mlz9ZL05HPplFTuznLlDdpESSZmC6Z2pLQNtc1g2NetJjNC2nVJC5w4byzp9gHAHIx1j74ddI0yVchZ+z7XQ9Qeo7SF+o9/mbBxqryCnIZ/PXp3A2KpBumkjiPbMwhAB1J7BUhRAz9AwZW3d1n8YleXF+lc/aA8XYPAr002cidQowa7/eTWphFfVNwLCprL3Pz328RD6dRbswHfXA+RPYUZCd+x4WIGjMTF5vvT+CIFx3+v7MLh8jY/tWErM2k+KEhuP/xLjpA7IawX7gA0xHe9GX6TlM+pce5sfMJPpSX3RVxZi/dJL1z+1k1o0kYcZMjJrBLeMevNj/tRHD1sMwZiameXcTrzhGyvu7sbd2V5w7Rs5JiJo8E9OPF2DSQu5H77LG2bJfORKDVkdMgJfaMC3G6TriJ+uInzwOqeWQ2rKPid24i3zlBJLvW8DTkhfz9q1kdunL7Y6XgqPFuEIkjLMXkDHvDqJq8jFuP4i7t0ngIWfrRuK++B9mzphL2q1Kdu3YTR6jMbR+/16Jsh4/jKUxjNgZd5MWOxdjiAvT+7vIaex1RlGFTyB+sgZVo4x2wh0YJ+uInzyN+b5Plpf8XGWsn2zE8FEFEZNnkXaPHsm1D+MOW/P9anKx7XMHeVVK5k9Q4XTsJs0ZTsLNQyguKsbWp1ZuT3NrzJhxXSvEpipyj55BNUZP8n0LSPvRaBqKtpL4WVVrIcj74jC2Rp/owlXMhqM1ENz8q3z8MK8fPUx6gZNAbQwpU4fgLPqYDU6f69QUkfTGRkzHlcTG3E3afTPQyy4cja1plGNrkrEUXSKNHjg/f48F/yhGefMs0u6ZBp9vI+2kkpljfALyEA2x2gmoa45hqVN0vR895DMoTCJ+8gRUXg8Rkp7EyTriJ09laeT11DonCEJnfW9JUOpITxxHzvuvkXnTY+yaUU1q5i6UP30CUy+7GtyOIvKaxpGpvfQTqvt4BXaULDcsIy2y5cv4Fj0ActkujJ9B8mOPkdjyPWQIqMD8jgubDFHBwDA96Q/6JKiRyfnsBLWNXkABYRriwsLJLtqOWtKTOHVcxwx4ikj+x2GkeU9gvqUlr2O85H6+DftpLwzrTXkVGO75GQafLRGug2xwyNT34myAWsdHpH6tIu2JRRjDAEaSUGjDjtTeXHy5ZQVCJy/APNlnQ8DXZDiq+jQYNWKMjrjGIrZ9GIJh+h3ETeh6jy75uR7/mMQDXlKMD7HqpuZz1S4bWV+4cDZBRE05Vs9okufdQexpFynKiaTcp8dQVg4hQxjZl7BXdlLgUjJztrrrvkFqEhct8tkwEnfhQdLkltGXdSfIrwohxqfbxuksxxmuI6blT8XurKB2qA7zogUYlECjh817T/mE5lVkbt1OgSYey091bd0JhglT29LsOY0enD9Iyj9PEb3wF6RPbr7X6oqDZB0Y3h5gAqHqicSNKCf/E4iRRndKpOd8Rmh0xKmPYflIieFHM4mbKrobBOH7oH//k135pLsmYnqgH2MR8GI7fgpGzCQ6+NLHFThPEXrzj3k6snNbsIesz2w4g8fh+nI3a1u21teUcyogHHVLxSmfO4a5oJC8k9WcavRCk4yzMRzTCJ+8ek9QUKEgOrbzFyM4vviMnMYQEk4fZO0/W4+vwuZVEhvS2/LK2L/YR6bjBMXnZeQmaPBUEaq9u+0J/tI8bDvgAO3PSGjrnpBpaFQw6eb25uLLLSuAu+wgrxc6sFZdoNoLNNbgDLujrXm91yrKsTaN7CZovNTn6sXy+WFOSXNJvKn93AavF5RKQgdB7fEKbCMmYA4BZ+EpqjV3YgiAkgoXqHV9G89yshwro0nzNx5BdpFz4CCby5q7XsCLqwZibmkOCuSKcgoGaTC2xRcy1uNVqMeMa+mmqqHguIdJt8xsrtwBTldRwnBiR7T8XpZPhktN8iJdN+MNqnpOoweOL2xYgqdh0bbf69pGL6ilruMRqpwU1KlJGNPpc+kxn615c5Ivh5M4RgQIgvB90Yf/zV4suW+Q5JCh0YPTqyTptWPU13moVZzBkOni9f9YgKHHFD2UnJMJDAvHz/Nbu6YT5Fd4iblnQtcvpkYnlgqImaxGpWi/oDJcx9OR45ipAPnkPuI32Qi99R6SfxyOOkCBq3Ar8Y7RzBzqk9ZpJ5bGke395T75tJS5UN90B1KAgravTYWah2brmH/JzLenkbN1I8lV40idPY/EYUoCm8pJ+9vHyF2e1rrR6MRyUkH0jHHtefCcwHKuvbn48ssKzs83s2BvPXGzZ5F2p4pAhUzeh++QPlTq80BSh/MErhH69orN16U+16YT5Dm9zPzRRJ99zQM01TdpkPBicZ5AGnM3EchkH69CL2kIbTlGf8to+jIm3+7sZjyCXE6q+T0s4TN52nAHk4IVUJXPQ/84g6GlArU7K5BvmsnM1orWewLLSQWGW1v+MOrKya8KwXCploayclzh+u7HprSMRzDEdp/GpXmwOKtQR/6YKJ/Wi4Ljng4BZiv38QrsYaPJGNpxe4/5bMvbCUqGjSNm6KWPEwTh+tGHIEGBPmYJWeq9JOwF84N3EvrlVhLPzST3vomEKpS9HkgVOAgavBcvfVB3TzUAngu4m8KIvv1ukv2OSpfJ3puPU/szbPe0VK5NVeQ5qwjV3N2h0nMfP4HT3xdbUw0ujwLp9pmsiunTCMN2J/NZ4wgh9b9+QmJL+rVH92KV1ST7K5c/NdU4vUoMQ9tvrrPIhoXRmDXNZc253LJ6j5Gx9wTR854ibWpLvs4f5OmTEDO9bxUveCjorp8fLv25yjU46xSow3z2nT5M1kklcbPHoWxyUVChYGZsOHjLsZwMI9oQBnIRlqpwDFJfXqPwYKuoQbqpa2XpLNyNmTuwLJqFdhCAF+sX5TiH6lqCrhpsFR4kqf2Ng9qvDrOrsb31RD5eToFCg7Ht77OlpUHT2tLg5dR5GZRKgrrJoXy8HFuAhuXdptGDphqcNV6km33uy8nDbD6tZOZ9naPc5hYetSbGJ6DoXT7b8+ZCrbm7d3kTBOG60KdnxNAwJY6vnGhj7mFpeD2WryHJMJPoEeFoh/X2CzqMmZowcB4go6K5f1f2uMgpKOowKZDbWYF9aKcn4VYhYUgBNeR+WU5tyybZ4yL3y/KWwW01FJ+TUbaWrrGK7B3vsuYkxER2rPSc52qgyUtt54l+BoUhhYHt6GHsrfsaa7AWFWGt611J5aoqSvi/bddzl+3DmFuEM6ybcvkTrEQ1yIP9ZPOA0Nrju0naW9HeXHwlyuqpwlEHQS1pyOeKMb2/m1yvuu3JudcanVhOK5kp+R+wdsnPNUBJaICM7bgLGeD8MUzb83FPmEdKpAJqyrHUjSRGowCXk4JBozGMACrKsStHEzOsLxmVqZW9yJ4anLKM3Ng+4tF5uoqGQYq24+wHtpH4eQ2hmpZWlSYPrjovDXI9MiCftpH8SRG14VKH8QiyurlVC2hraYhue3tHgRQeBicPk+Vquba3BsvR8rYBrT2n0YNBSlRKcLpONf8/OX+M1B352BWjO4xHANpaeKK6tHD1nM9mHpznveCVqf2uTu4lCEKf9a3z8GQ+6ad1pC0Kw/n5VnJGzKagH++XR81eRKrrXdI2riNNoUBuUhB1azx5bSGLl4LjpwjVxPhv6g7QsWpeMQkf/hWpUIla4cXVFELM7T9hG8CgcOK1ajL/9VckhxIlYcTfokZSKLtUelqtnpiv8oldl488KIxVjz2F6SaAEBLum4vl3Y+JeSmfiGCQZZCkWWyY7CdPfiilacQFbyXp/1vH2gBQ3qRnfrgCW1+a8EOmsfyWfB768DXUFgWqYROICoZJY1qegK9EWYdOJG7MPlK2/olduQpQjiNJE4ayrg/BTKuexiNc6nNVTCTlTg1xlo1IhUoaZIiaOpdtP55KBFDrrMARLmFQNje7n7rpTvSK5m6Des3dnZ6AexJO3Awdmz/aim4dhN68iJKEqYQC+sk6pKLdzHzpIKGA7pZpzV0OrUHXoHAMY8LI+PyvSEVKRmr0GEIUqNWtT/hVFFR40N7sM7eBy0lBp64e7Ywfk+p8F9Mb60gPUSB7FehnLGHX5N6n0VMZjXfqMG9/D+lrJaHKkSwIU6JsG4/gJef9P5Fw1Cdq/Mc6gv4B0q3/TvHCcb3IZ6swYqdOJOtf76F+AQjWs+tXP+lF96MgCN9l/+d///d//9ffjsLCQrTagW04lM9X4ZQVqMLCiOjr4DgAr4zzXA3yoBCkYSHtT9Od0h8ZHkZovydo8uI+V0W1V9m/fHplnFU1EBKO1OvBjl3V1lRxqikE7TD/T/aXX1Yv7qoqqgeFIQ1T9rGL4Qqrq8Fx3osqLJyIa5URuQZHjRfVsPBuPnMv7qoaqgPC0A69vJqw7bMLCyO0P/8PelJXg8MDUnhYl/8jfTHg+RQE4TvnmgYJgiAIgiB8d4nGQEG4zrhd5RRfYlxMUMhwokd8J+fCFgThOiOCBEG4rnipb/R2GGjZkQLEwEFBEK4QESQIwnVFgTRmYi8n4hIEQbg8V3u9RUEQBEEQrhOXHSTkLlejfjK3646zFkw/1aNWBRE0RCLl08u90gArycAw3EBG6bXOyA+BjOU3emJW2ztszXlcRVBQEEFBQf7/pr4rjqwlZvgCMiuvYJpeK6lTVSRsqu2yy/6cHtWDZrruuTLc7yagW5iJc4DSFwTh+jVgLQmOjalknJpPVpEL1ykHa+YM1JWukbNm4lXNFVrQcDW6u+JJetWCu0+rELbYaUQtJZHbn3PpWLm2/6hIeLfzrEnfESUbMG2ZRMryqA6b496spr6+nm0PX3KFgB+c0OlxGOfoCOzn+daVOlRLs7sNMiIWPc3SMxms3TlQYYggCNerARuT4HS6CJxqwDDq+/yFryT2ZQtrfiTj/HwbGX+Mx1BkpmBD3KUXwhmInNxpYlt6LKq2LYGEjr2msx10Q8byRibOe9OJ8ztvs9CZtMhE+kBeQBFFQsL/394Zh7ZxnQH811XF53VFHCFYIYEcNJDTbOIqgUptBjkw1A7ZqqorkZZCqzVQ24RWaCGt07JO62hiN3TGK2nklpRb2FoldPWUkUYOdJz/MJFLW8clmeVSwxlaYv0RvKMpOjOH7g/JlmzLtuSYpm3eDwQ+391335Me9773fd/7Xh3aiXeJ7WkrX05bIBDcllTtScieixG4z4W8XsG3v4eR66VnbZJP5me1gbezWO8E8rPa7zrcMJOiXXEReC5GaKcbRVHwPBIjVeoevj5CfL+Ge72Mq2E3HRfMVZ15C4EAAAosSURBVD3KuakRdZuXlqc6SfSEyJ05SvzKrB4Z9EgArUHBJcu4GjTCx4reBvtMCLm2ltrHTmNldQL35L0A8q4uMrMPGE/S8biGZ4sLWXbh3hkidraMrvfU4dnWSOPcR0UpsVRGXvIgP9JD6s12tAYX8noX7sfi+eesoCcDUdzqbkKPuHEpPqJv9NDudSFv2U3Xp0VvhT2eJBb0obhk5E1udh/QF/QPwE6TPDeFtueBVRRsshh6o53ATjfKehlZ8bC7Nc7Q3AQ43/+Ug0bxlqxOYL2P2GeF40KooOPNDgJeNy6XC8/j8UV62uNJYo9ruDfl2+ILLug/gDXYRcirIK8vL2OlthjHQvgUGXmTh9AxY9FMP3PUN+cZWircsJyeRkShtrYW7XUT+2wYV0GW+7mhRXLUh3ajDCXpW8sQikAg+MFTnZEwHie8X8cOJrj4cYpO1eDEB6WvLgn/Xwsu46ecOJ/oI5fLkfvapLupskdcPSTxr/rynwt/urMKZS1SF7KE3x/F/GKIWF2ScOts3NXGeDHE4RE3sf5h0qfCWH/TGVqlu38W564WNMcYxmChqv3MJFaNRvR4kvTlDMbxAPbJEOG381pIexNM5XLk3gvirAvT93WOXC7H1MDzxU1yrKtwXzvdZwyGL6fRW2WS+0PFQa8aLsXpHPLS9aHJ1S/S6L9V8wP1CnoCcC2H+lwfun+a+Msp1LcM4rtMTvw1XdAzRdQfwdgc5fTAMMMfdOOdiBE6mJo/uI0PcfGaiqd+Nb4Wm8lv6mh+XieVzjB87ijaV50En13alV6WmTTJQZWjA6NMjvTiGzlMx6nStiaJ7glzmgDd/cNkBhPEfmFjlm5WMDOMfmqK35xIcTERRRlcIGMFsmdaCb82ifaXiwwPxNEyOomJ+deoh9PkcjnSh5YoaraCnlqPSS6Xw3hGQXpYZzKX71+jr3oXy7q3Ec/dw6SHvqchKoFAcEuoKtyQeT9B2hUidUhDdYAajRF+zyC+hgr91HuDjUtodVdj2eKQSyDhfTJCSx1AHf5nQxzVEpwea+P5zQb6PyZpPtJJcLsTUOg82Edf6+TNKS85kdfByJeTQB1IGpFXteL5jRGiD8fxD4xgP61UNpPe3kbn9uKh8kSE0MkHMNJZ2FZ0DNv97bhq24sXbm7j/OXuBbXzvUT/HMbrBFDw7lEKeleg5zoP2v0qvi+3IqVVtJ+ruLwK9gUTC7BP99DnbMc4EizsBqoQeyHE6b0JjOst+Gdr+5gmJi5cGytp/ELq8B+KlRy3EHlao/t3aYZnglXsE6AQjIRRJUDy49/lJPxJBgoLC8134iQI09cbQSvo3fJM4wIZMv5Dnfi35+W1NnfPk7E8Wc6/0w/+d4k9nDfU2l6OkDx7uNIGVKFnhTg2UFc3jTFhgtjHUSAQFKjKSDC/yMDW9uKW0I6teNb4feJ87H9sf2xtZCn3KsWDzQoKGUwTcIxhTitoDcXZrFP1oDjO3/Qz5yeXWQy93kHs5HmGJ7Jzuy9Ke6aYhsqMBGsE/eUY8eRFxrIW9gyAhPeXU1ASPV6Yk1BT40JZ+OuqPnxlJ/AV6CnVUAtIkkSNVEuNI/83to0NDI+MYn1q4LknNl+0pHHVAgqDmH0jxzQS0iqzYbL9XTz/qk7qMxNr1r3vDFLV/NfhwlUSeJfurmX6vxY2+bZmLg/DjvDcjo7lZSgoW+YkIDllpr8qyliWGZOMCUqTWrx2o4paB1eraEZFelaKo4ZaR34TM4FAIJil+le1Y8FAuMapj1OJuxj/5I4yZ77lrgdv0BiovJycXS58MPe/mvm6VxPJWPKBFpPXwLUpv5WvdaYVf5dF20mDRJOC0wFDL3ho+U/FAjFeChH9uAU9qdNc70TCpKfJk9/tspRCTsKyTnyp/MZNN69nQfyjOlf/Hlx2kJScMi5MpiwqtJJKGI8TfvIE0os66aSG8jOgvx3Xkzmml7zJrs6A+I6QgNoFfW61qxfWhBmLKQvkdfLK1woEgtuGqnISFFUtuItnmczPzNcQ+5M7ufrBT8p87iR7uZzxsDTm5bHiweejjKHmZ38bt+K+28Q0S5LuvjSZLGtU2GS/ypKtIOhtDaQwZrai7cxPUzMfjzC9M0xHc37gBQtz3CxzZ22J8TKvBQx9PIkvFMFf78yPqXaGzBrXcqhcz6VR693wSZr0Ssl7aiMqK7TBIYE9vXhwv5JmWNpNa3vBQADMz0dLDASJGqkG+3rJndlJpqpoB4Da4KmsLavFke+HZmmSg2Uydq06MRXr6ZDgRm75a6xRxrIuGhvE2gaBQFCkKiNBfTiEbyJB77n8yy3b34P+0drO0zYcs/nVlfKfh35/owpJNmOnYnR9mMEcM+h6WefqjgDBrYCkEfy1TOrNXjI2YGfoPdFHtpyYsR78DQraK4szwgGsLzNkPhsi9XYHoUiC2r2HaavPn1O2KNRcMTAKgrNnY3T/u8z3pSgo02n6+01s2y4xGDagbnEymjYwZ4AZC+NIJ31VDiYrUbGey8kIRgg5dKIHekhdMTHHRzDO9BB9Tp9fpKdOo3nHFOnBzBKSwLPDAwPvon+aJTsXYgHudaN8M4zxUd5is8d0Yr0j84wJdYeH6cEkqWvATJZkb5KxKruosq+NEDrRA3GMKybZiQzG213oq0kWLYuTwF4/ubPd6BMAFkPHdYwqjZJK9VQUF1wy6Bu38uGEMgapPWgwvK6Flu2LzwkEgtuX6lY33NuG3uvH/IMXRXXjf8tJc9P3tQ6Ck+b9GqMvtODxhUgQQj8ZKaSVSWh/TBDb2EdAVXD72shsa6Gx6tCJTeqgB0+Tn2jvGMqBPozjxRoJdU9009NkEvUquO/zEEwqhPeVSeKoD9P5jILR6kGWZeSm2SWQTvxH4oS+6UHb4sbj8xN3hAnfv9rvpDwV67kc61roTur4Z/qINnvw7PTTftyALW7mO7AVAk9omP9MspSZULfvKJ27TDqbFRRlK239hRP1EXpfUUk/1YjS4EE7OIK23z9vXb+yr5OjjWnC9QruXW1cbPTjqzassc5P9zkd/4xOe5MHdWeAjv4crnVVylkG594e9P0Qb1ZwN2jELB/Nm0suuH6a0Pr8kkXfsQz2ufb8EsZ7PHR8VJ2edftixLwZYj4XslyL+4WFBq9Ff9JAfjSE9n0srSEQCG4Zd3z77bdllwxcunQJVf2BZjnPpGjfEiZ3fBJ9z61WRrAIe4iOXW1MH7lId5MYlW45E3F2NxsEP0wQXtWqE4FA8GNFbPAk+O6RvBx+PYLyjXmrNREA1lcSLa91CgNBIBAsQmwVLbglOO8PE7nVSggAcD4ofguBQFCeH6eR4GjhhHmThZEEgtUwnqTr5EWmlqre6dhASySCJhYRCASCHwA/zpwEgUAgEAgEN43ISRAIBAKBQFAWYSQIBAKBQCAoizASBAKBQCAQlEUYCQKBQCAQCMqypJHgcDjyJYIFAoFAIBDclvwfVhDU2Azx0skAAAAASUVORK5CYII=;fillColor=#FFE45E;strokeColor=#FF6392;fontColor=#5AA9E6;rounded=1;imageBorder=default;" vertex="1" parent="1">
          <mxGeometry x="140.5" y="565" width="521" height="354" as="geometry" />
        </mxCell>
        <mxCell id="7bl6Vf3JTjFMhsMhAHnB-6" value="" style="shape=image;verticalLabelPosition=bottom;labelBackgroundColor=none;verticalAlign=top;aspect=fixed;imageAspect=0;image=data:image/png,iVBORw0KGgoAAAANSUhEUgAAAfkAAABjCAYAAACYPHl1AAAABHNCSVQICAgIfAhkiAAAABl0RVh0U29mdHdhcmUAZ25vbWUtc2NyZWVuc2hvdO8Dvz4AAAAtdEVYdENyZWF0aW9uIFRpbWUARnJpIDI0IE1hciAyMDIzIDAzOjEwOjE5IFBNIEVTVF22v7wAACAASURBVHic7L1/WFTnmfD/WTKFkR1lsKOOZjQDkThQ/DGpCqSRDjYatCaWJI3E7bedpntF3H03vOy7qaT9tsv2V9D2W17S3QTz3brzpt2I+SFFjaJm41QTGcQ4jBIZxcAJjDjgFAacwoGeTN4/ZoARgRkUNXHP57q4Lp1zzv08z7mf57mf+76fc85fffrpp58iIyMjIyMjc8ehGO/gn/70Jy5duoQkSbeqPjIyMjIyMjKTxLhG/tKlS+h0OpRK5a2qj4yMjIyMjMwkETXeQUmSZAMvIyMjIyPzOWVcIy8jIyMjIyPz+UU28jIyMjIyMncospGXkZGRkZG5Q5GNvIyMjIyMzB2KbORlZGRkZGTuUGQjLyMjIyMjc4cy7nPyEeOXEP0KlApAkhCjFCgjXD6IXjfneq/9PU6tRR8bWoYby/5aWPoIZm2ogEaKdttwSEDUX7N+9WOYZ15/U24noqua508r2bTWiOEWlivUHWBr70JKHtBxOx6Y7G6xU1bfjCCCUp9Jyf2a21CLOx0flfsrsHgC/1twfw7FqaqbV9xY43UyaDmG+ahAtx9Q6il8YgVpk+Cu3IxxEPH8NhY3qa03i+7OZqpdXrqjZ5CWqEMfPYGLPzdt9VJ56F2ciWvZMv+z/4j5JNxCkco3X+SpU16Qmikse4XitkjfkOdl+5uvkL5jByZLyN+rr1PmGXFqZyO7nF4YOTCiZrAmPZ1N86Da9Qnx08YoSmqmaMcOippu79v72k+9genNWoRRjjnqa9nZCbNvaY28VJ2yYx9QTHBiE6na9wo577lvqHTxwgFM5dUIsbNJ083FNOcmGp6byHh6/WygYEHKg+Qv1dLVcpn+2Jt8n8car5OAqE7CnJ7Ow8rLWHsV6CfFEFzvOBhfZsTz2xjcnLbeBPxeKve9xIJXKig+Zefl/a9ifOUAVjFyEZ+btvY2Yznpoiv6s2/gYTI8+bZqXuhIovgbatpP7aVSk4FVF6HY3maqOxSsX/ePlC8Jc8M0KzjwTyuu/T1aTVqiGodwmH7tfNLHEtNxgSo35GkmJ3hxfYhYzzfSrlqK/ppjHmwtPgwpc4m7pVVyYe1QkmGaoLsltXLwvJe41Tfidfsot9lhybd52aS7ATm3m/H0+llBiUGfgOFCPe2KuZjm3OTixhqvk4BymhbTNBXO90QWzEtg1mQIvd5xMB4Tmd/G4Ka09SbgPPo6m87PoDTvm2xQA95a1rx0GIuwCpMhsjn389JWsaUZe7SOTTd7DE0S12nxJIQ2N+3+v2A/Wgvz1jLFbafIdpm0dDVuj8gsTfhOLbqasfm1FMwb61wJh20PJS2fAKC9L4viJaMZFR/VLd5RO4ZQf4Cisz7oacWBgl1Vb2AFpszL4OX0QcMi4jh1jLL6Zuy9MFu7kMLVGaSFeiGd9RRaL5Odqcdps1Hp6qJvWjJFj2ZhCucUSS5K91Rjl0ScgkTfdBvm109ClJrc1avIngb0tmL1qEifdpnS3Qeo6OhjinYZJeuMhI6RdqGWkhNnsHWKoJqL+aE1mLUTUKPoxmI9xi7hMn3TkigwXMERNZenBm+Fz4XFZqfKdQmhV0Kp0pLz4GryE4ONdNdS8J5A18BlrL0S2roKzGeB2PkUrgukGUR3PaUnG7C5L3NpQEH8zCTyH8oiWz1Yh0a27qujwX8FR4uEKB7D/LoCpiVTlJ06ZCi7zx+hUNCSnypS/p4da6dE/LwHKFmbih4f1uPV7BJaafCKiNHxZCxaQdFyHXFA94UjFDYp0Pc2cqBzBpsf1GE/acfmT6DoiSxMwS4ndjay/fhJqtq66FLEk718DUWpgxWdBL0C9DRT9l6gz3RFxZOxJIsXlmon5jGOKyMYPpxjRO8+iaXpMn2xCRSsW8P6EU1xtLTi1hqvXQy3VbPZBuZHM0gb6k4i1qP7qVJlUhxRCiX8eHWe2ktp73zMSoGS080I/nhyTI+wZf7Vg6hdqOXlk06snisQOwPTkiwKF2mG75koYHMryci81ihfm/YKtMM6feWwbsONA258rIWf38bvw8OCxm5r8AQcddWU1TfT4JOYop7LhgezMOuC5UpeqmzHsJxvRRhQok9cTvHKVPTBpkSqkzEZaKT0pAfjg08GDDyASo1eAV29EhMyM+O1NdzcNFoYvcNO4XGRnHWBfj0Z/c8huBC1Rqg7QO5YMgY8VB4/ys4mN8KAEoNhBVtNScP26SqdKIhXz2bDg6uGdTaJXF9ARGykdM9u8sp3UiBAf8u7mF/bS/kAOE7speisNyIx5wQX3dNmk66SEKXAHyOi6XEzk8kxqOluakSIGqPTDXYM/bUdY4paT07KfOIlH7P0RvJSkslJSWVDYnDykTxYyl9i/ckrGO7PonilEW3bEczvNBIaaWpvsrP9QgNF+95DUM/H/MAy1iglxEj6r1/JYkMyOTMVuCUtOUsXkpOSTE5KMsZgk8SWZux+EWu9QIwhnYLUqQj1h9kuDAqRcLy3A9PuMzAvg6LVWeQoGil48wgOfwR1ABCbKbS8SmmnBvPKVRTMbKWwyol7pp70YO6su+UM1gE12cuzKM5ehVnlpujNA1QOBGUoZ2MyJJMeLdGtNmBekhxsS0LQOEvYzjbgVukxZ66hdPUyFnurMe+ppX2oIlNJS0lmzXS4hI4Nywfvhy7EE5awnq6l/PwxCt5pZop+OZuXJ6PnL0wB6Gyksg0Wp2RQtHYNRQaoOvQ6LwiBa6vra6kQfOgNScR32Nly3EPG/QlMaTmDNRgq7W46TPaOA1Qr55P/0Bqe10tY9uymrDPC+xmBXum0Y97xBhZRR97KVTyv76Oi6nWKWiIsIxIZvc3sPFnPy++dpEGdSv4DSUxpq+WFkyNTKWMvhvH7sDnPYOsZ/klsOkzBiT9jSIw8WjP+ePVy8JSdipPHsPi0mB/MwORvpvjomZC+IeE4uoO0N+20a40Url5DoUGJs63ralFtzdQwekTimrSX1MquExdoVwwOtnDjYBLGGhHMb+P24cjaOjR/HfegTwnUdcN0L47BPiy5Kfv9K+Q5wZS+iuLlM3Cf3I35+GC+IBKdhMF9AZuoITsxZEXZIWAfUBCvmqDRGqetYeemUcLowvlatndIxCkibWu4/ufB1uIFTyOVY8noaaDglR280BFPzoNrKE6fjWCrIP/0oEXxsWv3DgouKMl+cA2lD61ggwa6pZsTZb4+qcpkSvISqHzzJcrmPM2B5V0Ulh1A+Y1nKIo0VI8Xa4sX0VuLqbh2WLQ2C/szK4KTvQJ9YjL6Djclfi25Y62Igx2jeJSOMUuXzHptI9ZDSkwPZrA+9er6Od7bTaF3IQefXsXioKHTd9gpP+vGTdKw4RIuIUbPp+CJx1g/OHctirCp0RpMKRravSfo1iSx6f7UazbWOQQX3dOSsTy2JuBlDvjYefTS0DJMbDqM+TjkP/00ecE51xTtwvKqG7sIi8PmPiVqrHuxRC3DmpuFIQrQ91NxYjdO/dyhST8uZQ2WlNC6X6DU6UEcnNzUOtarNeyq34NWbyQvNWFEOQpMK7+JKeSXWe5atjtF+gZ/UGoxpWhxdhylX2tk86LUUYxOK9UukTiNkZc3LhvKz20YPD7dSMkTIefrRCqPt9I9IIHfjc0FOQ+tYkNiIwdQk2vKYv3MM1iiVGhVgK+e/D+cQb/6GSyLggqdJ1F1sgJHhwTTI+jHYfXqw1J1GOuctdQ8FmyjXqLq5Bucc/tgXiSeUngZAY9Rw+ZHc9gyRwHMRjhRi2XkEn48L2m6Gj0+LnmB6YDkoriqAf2Dz2COMLARdrwGw9fGlU/ycnpA6GzhGNvbQqp44QC5x6HA/DT5g15zYgLZI0pyCGNEJPBic/kw3BeS9nIL2AZmk69TEMk4uPGxFqhH2PltvD4cMjWP3VYJh/V1CjsXUvm3q0gb3OSWmDR0htO2h6KeZMqfeSQYvZqL+aydgo7LiGhQRqCTsIh9XAr9v9+LxWrHgWbCm6DHbmv4uUlsacauCA2ji9S0eNDOSwiMy8nof72tWD0KjCsfG0OGF8sf9mKdl4P10aRgH5zN5rN2its8sEgHnWewXFCywbwKc7CuafOTJ3ajJsD1Lx3c1ZS4kyh69Dpy8TB0w7NXP02JYVijU6JV10z47S0uHOq5lI6xqW68jgFAh0C1qCFv3oj6DTRQdtJNvHYuVe8doQoACXeLF1Qq4gfP87dS7ZIwpa8cNvATRsTa4karyxpl53wgH79gUcZQGJkOD+eYQfZMAB/lx+0IsQm4Tx9ha/CUPm8zl6I1aCPZwTrQyMunfZiyMwITG4DURzcqMuYNT/rtTbW8XOekxnOFLgkY8CKol2EILUNqxeZSkJY9d9R2Ok4do8zZSkOPiOiHfp+HOEPWiHy1D5swhlcJ4BGw9WrY/NCyUTfgiJ2NWGx1HGzr4tKABH4RYUBD0UwFeJup6Z2LWa+ADheO6ATMOgUILpyxsymcBs73jlM5oCK3o5at7w62y4NdUpKtmsiwGEevHXYsTUrM5pBFjP8T+vwK4mIj9HAikOEQXIjzMjDPCdZbuoyjU4EhfYQHPs5iGKUGvVJE6BEBBY6j+7EoM6haHrGFH2Ks8Sq6mrEpkihdMpS3wenxoZ05uMj0Uf7eGUh9ik3jhsXHiUj0NlPtUZEesldEEJoRNMmkq4hgHEzCWBusR5j5bdw+HElbRSclp3xkr10xbOBD8buwnPJguP/J4XkFCVECrVKJkkh0EgFz7sOkrOeF3TsR5sVwyeWmGwVKTQKmsTZCj8o4bSX83ORocSHOySBj8PZJrVjbFJjuD8xvk9H/AguJcWS0VFPaAlq1i7J3XYFT/CK2Dom4wUV9FIAHy743EFP0mPTJmHSqm/Zk0wSNvIS16hU2O0UY8CFISja/1Ehfr49uxWVMZW5e/ts1mCKQOpivKjRo0Y87jwS8aK0uncWjJhfG7xgAgtDKuekJpI/scK4LWAc0gRs8JFuBPjGDEl3SsCfgEbD1ask1THzCG25G0DCuHcUwBvPxpuyxJiYBqwvSU7TEK4ZvrlKTzPOJCcOdejxcF6iR5rIlcbgriS2t2KPmYg7mIYWTO1lztI/1mSsofiCeGIXIwf2vUjJNz4LQe98hYB2YTf7IRRM+KnfvIN+TQGHmavKmK4nxN1P8+8OI+hHtHhACG50eHD0U3N7iwjEtidJRPAGx7Rg5r9mJu38l+Ws1aKMVuOt2k+OcS8Y06D7twq7RY1EG7uOlOQ9gVAQWg326LBZH+bA0udHOWYY+OmQ3tULLU5nJPDyRvVfj6LW9qRGHKomtIUZVdDVTgzboVYYnvAxvYMOmIaT/D3quI/Qz7mI4Kp4Faqju9CJ2NFJ4Cgq+tWLYEEbM2OPVIbgQ56wYNjjBSThtSfCGiwJVbQpM6XPHn/DGzcc3Y4vShTy2N8KbCzcOJmOsEX5+C9eHI2krrvNYpdkUJY5xtzoasfrU5NwXUgFRwNahYPH9gWRGWJ1EgioVy9MxlJ8WEFDz8KPLObfvVfruWzix/jNOW8PPTcFxcF/CGBGcyel/4WQ4LjQjTJvLenXoUxoqTPevYkFKUA/qDMrNU7GcPo/19BG2v3uY9JXPcGCMufBGmaCRV2BMf5Jy7VFyj4LliQeIO72bvM4Mqh5KIk6hJMKNlIF8lTr56g49GkEvevHK0bxGYKAVm1uB8YGxbpBIzRieltjjwx09lw2ZKzCN0xkDBmfsSEJEdAhUD2jIG2Vyv3a3ZnBi0gUnJt8V2v1q0pZmkX+dOzq7O724o9Uhz+b6qKy7QLc2K5CHlBopPdpK2upnKU4Nds+eWp5vg/QlV3f69pZWhNEWTW3VvOBUUfg/HiEveKz77FFqRC35I0O3rmZq/LPHSO8EDEWcLv3qxQUAIpVHqxEM38S+MiFQL7+Hg4KHOF0WC6IkrEIr+nlZzEJkV4sHo15HHF6qW7wYF81F6ffi9inQL81gS/oNLNxgXL0KXh+oVMwaaoOIta6RLt0KciIsNqyMQc913hgLxCF82F1e9HPG8tBU6NUK3N5mtldV03f/t9l0PRvNxxyvg4uRUcLog4uR3i7cfgV6ZZhJxN0a6DujjIVzLW66ZxoxDnq2PWcobxmehMOOg84bH2sQbn4L14cja2t3z5/pRkn8WNEFbxeCPx59SB3a6+1URSWx/T4lEekkQpTTkzCbkoJlvEFBTxLFSydotMZqayRzk+ii2qPEuHKwTIma+gYEjTE4Diaj/3kCqaBxZHT1+GBmJoWZqeMuVOPmpJI/J5V8vJTteJGijsvAzTHyE16nx6mVOM8LGNJXskHTh/UCbDZlkDZTg2F6pLFsL1aXlzidfpRJfARBL9o0Vj5eEun2Q5fXS7coIl7zGLwPoUcaOi8UpUaNXmxml9M39Ft3RyO7zoc+xDpocCKo63h4vQh+gvm2qwns1ky4JsyUNriRUKVGH+2l6nQz3cFTRJ+bqtPNEW+OiYlVEiNewuGRACmwQfK8yIJ5wUnf58HZC1MG9wB0NlD05hGqpGvvvdDpBb9E94hnYEWPh3N8Yahztzcdw1xVj6Cee81k5xRacc/Uh4QRQwgaivTEUVbUfi8NneJw5GXAw659r/NCG4Hz/W5sLgUZek3wPqpJ06sDj0h5NJj0KohSo1eD/ewZHINtGPBSU19PzSgvLhmXcfQaF6sEr4uaHgAJ58m9FJxXUbDSGHEoNJwMsaUZm0IXslFpxAKR4d+7RQnR50UQRcRr6qtAP11Ft/MIL/iMbM2c4O7/QcYar2MuRvTDixGVhuRoHwfrGmgPjtXutnqq3CPqKvbR5e/D3ekLjPmQcd3l88GARJcfEF2U7TtGlX82puAkHHYcTMJYCzu/hevDEbY1TqNB729m52lvcJOwhNPZMNynY6cQzyVsLYEfuluOkWe9RMaDWaxXEplOwiLiENy0S4Dkw1G3lw37L2HKXjPx1OZYbY1kbuq9QrckIYoiICGcPUD+Ke/wOJiM/tfbGlaGXqMG1xnKPcFr/CJCUz2Vg++O8TZTecE7tKlbdDdwsFNFTsrIvU2Tx8Rz8m3VlHQkU/yYGuHkbipnZmKb6IpXbKbarSB96RhhEX8zhS/+jtKQnb41L/6EgiglG77xLJbUkKtik9i0pJa8Qy+hrQLTQ89y4IFQN0lNdmoS5e+9gfZnQKyRA//zkUBKQbeCkuWtmHf/Gu1+FUpJRFRqMK/eOLzBa9DgrAwTQgzHvFTM2gO8UPYLCv2h9fSMvVFocIUZncyW1Q3k7v8d+jolWoWE268ifekjVERYvHJ+BgXaVyl8ZRsl0Qr0iQnMUqgwDi4kpiWxft4xCnb/mgNVClAmsFmnRtl7rYE2GIykn68me1s1YpSaLU8/S9EcUOoXsj52N5v/dRtbo0E5x8jDGgX2keF+fFjHS7F4BKy9WsyjLeyiNOQYtJS99zv0TiVK1OQs0qJXKAMD3tuMtXc2m3WKwH2MmkvJTEBoxqGcS8F0ABW5D63C+vph0n9VzaxYEEXQ61ewPeXaIsdlTL2CYckKzKcrMP/rNrZEiYixCRQ8sZEtE9i7Ek5GYIG44toF4jXhVg3rlyez89BukrdB3H2PcS439apHtfTT48EvYc7OCnmMLgIiGK9iSzCMPt5iJDqZLdmp5O5/A4Mz0M/7Yg2Ufiv16vL0RgrmVFD077+mMKT/ASQnziXu9BEytlWjVSewYaYSZcgkHHYcTMJYCzu/hevDEbaVeSt4YWkreftfRP+uCqUkET8vi52DN1S3jC3zGyh4/ddUKKFbUrM+cyOlwb0aEekkHFIrlt07KQv6SXHTkyj4xtNsue86Ni+N1dZI5qZpc0nTSGzd/Wsq9isxpiQzO1qJIajXyeh/kcjQL11LUdPrFJRtoyhWGZhYphsoeiIoo81O4e56cqOU6JXQ5VeRk7nxqn0bk81fffrpp5+OdbCurg6D4Va+YPU2IXpxekVQqjGoP8NvMZJEhE4vYpQK/XRVxK8ODhFAe4eXvlg1+lE3l0m0ezx0RanRT1de36JGEhE8XlBpxihjchB7PAiigtkaNXHXHWGRaO/00CUpiVermTWRV3BOpAyPh65Bnd02GeHwseu1lyiKzcH2jaRb+0KmkUgiQqcPolXor2M8ij2ewPPgmrHuVbhxwCSMtQjrecN9mOD8JaGcpkYfe217ur0eLg0omD1dHXyUbJIZvFfRN3P+jGBuGuw30zTob6QaN9j/IKjbXkbXiSTS7vXS5VfeuO4jQDbyMjL/nZFE2r0ebKcOke+cQdnfPkL2TXgVrYyMzO3hdr7jVUZG5jYjnt9PdpWLOG0ypd/Kkg28jMwdhmzkZWT+G6NMeQz7RPchyMjIfG74rH7nR0ZGRkZGRuYGkY28jIyMjIzMHcqkGPmqTVq0f181GaJuCuKJUnLT9MRPncKUGblURviN4/YdOcRPmcKUKVOYsqSImtv7KfrPHudKMc0wUfrRyAMizlc3Y5ofz5QpU4hfVxbxM8aV3wtcM2XKlJvfp/aYh/Sb/P2a8c+93ra2W8iJD5QR/9WtOCe3BTI3DRetTxmxv9J022rQ/erw/JP+E8dtq8cN0bidDxamcCwlhWMLN9I6kQ8zfR6RaihMDdqMCdiam8lt9OSdbP1qPKbfCDe5nHbKf1GEY0kpdsGNu9kSeBFEBMx6uoKuvj7c27Nv2nuFI0IUqPxBDun6eOLjtSR/1Uzp8e7w190ufAcp/sEBtD+oxu12c+nNvIhf/rL+t1309fVR8e1b9BDXPXkcuNJHw7a067s+krYqFlN0so+uP24Z/fnjpu3Yl+bRdmXE7xf/A/vgBJmSwrGladR+90e46keeeGvw/nw17//9WyM/FDkJXKFtk5H3n903QrYL17dSqH7uMBP4+NskEcdfZ64jPulGXnMZHs9zadRurRu9Bt+uoKtPoORr48w+H36B/1qkpOr5u67/Hn1Sx0er0mg4cu2hgfLvDve/kL/qHx6NTHbSJr585iwr9uVzE5+onRwa36Lx2e/yQZaRYylGPtzTP/p5Y41XAEUaxfV99FXljfhWx+3js37bbxzJjeACw2Mm9F+8rU//XjeObbmYX59N0W+ryZ0P9tcKyNu4ibj3yzHffbtrNwp/Emjv12P6ioG4z+ctj5yb3tapTP+XnSR8Gfy9Lrpe+RnNf7cNZdVP0dwxO+GnoslaQvNvavD2r0MTE/z5Sh3dzhimPZV+G7yRqUzf/FOm3/JyP4PEZKL/XT7xodYiPvG2Veem0d8P89KZ/VAKl3/42u2uzaRxXWOn/e0icpZoiZ+hJ/17pTh8I44f3Ip5XTrJunjiZ+gxfqMAy4fBuIXkoGjpFKZMMVJ0QqTm+8nB8KwW89uDErqpeWkzOV9JRj8jnni9kTWbyqiZiPMqWSkwTGHK1HS2fihStUl7TQhl3HpOAPGjSor+xhSQo0smfUMRVReHjuJ8rYA1S/TEx8ejT8uhaI8wop7x5L5goSDbiF6rRf+VzVjODZ7gpOq/zqF/spD8rxmYdY+B7OeKMWsOsqtS4Jbic1D2PRPJM+LRpq6h8NCI8j/cSvrUKUwxFGL11VC0ZMqEw/UR0W5l63dMJGsD99s0St8YXycR8FlpKzEo7k4kNjERVWomc3PTUHSdxTf0qfh+fBU/w5GdxvsLjVSvy+Ojg66rJEiO12h4ajXvG1N4P/NxPny5hoHQEz5x0fGrPGq/YuSY0Uh19kYayhuGDnf+MI1jKSmc+U8X/iM/ojrozdX8PMQD7W2g7SffDcpIo/Zvf4a7aYQndOxHVC/Np+3Ydj58LDNQ3+zv426H6BWZxPbW0B2Sz/CfrKGHNOIfmDr028Cx7TQ8mcn7C1N4P+txGnaMaMuVfXxozKRxz2GaN62j2pjC+19ZR+ORKxG1FTy4vjvssY4arvfUIBQ8Ts3SFI4tzcRe+B/0hHh14n9+l/fX/YjW3+TxQVYa7y9djeM3NTchAnKLuGsaMcnJqAwhf7OCK7GWfXz07EZqM40cW2iken2g/004qtDbQNvP8/ggM9B/ap7MR6gZvqnj9+F+OgqMVD+3ndbnHqfmK0bez9xI4zue0Uoam9SNJP3TJuZ8fQmKO8j9nbiR/6gM8/csiBvKqT5ZRbHBysv7r55hu/7Uh/7JIiwH7ThtlRTdZ6dww/NYRYZCl319doqWK0nb1kBfXx99fW4sXx+UIOL+8ywe3mKhyubE/vYLmC4Ws+HZXURs5xUmSpx99F2xsmWBkuzt7kA5l8uHwvXj1jNS/lRJwdfN7CKHkoN2nO+XU/SgiBCc6cU/Ps9T+VZmPbsLe101llywfC+XradDhYgc/IODh39rRxBsFOkOUPiTYFul4J8iNGQXw5QYsDucRFLV/jej2fsl5eh/jysivKci1h/m8rwjmaKDdmyvmun+veXqfQpf2oLtSh999cWkqdIoruujr6+Prn2Rh+vDI1C2KZeSdhMl/2XHvqcIY/3zbHh217BxDaOTz1xbY6YSffeM8GG1fheed+xI8Smogm9h9df8kg9/cpRo83aMVW+x4FHoKMyjuT54Tdc+Gv/hl/Te9ywLKw+x+MfpDFjyaPjP4YXAwJ6f0VgB2l/vJa1qLwv/ZSOqkCjB9J/XsOLsWRb+jY6orJ+ScfYsK86eJe2HS4JneGh7bhMfNy/hnpf2sqzSwtx5dj569kW8IyOe/TZat1/mi794m4yTR1n841XERgN3f5X4hMt4a4aNqu9EDf6FmWiC33z2O37JmX/aC4/9ksVVh1j883VIv3uWc2+MnMyv4HnpNch9kWU2O8t++33iZ0dH1FbQoPuPs6w4ewj94hiuxYXruTwuutO5d+chllm+j6rhRT788b6rFhv+jw/h/et8Fh+pIe3fViHt+Cmt9ddKi9LoiI4frZwbY2JjPoa7dDqirycy1NMDyY9z70tvseydt0j+1jQ6C/P4eEKbT1y0FZhphMbXwAAAIABJREFUPjGNWb98i2VVb5H8nUQ+abscOBxBHwaQjhxCesJC2vs2Fn8LOn5SSucYEfcbItLx+hlhwvV07i7Hps2l6jkTBgUYCoowv2mlLOQcw8YiikL+v36LGct/lGE9D6ZFkZQyi/XPhUrIJv8ZEyX/aMMubYjoU7aRcOP1BOG1MsoxU7E9H1Pwdc3Z/7A4eFTE+loFwleLsD6dRhygLyihYJ+Rst/XsGUoD6xk8bfyyb4bQE/O+nQKfmHHKW0gTaEnLV1L8Z4yKr9Xwvp7QNhdSvl5kX5dN/0Qdr/AFxL93P3oGC82nPMpX4ikoaIVy1tuHv5FMRvujwP0FP+vCio2ucNeOql8VEn5+7Mxv11E9pcA9LzwAysV5nIOtG/APCucTiLgVrf17o18qXKsgx46NqXQAfAJoElj7m/+32Covp/Oir1Iy7/PvblLiAZin/k+unfW0VZZR0LqEgbe2UfnJ6tYsGUd02KBec+R8MFhzrz1Nr6/2YQKkNyXQZNJ/FId0XdB9CwdE3rzuPM/uXT8XuZW5TMzuMLR/lMeXVk/5XLdc6iv2u4Qx/R/fA6tIWDYYh9YFfw9kemZd3PxhJ2BZxKJponODy4T+/VMAub5Ch2/fRPp6y+yIDct4J3c/V0SntyHY/8hxG9uDBkH/USv/xEJWcGQsiFz6PteN9zWpre5XDcD7W+fQ5MEoOPefziK57m38HjWMWewoGmrmf03yYEJduk61LNew9dwBVKnXiVu+pa3JiclcNfVHtuExvxdyej/462xZffu49zCfQwFF+9KRPfGPhIMQOpG7g35tIDym3nM2Pk43R94wBDhV9Xqd3Lx+Azm7NyGLihL+fV8BndDRNKHAaLSNjI3LXB/VdmriH15Hz0XYfpkZxbGHa+fPSZsLoULTliwefiTsooFGEfsJhLP7aLoxyVUvn8O4U9BX1OhZ8GIsP54tB/cypZtFqpOC3QPXhe3ISLPNVImo57Oejt82TzGV5vcnPu4G/3y5JB3getZYIjB3dRAN2lDv2vvHv6gSJxKCWI/fQAoMf3gZQo/2ow5NR4USuK+ks/mR2dRHGE9o+6XuP/+yNs0KhfPIfTrMaUOtyTOYESvOHCDgifIBScCC9i8YPgnpcGAHhvOj4FZ4XQSAZ+VtgIwlek/Hs7Je3eW0vpPP0P1+k/RxF+m7+MBor98L8Ov3U9kSuJUBlo+QmIJ4sdNMO8pYkO8NNV9ifDGR4ifgOouiH34cab9/mc4vl6DOs3ItCWrmLF2CcoIHUypoYHe/hqas1JovupIDNM9/UCIIEUyUw2jC56W9VWidx7F2/s4M3vtXGlKJH6FLnDwExd/Pn+FgXe+y/vlIy5MvMzAJ6C8a/ieqVJHn9lvtK1cdCGSyOyk4Z+i7ktGSR19Fxn6WmhUvIahL5beFcNdseDv7QamMqmogwY7/mqDPiljfpBrcvIxRA9+NO1KA22/2sbFI3WInmG3OfbPPUT66VSp4SMGphmJSx79eCR9GAJRkaEqxsYQRT+fDoyU9t+P6/OJFVcN26ulSA6Kv53HwdQSyj/IZfEsJXTvImd+UeTyPyrD/J2XUf7Qgq3ShF4FHNyM9jt9TFr0ZTLqOYmM641/0cSWPzSQ391OtxjHrFn9WL5RStw9syL6kIj/hIK6N6JGz5Pd/Qkp//MTIovUxVyt67vGPPEO4LPS1sGcPEAiqh/Dn1flc3F/Ppq/maQiEjey8HAm3mM1eE8epaN4I653forx3x6P+KmSqPjHST76U6aHu093xRA1lkFNzUQd+xzddaC5chTf3Zkk3BN6QgyqLXsxfkcXppAYov56jEOT0NaIuFX9RfMpMQog/uqfJ2/MM5yTv6ZN/XT+ahPNdatJ+u2LaJKmEoWL1icfoeOTCbbjZvG53QgxeUw4J683GEAQEIZ+cSMIISf8yY6jSc/6vzcHDCfAuQaEa262MrDSlUbxzT+0YVeuYdPmoIEHhPMNk2fgJ1RPiFHEgCgGPeurMaQa4QMbtlG9ai0L7olBONsQkgMTOOfsR5uYPOEvfSnjZjFrlhI+3skuWwzpXzFGdN1fWqK4uD+KS6P9Hfsr/hKJkLsXkPzXAoIwrC/RJTDyU9+R0n2xnfb2ceIyikA045oz5hvQcw77ueGfRKcTAT2GoEEYXycRMMltnVQUMUTd1Y/U0wPMYMo90Qw0fhSSD26ir+kK0fMCXo3ynkRoaaC3d1iE73wTzLs3xPMFYnWoH34c/Q9LMf58HRw/ijfkmkDZjDppKpKTie610914g227awnxD0DPiTq8NXYUD3x12LDcpeOv7wPxgzpu2DmLpK1jcbcOJU38OWQ/nv98AyJ3E3M7nnSJ+YRl1f08+J2rzfmkjPmwXKTnzBViHzMzM2lqwJj0N9F7cZSZOiYa6OeTUQ4pku8lumfs/hNxH5YZlQkbecOjuaR/XM72twO7mNoPlmI5ETIVx+nRz7pEzR+Dm8K6HZT+wjKK8dSi18Xg/ONBHH8SEUNn83uT0f/ZjvVEwDSK5ywUbXdMaqg+8nqCcrGRBX86yK7dTtrbu4fTB4B+Yx65WCj4+zKsHwq0f+zEumMrltMASkxPPoX2j6Xk76hBuChgLSmg5PQCNuRO4Lnsi1WU/WYX1hMOat4uY/PGImz35lHwaGTLhJgnBnjkQ3H0v7ekyBYbShMbHo+n6pXtOEVAdLL95Yrr20ku1fDCw3oMT5aO+XIY45eN8MedWE61097ejTiol3vXk5t2CcuPi6j6UEA4vYvnf1EOq3NZE8wHj6+TW9zWG6Yf6WITvU1N+Jw1uH9VisejQ52WCMQw/dFHUJzYzkfldfRebKJzxzZcjYnMXBfoX9FZ61BzmI+37qPnogvfkVKad19GtX7VUC6zt6IUoaIG30UPAxcbcL9Th3R3IrEjPG7lPXdDw1E6mq7g7yewRwDA8Dh3P3CZti0/wlXThHixiZ5jb9Fc+Es6uibS1hjUmekMHH+N9hNK1KYlIcemMtO8EcWxbTT85jA9LS56nTV0/J+fce7/NIwpcSSRtnVMEr/OjCWXcRf/Ek+jC7F+Hx/95jCseJyZEaagJ5UPv8AfM2I49M9XW7tJGfNhmUHsPdGIJ2oQPwE+8dD5mzI8PaOcqk1BpW7iT7uP0tvuYaArxNqnPjXUf9pqmhDbXfQc+Q+EtwMb6yLpw5NCv4deZwO+BheS1I/kbsDnbKB3Qn34s8fEd9ffm4dl+3qEf05Db0hm/f8fx8NfC+kyShNF/1ZAXHk2BkMyxrVFXHpsM6ZrYmFKHv5+MTldZTwcfMnL0CN0X8pn+88N2J5ejD7ViOl/OTB9b/0k7tCeSD2BL+VR+oMF2P4xA71eS/pPQt6O9sX1lLxtYb1kYfPXjBi+kkPhwT60XwwW87UXqPj/TLS/uB5jqhHzf0Lu9nIKJ5IvU4DwdjHmr5vI3lRKg+F5KnYXkXZL39CjxPQv5RTdXUGOQU9yeh7ORdksvklbTGdtfIHirwoUP6xHr19A3sHBI3ryfltOwRerKPiaEePqIuyGIna9uGG4f4TRSXhubVvH5wqd/7yOD9atw/7Us3z8wQxmFpeREOw/UQ88x5d+kMbAbzfxQfbjnNvdz8yflXHP4D5DzToWvPQssQ3bOJO9Gsc/Hyb6W6Ukf2s4Zx0Ve4Urv/sRZ9ZnUrPOzMX2TJJK8pg2wktSfj2feUs+4uPH03jfmEJN8eAjdDrm/NJCwvLLtD/3OLXZj/Phz9+id2riVXnUSFA8kMm0j/fh6Unji0uuPhZ1/3MsfPFviD7+Sz5cvxr7d56j9VgPMYkzIpYftq3HBh8RXI3g6Mf3v9cFX0T0fTyfBNqq+2Upd8+w0fjUamrN2/Dd9yzJ/7IuZF/ErcUvAZ9wG14YNJWZhT9jZv927JmZ1Hx9E5cU69CmjrJiuiuNe36yEcU7+XyQlUnN9ywMO+Y65pRYSPiyi4vB/tPwch1ognYlgj48KbS8RcM3H8f+5C/p+QR6/vdG7I89TkP57Xvr4WQgf09e5r8ve8zEfz+eivqSSXti4xraLeSklpFutbHlSzepDJk7mHbK1hmwLLdi+/EEnhCRub38sYDkJy5R3Foe8RtWbxbyB2pk/lsTc9FCzox4jD8I8+76G8JB8YPxaL82dnpCRmYk3a/loo038Pz7ENlzrjK3HamGoqXxxH/DgnB7X4Y+hOzJy8jIyMjI3KF8Xl7aE4JIzStFVFwY55QlT1G8UQ5tycjIyMj890b25GVkZGRkZO5Q5Jy8jIyMjIzMHYps5GVkZGRkZO5QZCMvIyMjIyNzhyIbeRkZGRkZmTsU2cjLyMjIyMjcochGXkZGRkZG5g5FNvIyMjIyMjJ3KLKRl5GRkZGRuUORjbyMjIyMjMwdimzkZWRkZGRk7lBkIy8jIyMjI3OHIht5GRkZGRmZOxTZyMvIyMjIyNyhyEZeRkZGRkbmDkU28jIyMjIyMncospGXkZGRkZG5Q5GNvIyMjIyMzB2KbORlZGRkZGTuUCbHyPslRCn4b0lC9Ed4nejF0ebG0ebG6fHRHel1k03LMcy//x05r/6OnNePUXOr6tFWS8G+WpyTWJ7oqqZgvx3n5ImMCKHuAJuPuxBvcbmfSW6CXmVuEn6R9g43jg6f3Hdl7kgmwciLVL75Ik+d8oLUTGHZKxS3SeEvA4RTuzHt2MHDv99Bxku/RvurlzCfcN/ywSaqkzCnp/Ow8jLWXgX6WxTfcJytxeKB+AmW137qDUxv1iKMJrO+lp2dMHsyKhgxXqpO2bEPKFBO5DKpmaIdOyhqiqy/fF64GXq9dYhU7XuFnPfct7UW4bnBevpdbLW8iL54G/qyVzBVNdA9uRWUkflMcOPmrK2aFzqSyF+ipv3Ue1RqMtisU0RwoUhNi5uYxDWc+/4P6Cp8lopUqDy0h9KOG67VhFBO02KaPxt6RRbMS2DWLSnVS3WLlwX6uRMsT8R6vpF2pQb9Ncc82Fp8GPRziZukWkZWJRfWDiUZ87QTu67jAlVu0Gsi6S+fF26GXm8hUisHz3uJU2tuZy3Cc6P1FEGfuhLLtx8jTw2L9bdq3MvI3Fquc3aVENrctPv/gv1oLcxbyxS3nSLbZdLS1bg9IrM0YXw6qRWbS8L4QELAIEWryX7ASPqpw9jbRJgZvL6nmbL3bFS6uuiKiidjSRYvLNWixEvloXdxJq5ly/yRZfmoeucQjnlr2TKvla37L6Bfosddd5KKjj6maJdRss6IIbT1ooDNrSQjc3RD1d1mp+R4PVbPFYjVkpO5lnz9YLkSgrOasnoBR+cVuvxK9PrlFK1MxRA9XKca2xFKzrYiMIOcdB32DiUZpggNo+SidE81dknEKUj0Tbdhfv0kRKnJXb2K7GlAbytWj4r0aZcp3X1gjLaKOE4do6y+GXsvzNYupHB1BmmxkVUjIMKNxXqMXcJl+qYlUWC4giNqLk/pBg/XU3qyAZv7MpcGFMTPTCL/oSyy1YHjQv0Bis76oKcVBwp2Vb2BFZgyL4OX03URyYjghkWgkxF6jZ5K8rylbHkoeQKGNpxefViPV7NLaKXBKyJGx5OxaAVFy3WBfh+JXsPJAJC8VNmOYTnfijCgIF49mw0PrsKsGx4bYmcj24+fpKqtiy5FPNnL11CUGryh7loK3hPoGriMtVdCW1eB+SwQO5/CdUYMEd2KRrYeEphlUOOss2PtUWC4bwVbVyYNGdCI9Op3Y9l3HHFRJgbXUUqdbi5FzeCph3LIj7bfeD0BYnVsWKqDzmq29qhIn3d9i4V2oZaXTzqD88IMTEuyKFykCUa0JJz1xyita8TeI6FUzSB9URbFSwJlOU/upVQ0UvKgbjgC1tvI1qoL6DPXsOEzvs6S+XxwfZ682Ejpnt3kle+kQID+lncxv7aX8gFwnNhL0VlveBkdAlZRTdq8kbO2AqUiaJE67Zh3vIFF1JG3chXP6/uoqHqdohbAL2K/4MTWM4rstlqK6vrRz1Eitpzh5bNnKLEJxBjSKUidilB/mO3CyGuaqWEupjnXimt37sX06jGcGiOFq7PIUQgUvrmfqoHgCX4PVWcvEz/PSP5Dayh+cC799bvJO+4JnuCjcvcO1p/6CxnLV1F8v5ID+45wkLmYdOFvVaAMJYsNyeTMVOCWtOQsXUhOSjI5KckYVYFTxJZm7H4Ra/0YbZU8WMpfYv3JKxjuz6J4pRFt2xHM7zRGniIRmym0vEpppwbzylUUzGylsMqJe6ae9GgACdvZBtwqPebMNZSuXsZibzXmPbW0B0VMUevJSZlPvORjlt5IXkoyOSmpbEgcnNXCywh/v8LpBETXEdb/vpr2OUspyl5D4VI9cdInkZZARHrtbKSyDRanZFC0dg1FBqg69DovCIP1DK/XsDLwsWv3DgouKMl+cA2lD61ggwa6peFVbHfTYbJ3HKBaOZ/8h9bwvF7Csmc3ZZ3BE5SzMRmSSY+W6FYbMC9JDtYjIeIFj9hSR0l9LVtPuNHfn0XRkqk4jldQ5BzasBOZXj0NWE4LlL+7h7Le2eQuz8Csuyuw12cS6hlKd4uAPXouGaOM+/GRcBzdQdqbdtq1RgpXr6HQoMTZ1jV0hmB7lex33egXZVGavYqC+9T0Dwynpvq9zZSfbw1JE0hYrQd4uVeDSTbwMpPE9XnyymRK8hKofPMlyuY8zYHlXRSWHUD5jWcoiihUD4LQiqDUkR7qyHou0YCatOkKwIel6jDWOWupeSw14AnoJapOvsE5tw90EvghJloBiDjqz3BJu4xsjUiVzU5/6pOsV4FDcNE9LRnLY2swKYEBHzuPXrpmeeMQWnFrjaSPDAqIDRTtP4PW9Azl6YGRl60QsLzajMML2TOBKC15jz0WctFs2utqKRYDprPbeYjCC/EUP/MYZnXgeG6dHQeDhjECojWYUjS0e0/QrUli0/2p13gt4drqeG83hd6FHHx6FYuD5eo77JSfdeMmKYJJUqLGuhdL1DKsuVkYogB9PxUnduMcCk8rMK38JqaQq2a5a9nuFOkb/L8umfXaRqyHlJgezGB96sg+E15GWMLoBCSsJ2txzltL1QPJQU8qgexFkRYQoV6nGyl5IuQinUjl8Va6ByRAEZFew8roPIPlgpIN5lWYg8YqbX7y8Pm+evL/cAb96mewLAquHOZJVJ2swNEhwXQFqHWsV2vYVb8Hrd5IXmpC5DciiENopX+agZInHyE7FvBPwXayAWuHFwwaItVre4sLB0o2mTZSnBgckIuMg42/4XoOI1EttNKvzYp8HAYRLxwg9zgUmJ8mXxvsv4kJZA+e4HdhOekmefnfsWVR0JFJTGJ9iAztNBX0+nD7YVYU0HaMwnoVBU8vk1MHMpPG9SdD3dWUuJMoelRN+6m9VGoysEZo4Ify8XOMZIRc4mhy0a1KwDQT6LBjaVJiNqcOd3j/J/T5FcTFBga+6FegVIDoOsamP9Qye+1CsqPslDbNIP8ZHUq82Fp8LFiUETB6AB0ezjEjYJyH8AXyqKPk49vrT1LhN2C5P2RpPSDRhZJZgzJFN5UnatnZdAmhVwIk3F5IX6QBfFSccILhm+QOBS1E+gcULLjvOvK2LW60uqxRwpKe8ds60EDZSTfx2rlUvXeEKgjUs8ULKhXxkRQ/0MjLp32YsjMCBh5A6qMbVUg+PpgOcLbS0CMi+qHf5yHOkHX1IqJDoFrUkDdvtD4ToYzxGFcnAZQKBd1N7/LUnss8rNdhmp+EIeK0RWR6FTsbsdjqONjWxaUBCfwiwoCGoplX5YrG0WsEMqIAPFj2vYGYosekT8akUw2FgJ2njlM5oCK3o5at7wZ/lDzYJSXZqpB6SK3YXArSsudGehNC8GBtEVmw6IGAgQfgL3QPKIhXDg2UCPQqYRMuEXffWp5PHCPld0P1DMHvxuYSWZw60Xy8j/L3zkDqU2zSjjXnKZgSJWE7vpvNPcmY9AmY5msDxjxI3LSpxPRe4ZIfFuOhrKoWln6bTbIXLzOJTNDIS1irXmGzU4QBH4KkZPNLjfT1+uhWXMZU5ublv12DKZzUkfl4AMnFTqcXvcGISQHtTY04VElsDQmjia5matCSH7KYiI/yUf5eKxkpGoQBEautFrfhEXKnAb3NVHtUmFYPjxpBaEbQJJOuIkTwWPl4CVtTK+hzMIWs9J0trXRPTwqEU8VmCi1vYNVk8LxpGQtiFeCp5qk/XMY0TwkD9VjbFKQtTxjOu/lasXZex0a1wclt7SiTWzAfb8oeo61NF7AOaAKT/9BEo0CfmEGJLimyjXquC9RIc9kSMvmKLa3Yo+Zi1sFg+Drfk0Bh5mrypiuJ8TdT/PvDiPqr6ywIrZybnkD6tJGFRC5jTMLpJNh2U/bTHJhZS2VTI6X7jlGgTKXi7x4jO5JHBAaEsHoV246R85qduPtXkr9WgzZagbtuNznOuWSEtnscvUYkQ51BuXkqltPnsZ4+wvZ3D5O+8hkOPBhYZFqb3GjnLEMfHfL0g0LLU5nJPBzaBTsErAOzyR914RWGnmZsnSqy7wsR6BGo7lWRrVMRsV79rVS7JNJXzh+7T95IPUPxtlLjVZGun6BVFQWq2hSY0ueO/TRJlJYt3/p/mHWqHqtQS77tMMr5j1Cz0Ti0oFCq1MyW3LgHoN15mOLehex6UDuxJ1RkZMIwwVGiwJj+JOXao+QeBcsTDxB3ejd5nRlUPZREnEJ59Wa2segQqBbVZIfk450nDmEZSKL0gUAyU/D6QKUKWfmKWOsa6dKtIEcN+P9Cv1+B6DrGLtUKSmbaKOi0U+ZUsckcmHjFlmZsCt1QCDMQQfCg1SVc7TG5W6nxz6bomrycF8ErMVs/dXjgSS4sZ70sSF3I4igQ6o5gYRnWx1YEvVuJmlPNCNOSA5OwpwtBUmKaNnxjhHo7VuZiiTQfH3rfBjTkjRIxEVuasUfr2DRGW8UeH+7ouWzIXIHpOp+p6O704o5Wox/y1HxU1l2gezDc2VbNC04Vhf/jEfKCBqj77FFqRC3580KnrkAkZ1TPNWIZYxNWJ4Mo1JiWr8K0HF64sBdj+SXO+YjMyHvD6VWk8mg1guGb2FcGFwJ+DwcFD3G6LBaE6mBMvUYuI25OKvlzUsnHS9mOFynquAxowO/F7VOgX5rBlvTxdy22t7QijLrwCo/YIlDtV7F+6FoJR10D5zQLsWiJXK8eAVuvltxxdH0j9Qylu0XArphL3hj5eFEU6UdBnHKEXnq7cPsV6Ef+PpJpCZhNCZgBxzsvYTrrRhgMzQOoVGi5QntHA0VHL7EmO4e0CaYNZGTCMeHpPk6txHlewJC+kg2aPqwXYLMpg7SZGgzTVeEFEPTiFDPQKzw4Whoo27+DnKMi5kcfYUNw4MbFKsHroqYHQMJ5ci8F51UUrBxcCQfClgdO+9iQmcRshYKG07U4Eldgnh6Q4RBciNqE4ZSA1BrwvvQjPGixjy5/H+5OH92iGPIyHyVxSgVCWyuCH5C8VO7fg4WFFAc3EwgdHvqjBgsQcZyoIO+klzidPjAJxyqJj/LhaAtsRuxuOcLmoy7QTiAfP4jXi+AnmIu9mnBtVWrU6MVmdjl9Q9d0dzSy67znGlljEROrJEa8hMMTCH87Tuyl6LzIgnmB8LTo8XCOLwwtiNqbjmGuqkdQj/Bc8SH0SCCJ17wAKXIZYxNWJ0g4ztbjGLwVkg+rs5UubTIPR+rUhdOr30tDpzgcNRnwsGvf67zQBumJIzzAsfQaiQxvM5UXvEMbJ0V3Awc7VeSkBHPVUWr0arCfPYNj8KQBLzX19dT0jrhvnV7wS3Rfx4sqbEIr3X4vNW2Bi9vPHyb/lIT5oUBqJ1K9tgsuHNPG1/WN1BMkujs9OD1uKs630j9dTZzXg+AdIazXjvnX21jwB+e1z8+rNCRH+zhY10B7sP92t9VT5Q7qz++h6nQz7YPq7HVRJfjQ3xdwDIblTGUWPioOHeaANosig+zDy0w+E493tVVT0pFM8WNqhJO7qZyZiW1CO1MDXpw4ILH535uJi1WTkZhM8dMrWB+SpzQsWYH5dAXmf93GligRMTaBgic2siXE2xH9EtpFWZingRitoHtATcEDScGJxIPN5cNwX8gz424B22hhPr2RgjkVFP37rymMUrPl6WeDXr2KnAeXYXnzMMZtx4jxS8RrjWzfuGYo721MSUZff4SMX9USByQvWhgIDw9OwqqFbFpUzVP7X0JrVRA/fT6LYxkyjBNiXipm7QFeKPsFhX4wPfQsBx5QR9ZW3QpKlrdi3v1rtPtVKCURUanBvHojGyIsXjk/gwLtqxS+so2SaAX6xARmKVQYBxcS+oWsj93N5n/dxtZoUM4x8rBGgX2a/mrPFTXZqUmUv/cG2p8BsUYO/M9HMCkmImNswurE78Fq20/hm7uJiw3ciylzlmF5YkXkj2CF02uUhhyDlrL3fofeqUSJmpxFWvQKZUjKIMhYeo1Ahthmp3B3PblRSvRK6PKryMncSMmQwVCR+9AqrK8fJv1X1cyKBVEEvX4F21OurobBYCT9fDXZ26oRrxoH4XBT4xJJSzFg/8Ov0UdBd5QG89qNlAQfb41MrxK2lkvE6dLH1fX11xMQz7CpbC+VQ+upataUVTNr0VM4v5E0tAgRXc3YJDDO012bNohOZkt2Krn738DgVKJVSPTFGij9VmrgeE8rlkN7ydmjYFasAnEAjKlr2fmQ7urFXZQabazIrk4NJU8Y5c12MjeFv/r0008/HetgXV0dBkPE095NQKLd46ErSoV+uur25aokH4LHB7Ea9NNGWReJXpxeifjpGmaN4Z13ez1c8qswTL/Nq3XRi9MrglKNQX09dZFo7/DSF6tGrxrlXkgigscLKs3oxyMqYhJkRKAT0edF8EkoVWO0JQLC6VXs8fzf9s4+rKkrXfS/QQoBP2IUSyhYd7UdEmobUnsmVG81TqvEkTaldgTpnDYq3X6oAAAZwUlEQVTWOSPUZ8phWpV+To79EPTMZdLeqdD7tKTnTCu0YxmsjtCPMeq1kFobU6sJtWK0oKSiEHUgYSK9fyRIQFSwKOrZv+fZf2Tvtdd6185a613rXe9aC5c3nLiY0UgvcprkgnH4vbhbW2nplJwnHT/u4820+CXIRo8+5ze5KE7sYM7/qUFjeALjmFacJyBuzGikvT/pYPyvVxJ+L67jpyBiBMJZdcmPp7WVI17OWwZFRC41V7iSFxERudLxfv0+wkcSyp6478JOtyIiIpcVsUqKiIj0ifdEE/bm9nPuTRAVPhLFjTE4m1qIE+4mZahak45W7IdbaDnXgUBh1yHckIAgjqZF/gciKnkREZE+8Xnbaek4t3ebl5EAaO79DbbLJVRfdHhp6fCe+/TLsOsuqzgiIlcSorleRERERETkGuUyHaoqIiIiIiIicrkZFCVftViOfEnVYER1SfB+biJTIyAbGUXUuEwq+7m+1v1WOrKoKKKioohKNmK9to49vwbwYtmnJuWA/UfH1LxUTU3+Vs5l8RURuTJxYdLJ0Ba5BiW2K70t7wuPLR1ZYRRRwUtWUXnpEmsvZs4OA+W+S5fEYDOEI3knhTNkaF9zXeJ03JS9YsSebMLmaqLpgBl9P1eOxT5WQUt7O00luqHdatLrovKZdFIEGTKZHOUMA6bPztqi48IcM5M+To3xy8EXcUhoK8F4PJG8eFWfjzvez2b7/FLa+nw6OLS+PJvtS9YxpP2/lnXsVs9m/9dDKUR/qMf1oBrbWw0X9/q+dex7YiE7Z6rZlqRmz/orvKWtL8F2ZzaHT17KRGSo7jEwJynqUiZySXFuSTmjoHtcbxix96PXHRmrZ7E6l+wbL8PUcpSBXKmVggZr/0/uHGKufXO9vwlXAyimaRHGSpGOuPp2lbKvysTwHix4swbnLgtFOjdFWYsxNw61ZEOJF0tjMS6pAb3oNf0/A58PbkwhLi+LUcOGWpgrBSnapUUsT736t9KRRClQjVWduTQyOZH90FCSGwwUzC5g5eTEyzAYk6CL1cPRNVT/85InNihclJJ3bzSSnixHNk4gZZGpe3vQrufVhRjSUlAmyJCNE1A/kId5T7Df47djvDOKqCg1xs+9WJcpA+bwKDmGjV0xeLC+nkP6NCXCOBkyQc2cxcVYBzJ49VvIU0QRNTKFwj1eqhbLA+mEmOvPK+cA8O6vxPiwNhBPgpKUDCNVZxSwF+e7ecxJFpDJZAiadIzrXb3klJG50kyeTo0glyNMy8Fc1xXASdWndQjz88m9R0HsBAW6pQUYYqopr3TRLw4WM0cWRVRCDlWnnBROC05ByNIxH+sO5vmymJx7lMjHyZArUjCstvT//PbuWLC+nsOcO4P5TZ5Dzlv27l6v20Lhwyko5TJkcgHljExMn3WVDSv5yXLS3+qZqrNIi2xaIc7Qm521VLa0oJXddVEV2/vJanbrNGxXa9iZV8rJXoPCjm0mHL9Kw6pRs02tYcevX+KwszvQ8Wc1bEtKYvc7DXRufp6apCS2JSVhfXlXMMRJWt9ehl0/nRp1Ets1s7Hll9LaEpqKj1MVz2PXadh+m5rt09Ow/35DT8tDm4PDKxayY1q3HE31QTkaS7HdlsS2ac/T6mvg8PyADNtuW8jhHumcj5M0LVFjfWI1+36dhnWahpq0bFzWkOHnaQeHf5/NzllBOWfOY8+arXhPh8bTwHcL1Oz848c0vbyQHRo12+6czs7XdsFpBwfSktiWlMZ3Th+n/nN2QM4kNY5P+isnMDmLW55azA1zkwn/EeuCOg99zIEn5mG9U832O6ezc8lqmkOKnN9eimPBdLbflsR2zXR2/no1zcHdnzvez2b7rJdoDc1728c4pmlwVF/SIXsv3BSnyYJtZ1/mei+Vj8oQFpkwLdKiFOTIFXPIX9+zbl2oLeeUE/OT6aiFrjYyn/K6rtrsoSpXjVxnwtllyvJaMU6Tk/LCwEe6ibebqf117ZnL8svswA6UHVaKP0wn5XUB+WoZsiIlKe8bqep3GQ98D+fufNLfEJCtliH7oxL1f+dg/j4kSEslxvdTUBbJkP1BQL02D3NTH7kYpUMbVsXa4xdhTR0CBq7k9xdjWGTGm1FGzRdVFCgsrPlbz8y2HGtHmG/EXG3DWVuJ8ac28jOexuIFwlUYv2invd2G8WcSNKsctLe3097ehHluVwxemv4RS+pyM1W1TmwbV6JtLCDjifKz95E+F+FaipzttJ+0sDxRgq6kKZDO0bIz5vrzytlfjlWSN9dAOekUVdtwbi/D+L+8uIJ1ybvlaRbkWoh9ohzbrhrMmWBelEnhV6GReKn+q53UN224XLUYEzaRvyKYV3/wCg9VZZFERYLN7uxfRZqQzaaWdtob1qAboWD59vbAt2ipwDC2Ox+585/GNtlI9Rc2LH/Q4TZlYnjdNYCPAc4iPfpXHKiWlWP72knV6xnEul34gvmsWmGg6JiOoi1OnNYqzE9qkQafEq4h/Rdx1KzfFNK5cFL9VzuJD+h7bjnbZqXGr0A98tzn54WNGodEPursQn6olLr8v9A5dzXqDWu56adbadrcU8v7mzuQ6Jeh/POH/EulmQk32TiQ8xLHg8HGvGzl7r17ue3hBMJmvshde/dy9969aJ5NDsbgo6NtHGN/+yq3VX7ElLefY7S7GMeKDXSckeNd9q2wErGohCmbP0b9xjLGTYwMkaKZw0sXc/BAMhNeD8gx/kYb+594lVYfEL8Q9e693L39RUZHJnDDewEZ7t5dyg39Oju4m45ttYT921o027eiehSO/O45mrqONfCf4HSEhvEvmVFXfYj65TR4L5e6st5mdx/e900ci8vmts213LWxhPHJo2CYkps27OXuvRsYr4hkxFMfBeTca0N578Dk/NG0fEzdo8v4njQm/flDpnxQwoQp4D0afH7awcHlr9KmfB5V1VamrH2VCffGQ1CpR8ycxaiWrRwLcQPp/OxjWpnB2Kkje6YVOZKI+HGXaJ1yLNkbWmhvd1Aw49yh3BsraHmkEofLRfViMC8r6G7fLtiWuylfpMNYp8L4gQ3nF5XkT6ol92EjVi+AFN3LxRhaVpJdZMeLF+uKXIoleZQ8o0ECHFkq4cNb+74+erGf5ph2G5XfOpGMm8MC1WIMN0hw1RdiqDL3fxDyvYnsKhNVXoFMdS65Ci2Crxb7ieBzXxV5azMprG9CmpBJ5kQl3oZict4zUN677/YTNSnRPuwnhnThaL8ZcPlzflBGrTyTqqVaFOGgyDNi+IuF4pAwiiwjxpDf+uUGzKXFWL4B7e39SSUW/dLQGHTk/kZL0e9qsfkzBm1XrR8vJ7jeLaYMAxUluWiD5/Pofts1R+zF8m4FrhlGLI9pkAJCXhF5G9QU/9nK8lWaYDgJql/loosHEEjXp5D3ig2nPwNNuIAmRU7B+mIqFxWhnwCuD0yUfePFl+DBB4NiovJsNFPpz2TtyxmoRgATjBgfqURXXo7z8eX929PdW4XpT3bUz9gomC8E7sUbME7tCuCjqdGDLFGLNjEWCbHETlCgCYlC80AqcW9VssltwBAL7K+mYq+K9Dd6SeB14fpBjvw8pvrw1BeZknr2/baqDZyIeQjV49OJHgbRv1mGfOM8mkLCRKcv5aaQ35LFWbj/UornAIzp18eI4fqcpSG/E5jw8AwOr7By6nQaY4YBzY10EMO46clIYoCY6USHxu18hyOfTWJ8VS7XB62x8qeyaZn5Ikd3LWV06If7sfwsi/GagJKKfnAhMa9nc3RzM/JfxkCkhvHPhiQWv5D4e0vZY91F58MJPTtRyixueUxDBEC08ozcVwreilKOk4ayYCFjgqcpSh5TdgfwN9DRDJIpKYyIHwnEIJmY3P08ZgZjp7zEd5t2MemOZMDH8U+2wNSXGNNLxxOfxa2X0AesP0hm5JA3I9ARVj2oQ/1KBfaDoE3sR1v+1RqK/q4kf5cRfXzgVsZ/5LFJkU+ZtQDNDGCEBuOaPHT3L+Zp1FjelWGsXo4q2ChFa04Tf472+jpVz9XbdmsKUdYzkqO524ZlqgAjF1D2eDbSn3hwt7fQ3qGg5Z0cypss1Hb0c7qu1YWzE6Tj0smdnosiAsCLN2iBcH9dgvkkCLeasaRpkQB2Swop1mrMe1xkpAghkUmJjZDS5HXhgf4d0z2EDFhdur51QmJO95Gy4Ymoe7e/deUYXyiicnsdrmPBbmO4QGJvU9B5cFcXsnyVmaqvXHi63pNmDKqzw2DI6fzaBlMMPc+nP0MTdQc9CD9ThhQEgURFJE31DjxoztyXx3efjCcdIQGvL7jTmATtM2vI35+DYbIMwiVIp+WSc38sBQOQ80K4vnXBJC2KkHwoJifCf7lw+enfEcKNdTg8AtoeFSIUKXOy9BQuyURdp0V3hxrVPRlk3iN0d1TuWIA+IZXKajeGR2Jxra/AnpROcWLPmLyd7fiQdJ/QNgDa6htg0kSiuwYSwyYyvMcIGjrrN3CgsJTmXQ46zvTkE4gegBefd7OJ/Ws2cmJfA/4uQ0F0WrcH/61pxCo+5MCDabRMTWHE5GTGzk1jVPAkPL/DQZvPyoGZSRzoEXMkY5p9QE+ZfwwR8QmcaSuHxRMVD631DUAM0EzrW6s48N4W2hpP0tllqp7qww/d7xFJxGQ1V7KLxKlv9kNSFqOizxEgMoXY9Hgcz81l5/oURk9ORqq7j5hbujR4DDE6DQde30BrfjKjfVaOboPR/zH9itxZTCqP7W57JFIkeGkJlsULteWer53UnbKQd3MUeT1ilaB3e+kaXkjuWE7xk5u464UKtKZaskPqqvShf3LHQ/2TVRKlIDG6q0xLEIYHnQk9Flb+LR9zg6unJTfMQ8s/oV8FbryO9OFmzIfyUb9WhOp6LdqkHPLUAYuDwx2wirr2zEG2p+erruMuQOhxLyosCn7w4uUaVPJdb0X2+n0Gv52CR7KpnlxE2c5MVLES8JSTfrOx//HvL8bw6Bokz5qprdQijACqc5A/2s6g+dMOhpyDyHlH42O1LP+rg1yPG49XSmysD/MDJqQTYq/4Atab2PlmbNPsWD61ULulAuNDRZhfsGDJC7Yu4SrSfxFH8fpNuLO0VG6wo3rAfJYlQXKdDPlPXIFKfhG6LmxYZM8RaKjl8LSDg088z3HlcyjXpzEqNhJOrmP3dFP/l9gdKqVu6TrCHl+N2qxBEg2dm5dRs5TuOCKTEf78Cdd/sYXjX+6iZe3zNJi3ovxgFTFBc3uYbB7KrS8GRv6XkM7TPX//EPK7Y/2LOEqOIi9Yy23TJxI+DE4Uzmb3vrPjCYscvI7HpaHjAv/hSMY8u4F/mbeV41YbHksxdW+9i+fNdUy6I5C3CO0sRheUcMwOozwbaGUGt0y9QvN9oRb+fG05QGw2m74tuoD11I39CxdIfDitTjyPCWfapZay69i/8yd9vPMD1009jSq9+99IvN1Mrbb3ShkP5X9fjKnBg3ScgQK1FiHChfkjI1V+6HeFjNKzZmEt2i/XsumQBcvhckyHK7GcslA7oztNISGbjLierWqUXOgVmZcWfwuR4XFXRfs74HGQoFCAy4XrzJ0mXK6QAMds2OsF9EsMAcUJUOfAddYaIwmScMDfx9h8Ty02yRwW5wQVPOD6xjF4Cn5AckJkeCR4vX3u4a2YrIadtdT2OaqWkzghEtdeR0gP1EWd04d8onLABUQijSU2VgIH11JeG0nKNPVZYTyNbtzuc9g7ghXV20cehZsF2O8k5Lh5nF/XwQQBob9dwfhElFIX1lrXeYNJ4lXoHsnF+KaF8pw47NUWQt9QPaAn7v9VsunzSiq+UpF+v3B2JMNVKHDiPNfG6uchemICNDSGOLgdxdcYUrpabJxoHMeYR+cFFDxAfX2f341w6Gv9XOc3uzgVOYO4RwMKHsB7oOHsNmnYSKI1aSTkPMdta59jdOsWjgWXwoUrlUS02fD0oUz7pOPCQc6Ff//ebiuZr562QxAxMQGAtt02Ou/MYvzMgIKHk5w6dPQi9hSIYFg44P8RgvaH0yfpaGwIscB0M+KnSsL2WjlxAYtMhGI68kdzSSw1E39LI8e31nc/lM1m7J0emjdtpbm6Fu5OO2P6HyjeY27c7qFx4LpQWy6drCDxHzVY9p4/Htcb2Sy3z8FcXYTq0zwWv9c9U+7dOYwjfwvr4xqG++u+lH8vOo/gagkYxXVTi8hVZ6AXYvusc5LrZIEOy6kjZ8/V+z14IlVk3F2A+eFanA8vRxXmpe5QDS5AOS5gTWyP1pL3cyPG4JU/JR3deKF3jqlr86EYfjm8+X88A1byivszSTlYRsnGwGd0V5swfx6iVKQCQuwRrFuCTmEeO6ZXzH0oTzlCQiTOLdXYj3nxhuqlSUqEf9iwfB4o/N46M8YS++CuS+y3nCBRqUk8Vk35B07cbk/39AEgZGWTiZm8JcVY9rhwH3RieasQ81cAErTzFyDfYiL3LSuuRheWojyKvkokI3MAE6qNVRS/Vo7lczvWjcXkZBmpnZRN3v29ugl+KytTBRTzTT090bsYLiCMdVG7wYr7lLeH0pLONaCnDOPvy7EfdOHcaMT4X0dIyczo/xnrEh3Zi1XYVuWQ/54VV6Mb1+eVmF6rCnZy3FSuNmKutuNyu3HvqaRiiwt5ogJ5aDy3p6OfYMGUZ8Z+ezr6SX2kFaEldXgLta195vS8ROvmMaJxHY2bA55lHZtLaHKEBBg5iejRRzn1WX1AkZ108N1rf+nlTR7M8oR4cGzl+/qTdPo446AVljARSZsNjz2gaTrr13Hgv3f1fNn+Lvvf2EBrfTMdzQ20rv+YU8MmMXxC8LliHvFTj3J4+fM0WOvxNtZzYts6DuSv5vtQz+JRCUhGH6X171Y62nxnjcr7hX0t+9/ZRVtjPc1/NNHMdGJnBuYNJMIk+MZKa9ARz1u9isbPLqbLLSUyPoK2mi2caPEFvtdA8DXT5nRwytGA3+/D3+TglNNBW28v6/p32a2bje3VXWdFIUlfyBg2sP/ZUo7va8DbWM/xMhOHu4pRm5XvCkv53t5AR3Mzbds+xHMwItAxPMNIYlJT8Fev4uBmGJOquci1yE5MDyoQ7lk5JBttXbAtv91A9s+bKP63HMxbnLgOOrF/aqZwsZHKYL/E+1UhhhUu0v9QgP4OA6ZXNNiXZWPeH3get9rLfXv6vmY/34+CGiagGBcLeLDuMVPlqsL0t0Kq+uphxqlQh4O3qYCMyjzyP8rHVB9U998Xkfp6Cpkf5mO0GHl6SyV1nSAdJSAHYifnkjkc3N8YSCnNxFBhIP1tNYo39BT37jH4arF4BbT9c84ZcgZeNidlYy7R4/q9BkGhRP9/paTeE6JsJFqMf8pDWqZDoVCi/oWRIw/moD2ryyMhdVkB6S3FpAY3eTmzhO7WXEpeVlD7mAphshrtk3a0i/QMqg9Pv+UEbs3G9Ewitb+7C0GQk7LC2v1srJ6ijWb0fjM596hRTEsnv7odedBrXXLPSir+oMX9qh71ZDWGdyCzpIz8OwYgazi4NhZgmKtFt9iEQ/E0FR8Y0Qy0GxmuJfcVA1Ef6FHEyZCNC1lCN1aP6b2VqHcZSU1Wc1duFdIlZsw5woCSUC2tpHKZgH1VBurJCrS/KcYZGRc0CUqQ+p2Yn9WTMlmBItWIPXklZSu0PXvE4SrS5ybi/MpFygP6XrNhXQikX6/Fdayy7w7N+bgxi8SCWXQUPkjNzNnsLhvFaE2I0TJSw4SCbMLXG7BOn82OX62iIzWL0X1YZCVzc7kxeT8H52nYrk7CWhBULIpsbnkqidZ/v5eambPZ+cIupP86q6c1NDoSf00xdf86C+vM+3B8ANcXrCLhxq4ACdyw2sxNPzuKe+k8dujmsefldbSNnEh06MhxmIbxT80jrDo7sCwseSBL6AJE6OYRvXUZNt089m0bR/z/fgl50DdA8tDzTJq6n/16DdZZaTg+mUjc/QkX0XiMJObxZYzxlLJ7uprt6gEuoTu0Dscv52Gbv5oTp+HEH7OwPTgPR1n9hd/tQjaLxLdXMaZjA/sW3McOvYEDmzuI6FqNMCwSmj7m4L/PY8fM6dhe2Eq44VVuub+nV134zFmMbqvHGzmDsRdrqvf7aP+HF0lsHLEDnTj9NAdhZBRRUUryt3ixPhNcipyQEzBj94cLteUIGN6swjSjieJFWtTJWvRPmrFJlSRGAqesFOQU4ckqYmVq4L3Y+SYKUp3kLwlZVvejkKD/uZnlgop2Vx4L/vo0luE6dH19cqmBAm0GmkgPVmcxJlsJFY3BijA8BV28DNfBMkw7CjE3eVHdbMT88+BGZ1E6ih6uwHizCjzVlH9TSY0HlDcb0I/tmYy7uZKaKAOZvR0tr1DEA2pErl46reR/mY1vYg1FY64Gw9mVyEmalkzn4A2lIcv/RC4LB03MSS4i9m075t5WOZErkx/sGL/MxD2hljUxV8d/du3veCdy7RKm4emf5iKcdg21JCIiA8azvQbb7Tnk/+LqUBYigO8IcvkajFeJggfxPHmRqxzpKAO5Qy2EiMhFIM0qoylrqKUQGRASHdnxQy3EwLgKlbwX6xtGKr49T5DkBRRk9X1oichF4HdS/oIZ23nm2IQHjGRPFU3mVxId20r5bmvjOb3gw0ZpiPvtLOR/svV0fLzcHPqYA2ut+M9VvsLjGbtoIWNiLqtUIiLXBOKcvIiIiIiIyDWKOCcvIiIiIiJyjSIqeRERERERkWsUUcmLiIiIiIhco5xXyYeHh+P1Duo+cyIiIiIiIiKXifM63h07dowjR47gP6fbq4iIiIiIiMiVyv8HSLW7EXEy9PoAAAAASUVORK5CYII=;fillColor=#FFE45E;strokeColor=#FF6392;fontColor=#5AA9E6;rounded=1;imageBorder=default;" vertex="1" parent="1">
          <mxGeometry x="148.5" y="955" width="505" height="99" as="geometry" />
        </mxCell>
        <mxCell id="7bl6Vf3JTjFMhsMhAHnB-19" value="&lt;span style=&quot;font-family: Söhne, ui-sans-serif, system-ui, -apple-system, &amp;quot;Segoe UI&amp;quot;, Roboto, Ubuntu, Cantarell, &amp;quot;Noto Sans&amp;quot;, sans-serif, &amp;quot;Helvetica Neue&amp;quot;, Arial, &amp;quot;Apple Color Emoji&amp;quot;, &amp;quot;Segoe UI Emoji&amp;quot;, &amp;quot;Segoe UI Symbol&amp;quot;, &amp;quot;Noto Color Emoji&amp;quot;; font-size: 16px; font-style: normal; font-variant-ligatures: normal; font-variant-caps: normal; letter-spacing: normal; orphans: 2; text-align: left; text-indent: 0px; text-transform: none; widows: 2; word-spacing: 0px; -webkit-text-stroke-width: 0px; text-decoration-thickness: initial; text-decoration-style: initial; text-decoration-color: initial; float: none; display: inline !important;&quot;&gt;&lt;b&gt;2. Parse the response using the json library to extract the relevant data&lt;/b&gt;&lt;/span&gt;" style="text;whiteSpace=wrap;html=1;fontColor=#000000;labelBackgroundColor=none;" vertex="1" parent="1">
          <mxGeometry x="123.5" y="139" width="530" height="40" as="geometry" />
        </mxCell>
        <mxCell id="7bl6Vf3JTjFMhsMhAHnB-20" value="&lt;span style=&quot;font-family: Söhne, ui-sans-serif, system-ui, -apple-system, &amp;quot;Segoe UI&amp;quot;, Roboto, Ubuntu, Cantarell, &amp;quot;Noto Sans&amp;quot;, sans-serif, &amp;quot;Helvetica Neue&amp;quot;, Arial, &amp;quot;Apple Color Emoji&amp;quot;, &amp;quot;Segoe UI Emoji&amp;quot;, &amp;quot;Segoe UI Symbol&amp;quot;, &amp;quot;Noto Color Emoji&amp;quot;; font-size: 16px;&quot;&gt;&lt;b&gt;1. Use the requests library to send a GET request to the endpoint.&lt;/b&gt;&lt;/span&gt;" style="text;whiteSpace=wrap;html=1;fontColor=#000000;labelBackgroundColor=none;" vertex="1" parent="1">
          <mxGeometry x="170" y="-6" width="510" height="80" as="geometry" />
        </mxCell>
        <mxCell id="7bl6Vf3JTjFMhsMhAHnB-23" value="&lt;span style=&quot;font-family: Söhne, ui-sans-serif, system-ui, -apple-system, &amp;quot;Segoe UI&amp;quot;, Roboto, Ubuntu, Cantarell, &amp;quot;Noto Sans&amp;quot;, sans-serif, &amp;quot;Helvetica Neue&amp;quot;, Arial, &amp;quot;Apple Color Emoji&amp;quot;, &amp;quot;Segoe UI Emoji&amp;quot;, &amp;quot;Segoe UI Symbol&amp;quot;, &amp;quot;Noto Color Emoji&amp;quot;; font-size: 16px; font-style: normal; font-variant-ligatures: normal; font-variant-caps: normal; letter-spacing: normal; orphans: 2; text-align: left; text-indent: 0px; text-transform: none; widows: 2; word-spacing: 0px; -webkit-text-stroke-width: 0px; text-decoration-thickness: initial; text-decoration-style: initial; text-decoration-color: initial; float: none; display: inline !important;&quot;&gt;&lt;b&gt;3. Apply&amp;nbsp; getBoosterVersion function method to get the booster version&lt;/b&gt;&lt;/span&gt;" style="text;whiteSpace=wrap;html=1;fontColor=#000000;labelBackgroundColor=none;" vertex="1" parent="1">
          <mxGeometry x="140.5" y="286" width="530" height="40" as="geometry" />
        </mxCell>
        <mxCell id="7bl6Vf3JTjFMhsMhAHnB-24" value="&lt;span style=&quot;font-family: Söhne, ui-sans-serif, system-ui, -apple-system, &amp;quot;Segoe UI&amp;quot;, Roboto, Ubuntu, Cantarell, &amp;quot;Noto Sans&amp;quot;, sans-serif, &amp;quot;Helvetica Neue&amp;quot;, Arial, &amp;quot;Apple Color Emoji&amp;quot;, &amp;quot;Segoe UI Emoji&amp;quot;, &amp;quot;Segoe UI Symbol&amp;quot;, &amp;quot;Noto Color Emoji&amp;quot;; font-size: 16px; font-style: normal; font-variant-ligatures: normal; font-variant-caps: normal; letter-spacing: normal; orphans: 2; text-align: left; text-indent: 0px; text-transform: none; widows: 2; word-spacing: 0px; -webkit-text-stroke-width: 0px; text-decoration-thickness: initial; text-decoration-style: initial; text-decoration-color: initial; float: none; display: inline !important;&quot;&gt;&lt;b&gt;4. Construct a dataset using the data we have obtained. We combine the columns into a dictionary&lt;/b&gt;&lt;/span&gt;" style="text;whiteSpace=wrap;html=1;fontColor=#000000;labelBackgroundColor=none;labelBorderColor=none;" vertex="1" parent="1">
          <mxGeometry x="123" y="520" width="550" height="40" as="geometry" />
        </mxCell>
        <mxCell id="7bl6Vf3JTjFMhsMhAHnB-25" value="&lt;span style=&quot;font-family: Söhne, ui-sans-serif, system-ui, -apple-system, &amp;quot;Segoe UI&amp;quot;, Roboto, Ubuntu, Cantarell, &amp;quot;Noto Sans&amp;quot;, sans-serif, &amp;quot;Helvetica Neue&amp;quot;, Arial, &amp;quot;Apple Color Emoji&amp;quot;, &amp;quot;Segoe UI Emoji&amp;quot;, &amp;quot;Segoe UI Symbol&amp;quot;, &amp;quot;Noto Color Emoji&amp;quot;; font-size: 16px; font-style: normal; font-variant-ligatures: normal; font-variant-caps: normal; letter-spacing: normal; orphans: 2; text-align: left; text-indent: 0px; text-transform: none; widows: 2; word-spacing: 0px; -webkit-text-stroke-width: 0px; text-decoration-thickness: initial; text-decoration-style: initial; text-decoration-color: initial; float: none; display: inline !important;&quot;&gt;&lt;b&gt;5. Filter the dataframe to only include Falcon 9 launches and download it as csv file&lt;/b&gt;&lt;/span&gt;" style="text;whiteSpace=wrap;html=1;fontColor=#000000;labelBackgroundColor=none;" vertex="1" parent="1">
          <mxGeometry x="83.25" y="919" width="636.75" height="40" as="geometry" />
        </mxCell>
      </root>
    </mxGraphModel>
  </diagram>
</mxfile>
